<?xml version="1.0" encoding="UTF-8" ?>
<!DOCTYPE svg PUBLIC "-//W3C//DTD SVG 1.1//EN" "http://www.w3.org/Graphics/SVG/1.1/DTD/svg11.dtd">
<svg width="693pt" height="646pt" viewBox="0 0 693 646" version="1.1" xmlns="http://www.w3.org/2000/svg">
<g id="#000000ff">
<path fill="#000000" opacity="1.00" d=" M 313.08 3.85 C 379.24 -2.00 447.08 9.91 506.78 39.20 C 567.85 68.91 620.46 116.84 653.35 176.48 C 670.76 207.55 682.51 241.80 687.99 276.99 C 694.83 321.48 691.74 367.56 678.42 410.58 C 658.44 476.71 615.04 534.87 559.22 575.20 C 501.71 617.40 431.09 640.78 359.94 643.33 C 280.96 646.41 200.74 623.81 136.28 577.76 C 108.15 558.04 83.28 533.77 62.51 506.42 C 25.74 457.73 3.33 398.05 0.79 336.96 C 0.82 335.23 0.57 333.54 0.00 331.91 L 0.00 314.74 C 0.54 312.88 0.78 310.96 0.79 309.03 C 3.31 248.60 25.26 189.53 61.34 141.13 C 89.03 103.97 124.66 72.93 164.85 49.91 C 210.15 24.03 261.13 8.39 313.08 3.85 M 186.39 77.44 C 137.00 104.49 94.92 145.27 67.84 194.77 C 54.28 219.80 44.37 246.86 39.34 274.91 C 30.71 321.17 34.83 369.71 50.95 413.91 C 73.94 477.20 120.96 530.63 178.97 564.30 C 180.19 564.97 181.40 565.71 182.36 566.75 C 186.60 568.21 190.26 570.91 194.31 572.79 C 290.73 622.74 412.06 621.08 506.80 567.84 C 507.97 567.04 509.39 566.97 510.77 566.92 C 510.92 566.51 511.21 565.70 511.36 565.29 C 559.74 537.44 600.69 496.21 626.56 446.61 C 645.95 409.52 656.67 367.85 656.98 325.97 C 657.53 286.63 649.04 247.21 632.49 211.53 C 615.71 174.97 590.73 142.29 560.45 115.87 C 529.41 88.58 492.75 67.78 453.62 54.56 C 366.55 24.92 266.99 32.75 186.39 77.44 Z" />
<path fill="#000000" opacity="1.00" d=" M 172.75 108.01 C 208.02 108.04 243.29 107.90 278.56 108.08 C 298.45 180.12 318.57 252.11 338.51 324.14 C 343.49 307.86 347.69 291.34 352.37 274.98 C 367.54 220.29 382.77 165.62 397.91 110.93 C 398.43 110.00 398.10 107.62 399.83 108.01 C 434.74 108.09 469.67 107.79 504.58 108.16 C 504.39 214.12 504.56 320.09 504.50 426.06 C 504.55 465.33 504.41 504.61 504.57 543.88 C 476.30 544.16 448.02 543.93 419.75 543.99 C 419.74 486.68 419.75 429.36 419.75 372.05 C 419.66 339.66 419.93 307.25 419.61 274.87 C 397.10 364.58 374.85 454.35 352.22 544.03 C 343.13 543.96 334.04 544.02 324.95 544.00 C 302.39 453.98 279.95 363.92 257.39 273.90 C 257.06 363.93 257.35 453.96 257.25 543.99 C 229.08 544.01 200.92 544.00 172.76 543.99 C 172.74 398.67 172.75 253.34 172.75 108.01 Z" />
<path fill="#000000" opacity="1.00" d=" M 336.36 567.61 C 337.23 566.53 341.08 566.05 341.62 567.76 C 340.08 568.71 337.97 568.15 336.36 567.61 Z" />
<path fill="#000000" opacity="1.00" d=" M 353.30 567.55 C 353.71 566.31 357.50 566.18 357.70 567.74 C 356.42 568.63 354.60 568.11 353.30 567.55 Z" />
</g>
</svg>
