<?xml version="1.0" encoding="UTF-8" ?>
<!DOCTYPE svg PUBLIC "-//W3C//DTD SVG 1.1//EN" "http://www.w3.org/Graphics/SVG/1.1/DTD/svg11.dtd">
<svg width="693pt" height="646pt" viewBox="0 0 693 646" version="1.1" xmlns="http://www.w3.org/2000/svg">
<g id="#000000ff">
<path fill="#000000" opacity="1.00" d=" M 192.52 35.74 C 274.06 -2.07 369.58 -7.67 455.35 18.79 C 491.99 30.26 527.01 47.30 558.06 69.95 C 609.52 106.82 650.52 158.70 672.61 218.16 C 687.10 256.90 693.41 298.65 691.05 339.94 C 688.96 378.05 679.34 415.65 663.26 450.25 C 649.54 479.28 631.62 506.35 609.82 529.95 C 589.50 552.57 565.72 571.90 540.13 588.25 C 478.21 627.39 404.12 646.34 331.03 643.29 C 259.30 640.54 188.16 616.58 130.51 573.58 C 106.56 556.11 85.25 535.14 66.79 511.97 C 30.91 466.49 7.51 410.90 2.00 353.11 C 0.96 344.34 0.92 335.49 0.00 326.71 L 0.00 322.00 C 0.79 312.61 0.84 303.17 1.91 293.80 C 7.72 231.09 34.50 170.89 75.63 123.37 C 107.57 86.09 147.92 56.15 192.52 35.74 M 320.63 37.90 C 250.14 42.91 181.07 71.00 128.53 118.52 C 87.48 155.19 56.74 203.79 43.20 257.28 C 33.09 296.70 32.21 338.49 40.77 378.28 C 48.07 413.01 62.60 446.17 82.73 475.38 C 120.41 530.48 177.36 571.45 240.60 592.20 C 283.05 606.39 328.40 611.46 372.98 607.98 C 442.88 602.66 511.26 574.62 563.40 527.52 C 584.55 508.69 602.76 486.64 617.59 462.53 C 639.75 426.19 653.36 384.60 656.35 342.11 C 659.29 301.09 652.66 259.38 636.81 221.41 C 612.49 162.22 566.92 112.73 511.67 80.91 C 454.38 47.42 386.67 32.91 320.63 37.90 Z" />
<path fill="#000000" opacity="1.00" d=" M 302.43 150.59 C 311.58 139.77 325.20 133.20 339.20 131.67 C 358.97 129.44 379.83 132.58 397.04 142.94 C 407.92 149.47 417.03 159.87 419.72 172.52 C 422.01 181.91 419.39 191.44 418.26 200.80 C 411.82 243.62 404.88 286.36 397.07 328.94 C 395.13 342.60 385.82 354.81 373.56 360.96 C 373.49 357.59 373.24 354.23 372.50 350.94 C 372.22 358.96 372.07 367.58 367.41 374.49 C 362.84 381.19 356.05 386.23 348.36 388.81 C 348.30 417.88 348.43 446.95 348.29 476.02 C 348.16 486.51 348.57 497.08 347.14 507.50 C 346.76 511.51 343.04 514.49 339.15 514.73 C 333.73 515.17 328.26 515.14 322.84 514.71 C 317.13 514.51 314.61 508.03 314.54 503.12 C 313.75 479.77 314.16 456.39 314.06 433.03 C 314.01 415.00 313.96 396.97 314.03 378.94 C 314.33 373.48 310.06 369.17 309.62 363.79 C 306.25 348.69 316.39 332.79 330.66 327.80 C 336.10 326.04 341.98 326.22 347.56 327.18 C 349.27 327.76 351.91 327.54 352.33 329.85 C 352.19 328.58 352.08 327.31 351.99 326.04 L 351.78 326.85 C 344.40 323.58 336.00 322.66 328.13 324.55 C 316.80 327.14 306.78 335.14 302.05 345.80 C 300.64 349.07 299.77 352.54 298.31 355.79 C 284.73 350.21 274.58 337.47 271.95 323.05 C 270.54 316.48 271.90 309.79 272.70 303.24 C 275.18 285.42 278.11 267.68 281.11 249.95 C 282.00 244.98 282.74 239.97 284.30 235.16 C 311.24 237.27 338.04 241.08 365.00 243.07 C 369.99 244.60 371.89 237.26 368.64 234.54 C 365.19 233.58 361.59 233.44 358.07 232.94 C 333.98 230.14 309.90 227.27 285.76 225.02 C 285.67 223.36 285.61 221.70 285.56 220.04 C 310.72 222.67 335.85 225.61 361.03 228.02 C 364.31 228.24 367.66 228.77 370.91 228.07 C 373.17 226.09 372.55 222.86 372.11 220.25 C 363.11 218.54 353.96 217.71 344.87 216.61 C 326.06 214.37 307.21 212.44 288.38 210.38 C 288.29 208.64 288.13 206.90 288.22 205.15 C 289.13 204.09 290.62 204.08 291.91 204.03 C 295.88 203.95 299.83 204.41 303.78 204.76 C 325.57 206.99 347.32 209.50 369.13 211.52 C 370.80 211.56 373.09 211.95 374.13 210.24 C 375.32 208.20 375.71 205.00 373.82 203.27 C 371.61 202.57 369.30 202.31 367.02 201.98 C 341.61 198.52 316.05 196.36 290.64 192.91 C 290.90 190.76 291.20 188.61 291.52 186.47 C 316.00 189.10 340.47 191.94 364.98 194.30 C 368.67 194.55 372.41 195.12 376.10 194.58 C 379.11 193.23 378.65 189.29 377.90 186.67 C 349.80 182.21 321.36 180.19 293.19 176.26 C 294.62 167.29 296.51 157.79 302.43 150.59 M 355.50 329.79 C 355.37 328.53 354.62 327.68 353.24 327.23 C 352.13 328.27 354.19 330.43 355.50 329.79 Z" />
</g>
</svg>
