<?xml version="1.0" encoding="UTF-8" ?>
<!DOCTYPE svg PUBLIC "-//W3C//DTD SVG 1.1//EN" "http://www.w3.org/Graphics/SVG/1.1/DTD/svg11.dtd">
<svg width="693pt" height="646pt" viewBox="0 0 693 646" version="1.1" xmlns="http://www.w3.org/2000/svg">
<g id="#000000ff">
<path fill="#000000" opacity="1.00" d=" M 182.56 40.47 C 259.42 2.01 349.96 -7.48 433.36 12.80 C 477.40 23.39 519.54 42.33 556.38 68.74 C 607.84 105.15 649.03 156.49 671.61 215.49 C 686.31 253.74 693.03 295.00 691.25 335.93 C 689.68 373.37 680.89 410.40 665.80 444.67 C 641.11 500.39 599.80 548.25 549.31 582.21 C 485.94 625.26 408.42 646.31 332.01 643.33 C 261.38 640.79 191.26 617.74 133.97 576.11 C 107.79 557.47 84.58 534.79 64.83 509.47 C 30.05 464.44 7.39 409.80 1.99 353.04 C 0.91 343.76 0.84 334.40 0.00 325.10 L 0.00 323.34 C 0.37 318.72 0.63 314.11 0.76 309.49 C 2.78 262.82 15.99 216.68 38.89 175.96 C 71.32 117.41 122.79 70.19 182.56 40.47 M 320.59 37.90 C 286.16 40.36 252.16 48.33 220.17 61.29 C 167.88 82.57 120.99 117.87 87.69 163.63 C 64.11 195.69 47.44 232.92 39.89 272.02 C 31.33 315.09 33.96 360.24 46.95 402.15 C 55.59 429.27 68.26 455.15 84.79 478.34 C 122.48 532.00 178.57 571.86 240.70 592.23 C 283.45 606.50 329.14 611.54 374.01 607.89 C 443.54 602.39 511.50 574.39 563.37 527.54 C 584.36 508.85 602.46 487.01 617.23 463.12 C 639.44 426.91 653.13 385.46 656.29 343.07 C 659.45 300.91 652.50 258.00 635.85 219.12 C 611.21 160.69 565.84 111.93 511.00 80.52 C 453.84 47.30 386.38 32.93 320.59 37.90 Z" />
<path fill="#000000" opacity="1.00" d=" M 331.47 82.09 C 334.15 81.96 336.84 81.96 339.53 82.09 C 343.61 85.38 348.31 89.15 348.23 94.95 C 348.28 112.38 348.25 129.82 348.24 147.26 C 347.03 149.88 345.61 152.39 344.00 154.79 C 342.84 155.52 341.69 156.26 340.57 157.05 C 337.23 157.99 333.77 157.99 330.44 157.05 C 329.30 156.27 328.15 155.52 327.00 154.79 C 325.38 152.39 323.96 149.87 322.76 147.24 C 322.75 129.80 322.72 112.36 322.77 94.93 C 322.70 89.14 327.39 85.38 331.47 82.09 Z" />
<path fill="#000000" opacity="1.00" d=" M 219.46 93.56 C 222.42 90.56 226.92 88.88 231.07 90.17 C 235.03 91.30 237.84 94.54 240.31 97.64 C 252.12 113.48 264.60 128.80 276.26 144.75 C 278.95 148.17 278.52 152.71 277.34 156.63 C 274.89 160.39 271.29 163.59 266.60 163.84 C 264.85 163.54 263.08 163.33 261.32 163.12 C 255.83 159.81 252.60 154.15 248.70 149.29 C 238.06 135.43 227.18 121.76 216.78 107.72 C 215.12 103.00 215.46 97.03 219.46 93.56 Z" />
<path fill="#000000" opacity="1.00" d=" M 434.88 93.86 C 437.51 91.21 441.21 89.35 445.02 89.81 C 447.63 89.97 449.73 91.70 451.95 92.89 C 452.52 93.70 453.16 94.46 453.86 95.17 C 454.56 96.71 455.34 98.21 456.16 99.68 C 456.19 101.53 456.20 103.37 456.14 105.21 C 455.30 106.65 454.55 108.14 453.87 109.66 C 440.27 126.58 427.46 144.12 413.84 161.02 C 411.50 162.65 408.83 163.61 406.01 164.01 C 404.46 163.66 402.90 163.37 401.34 163.10 C 398.03 161.28 395.43 158.56 393.63 155.26 C 393.53 152.75 393.51 150.25 393.58 147.74 C 396.96 142.47 400.67 137.42 404.65 132.59 C 411.89 123.49 418.68 114.04 426.00 105.01 C 428.94 101.27 431.51 97.23 434.88 93.86 Z" />
<path fill="#000000" opacity="1.00" d=" M 198.31 171.86 C 202.66 170.71 207.13 170.68 211.49 171.80 C 216.97 174.76 220.59 180.79 220.40 187.04 C 220.30 223.22 220.28 259.41 220.23 295.60 C 222.69 295.64 225.16 295.86 227.62 295.66 C 228.53 295.02 228.90 294.14 228.73 293.02 C 228.68 260.00 228.80 226.97 228.78 193.94 C 228.63 190.83 230.17 188.05 231.04 185.14 C 232.90 183.16 235.04 181.47 237.25 179.89 C 239.68 179.36 242.12 178.81 244.54 178.23 C 246.60 178.86 248.68 179.42 250.76 179.95 C 253.05 181.46 255.21 183.18 256.99 185.28 C 257.70 187.86 259.07 190.29 259.17 193.01 C 259.27 234.47 259.01 275.93 259.23 317.39 C 252.95 317.41 246.85 319.05 240.63 319.68 C 238.09 320.70 235.41 321.26 232.74 321.78 C 231.20 322.54 229.63 323.26 228.05 323.93 C 209.87 331.81 195.09 346.86 187.11 364.95 C 186.45 366.64 185.82 368.34 185.21 370.05 C 182.03 378.42 180.92 387.37 180.51 396.27 C 180.50 400.32 185.55 405.64 189.44 402.71 C 189.49 389.69 192.33 376.69 198.07 364.98 C 205.35 350.45 217.95 338.87 233.04 332.83 C 238.59 330.71 244.24 328.68 250.17 327.98 C 256.00 327.46 261.59 325.31 267.52 325.83 C 267.65 325.28 267.91 324.18 268.05 323.63 C 269.78 320.72 271.10 317.56 272.02 314.30 C 272.40 313.86 273.16 312.99 273.54 312.55 C 273.69 311.57 273.84 310.60 274.00 309.63 C 275.82 306.75 277.08 303.56 278.07 300.31 C 278.44 299.87 279.18 298.97 279.54 298.52 C 279.70 297.53 279.86 296.55 280.04 295.58 C 281.84 292.70 283.08 289.51 284.10 286.28 C 284.46 285.84 285.19 284.94 285.55 284.49 C 285.72 283.50 285.89 282.52 286.07 281.54 C 287.86 278.69 289.08 275.53 290.11 272.35 C 292.26 268.34 295.58 265.22 299.41 262.83 C 302.78 262.65 306.15 262.70 309.52 262.95 C 315.05 266.14 320.32 271.26 320.12 278.13 C 318.64 282.23 318.00 286.59 316.41 290.65 C 316.26 291.99 316.12 293.33 315.99 294.68 C 315.62 295.11 314.88 295.97 314.51 296.40 C 314.14 300.08 312.65 303.48 311.78 307.05 C 309.92 313.19 308.58 319.49 306.54 325.58 C 306.00 327.97 305.34 330.33 304.50 332.63 C 301.63 344.58 298.26 356.47 296.91 368.71 C 295.89 374.27 294.50 379.74 293.06 385.20 C 290.63 390.66 289.13 396.61 285.62 401.54 C 285.49 402.00 285.23 402.93 285.10 403.39 C 283.92 405.05 282.81 406.75 281.68 408.44 C 276.38 415.48 271.08 422.72 263.99 428.09 C 260.17 431.55 255.66 434.08 251.53 437.13 C 251.03 437.21 250.04 437.37 249.54 437.46 C 248.46 438.46 247.36 439.45 246.28 440.46 C 246.73 442.93 247.09 445.42 247.07 447.94 C 246.97 478.29 247.04 508.65 247.02 539.00 C 213.24 539.00 179.45 539.00 145.67 539.00 C 145.67 511.67 145.67 484.34 145.67 457.01 C 145.65 453.25 145.85 449.48 145.41 445.73 C 144.54 439.68 145.24 433.56 144.81 427.49 C 139.79 424.40 136.52 419.44 132.56 415.22 C 127.29 409.34 123.61 402.34 120.02 395.38 C 116.51 387.13 113.70 378.57 112.49 369.66 C 111.27 364.53 111.75 359.21 111.69 354.00 C 111.64 314.00 111.81 274.00 111.79 234.01 C 111.93 227.23 115.60 219.53 122.61 217.67 C 129.61 214.98 137.89 218.91 141.04 225.53 C 141.61 228.73 143.21 231.74 143.08 235.06 C 143.05 254.70 143.01 274.34 143.03 293.98 C 143.05 297.34 142.29 300.64 142.05 303.98 C 145.40 304.12 148.56 303.00 150.95 300.63 C 149.16 294.56 150.13 288.23 150.77 282.08 C 150.77 256.05 150.82 230.03 150.83 204.00 C 150.80 201.06 151.45 198.20 152.00 195.33 C 154.18 192.12 156.42 188.59 160.19 187.08 C 165.27 184.39 171.31 186.16 175.88 189.07 C 177.17 190.85 178.55 192.55 179.90 194.30 C 180.84 197.47 182.20 200.60 182.05 203.98 C 182.02 223.33 182.03 242.68 182.00 262.03 C 180.61 272.98 181.64 284.05 181.15 295.06 C 183.88 295.76 187.32 296.50 189.74 294.69 C 187.69 285.49 190.24 276.25 189.77 267.00 C 189.74 240.98 189.88 214.97 189.82 188.95 C 189.80 186.19 190.36 183.48 190.71 180.76 C 191.76 178.83 192.78 176.87 194.00 175.04 C 195.44 173.99 196.91 172.97 198.31 171.86 Z" />
<path fill="#000000" opacity="1.00" d=" M 452.67 177.49 C 458.00 169.60 470.17 168.57 476.97 175.06 C 479.78 178.76 481.14 183.38 481.11 188.01 C 481.11 223.02 481.22 258.03 481.20 293.04 C 480.90 296.89 486.17 295.59 488.59 295.63 C 488.87 295.37 489.41 294.86 489.68 294.61 C 488.57 288.14 489.07 281.57 488.98 275.04 C 488.93 251.02 488.99 227.00 488.92 202.98 C 488.70 199.89 490.19 197.13 491.09 194.28 C 492.55 192.07 494.20 189.99 496.12 188.15 C 500.04 186.57 504.12 185.25 508.41 185.97 C 513.04 187.76 516.65 191.14 519.02 195.48 C 519.43 198.66 520.10 201.81 520.12 205.03 C 520.06 236.86 520.30 268.68 520.15 300.51 C 521.24 301.51 522.33 302.52 523.42 303.54 C 524.98 303.68 526.55 303.81 528.13 303.96 C 528.98 300.98 527.86 297.96 527.94 294.95 C 527.97 274.27 527.86 253.59 527.92 232.91 C 528.66 226.81 531.77 220.03 538.08 218.03 C 542.34 215.80 547.41 216.88 551.49 218.96 C 556.48 222.16 559.02 228.23 559.17 234.00 C 559.15 277.00 559.31 320.00 559.24 363.00 C 557.89 378.14 553.16 393.01 544.99 405.87 C 542.12 409.68 539.88 413.98 536.52 417.41 C 533.13 420.85 529.77 424.33 526.19 427.58 C 525.83 434.38 526.37 441.21 525.39 447.97 C 525.24 478.31 525.37 508.66 525.33 539.00 C 491.55 539.00 457.76 539.00 423.98 539.00 C 423.96 512.31 424.01 485.63 423.96 458.95 C 424.01 452.76 423.55 446.52 424.65 440.40 C 423.42 439.49 422.23 438.54 421.08 437.56 C 420.67 437.45 419.85 437.23 419.45 437.12 C 411.01 431.46 402.50 425.55 396.11 417.54 C 393.90 414.46 391.51 411.52 389.26 408.48 C 388.14 406.77 387.04 405.06 385.87 403.40 C 385.74 402.94 385.49 402.01 385.36 401.55 C 383.03 398.48 381.81 394.79 380.08 391.39 C 377.38 385.06 375.82 378.34 374.48 371.63 C 370.50 341.76 360.31 313.27 352.49 284.30 C 350.86 280.24 349.87 275.44 352.40 271.51 C 354.00 267.38 358.01 265.28 361.50 262.96 C 364.85 262.68 368.23 262.64 371.59 262.83 C 374.16 264.76 377.03 266.49 378.83 269.24 C 380.40 271.82 381.33 274.72 382.76 277.39 C 383.99 280.53 385.20 283.72 386.97 286.61 C 387.13 287.58 387.29 288.56 387.46 289.54 C 387.82 289.98 388.54 290.84 388.90 291.27 C 389.93 294.52 391.19 297.72 393.00 300.63 C 393.15 301.60 393.31 302.58 393.46 303.55 C 393.83 304.00 394.58 304.89 394.95 305.34 C 395.95 308.57 397.17 311.78 399.04 314.64 C 399.18 315.60 399.33 316.57 399.48 317.54 C 399.84 318.00 400.58 318.91 400.95 319.37 C 401.64 321.60 402.57 323.74 403.55 325.85 C 407.80 325.52 411.94 326.39 416.02 327.48 C 425.07 328.24 433.85 330.90 442.04 334.79 C 456.79 342.01 468.66 354.73 474.95 369.89 C 479.39 380.59 481.10 392.21 481.42 403.73 C 482.96 403.62 484.50 403.53 486.05 403.42 C 487.10 402.30 488.18 401.21 489.27 400.13 C 489.94 397.82 490.82 395.45 490.24 393.02 C 489.32 387.97 489.95 382.68 488.12 377.81 C 483.75 359.40 472.31 342.93 457.05 331.85 C 454.99 330.59 453.00 329.25 451.03 327.87 C 449.69 327.21 448.34 326.55 447.01 325.88 C 445.68 325.19 444.34 324.51 443.02 323.83 C 441.29 323.23 439.58 322.60 437.91 321.86 C 435.69 321.19 433.46 320.55 431.29 319.73 C 424.78 318.97 418.37 317.20 411.77 317.38 C 412.04 274.79 411.49 232.18 411.97 189.60 C 413.69 185.84 415.99 182.35 419.42 179.93 C 421.81 179.57 424.16 178.96 426.47 178.25 C 428.88 178.80 431.29 179.37 433.70 179.91 C 439.04 182.86 442.52 188.87 442.19 194.99 C 442.15 228.58 442.27 262.18 442.24 295.77 C 445.06 295.72 447.89 295.65 450.71 295.60 C 450.73 257.61 450.48 219.61 450.71 181.62 C 451.31 180.95 451.91 180.29 452.53 179.63 C 452.56 179.09 452.64 178.03 452.67 177.49 Z" />
</g>
</svg>
