<?xml version="1.0" encoding="UTF-8" ?>
<!DOCTYPE svg PUBLIC "-//W3C//DTD SVG 1.1//EN" "http://www.w3.org/Graphics/SVG/1.1/DTD/svg11.dtd">
<svg width="693pt" height="646pt" viewBox="0 0 693 646" version="1.1" xmlns="http://www.w3.org/2000/svg">
<g id="#000000ff">
<path fill="#000000" opacity="1.00" d=" M 308.04 3.42 C 376.33 -3.72 446.70 8.09 508.37 38.49 C 569.67 68.44 622.37 116.79 655.12 176.86 C 674.30 211.65 686.64 250.30 690.76 289.83 C 695.57 333.56 690.53 378.35 676.07 419.90 C 654.49 482.91 611.60 537.89 557.38 576.26 C 492.80 622.65 412.28 645.43 333.02 642.33 C 274.58 640.23 216.62 624.11 165.83 595.07 C 165.75 597.39 165.66 599.72 165.46 602.05 C 165.28 599.64 165.31 597.23 165.35 594.83 C 134.88 577.10 106.72 555.14 83.10 528.90 C 45.22 487.74 18.44 436.30 7.33 381.42 C -0.84 340.75 -0.48 298.41 8.33 257.88 C 17.20 217.31 34.69 178.79 58.78 145.01 C 86.94 105.68 123.94 72.91 165.88 48.89 C 209.42 24.03 258.20 8.62 308.04 3.42 M 223.95 59.19 C 168.30 81.18 118.63 119.10 84.53 168.46 C 77.83 178.39 71.06 188.41 66.20 199.40 C 62.89 204.70 60.51 210.49 57.95 216.17 C 33.64 271.54 29.29 335.36 45.77 393.53 C 59.79 444.12 89.26 489.99 128.07 525.16 C 151.12 546.38 177.66 563.62 205.91 577.06 C 284.69 613.99 378.08 618.05 459.90 588.60 C 522.53 566.33 578.38 523.98 614.53 467.95 C 635.82 435.20 649.97 397.81 655.44 359.11 C 661.56 315.67 656.81 270.68 641.39 229.59 C 640.99 228.53 640.88 227.45 641.07 226.34 C 642.33 226.49 643.61 226.64 644.90 226.78 C 642.98 225.06 639.67 224.96 638.59 222.43 C 622.52 182.28 596.54 146.30 564.38 117.48 C 537.52 93.18 506.17 73.93 472.67 60.25 C 393.96 28.21 302.93 27.83 223.95 59.19 Z" />
<path fill="#000000" opacity="1.00" d=" M 326.28 87.40 C 335.78 85.98 345.44 86.95 355.02 86.68 C 360.24 87.50 365.51 87.41 370.76 87.77 C 374.00 88.83 377.79 87.61 380.69 89.62 C 387.53 89.68 394.06 92.15 400.88 92.52 C 401.30 92.76 402.15 93.24 402.57 93.48 C 407.56 93.82 412.12 96.11 417.01 97.01 C 420.92 98.27 424.62 100.13 428.63 101.10 C 433.84 102.40 438.38 105.36 443.44 107.06 C 451.39 111.19 459.61 114.92 467.06 119.95 C 471.66 123.20 477.10 125.41 481.08 129.50 C 484.50 131.15 487.48 133.57 490.03 136.37 C 490.52 136.51 491.51 136.79 492.01 136.92 C 492.90 138.07 493.80 139.22 494.70 140.36 C 495.28 140.50 496.45 140.78 497.04 140.91 C 497.98 142.55 499.26 143.96 500.85 144.99 C 502.24 147.00 504.04 148.66 506.21 149.80 C 508.00 151.98 510.81 153.22 512.05 155.84 C 515.14 157.67 517.10 160.66 519.26 163.42 C 525.57 169.62 530.90 176.76 536.22 183.81 C 542.08 192.06 548.11 200.31 552.46 209.49 C 554.34 212.88 556.37 216.18 558.19 219.60 C 558.79 222.57 560.20 225.30 561.66 227.92 C 562.69 228.26 563.08 228.94 562.82 229.98 C 563.36 232.87 564.67 235.53 566.08 238.08 C 567.09 241.67 568.00 245.29 569.18 248.83 C 571.35 252.99 572.05 257.70 573.09 262.22 C 575.14 268.56 576.43 275.14 576.99 281.78 C 578.32 284.66 577.52 288.09 579.20 290.83 C 579.26 293.83 579.15 296.86 579.70 299.83 C 580.71 305.90 579.54 312.08 580.55 318.16 C 581.50 324.77 579.66 331.35 580.14 337.97 C 580.36 341.67 579.25 345.27 579.30 348.97 C 579.18 350.67 579.62 352.64 578.29 354.01 C 577.63 360.81 575.75 367.42 575.02 374.22 C 572.93 379.84 571.59 385.69 570.01 391.46 C 569.74 391.82 569.22 392.54 568.96 392.90 C 565.12 407.63 557.38 420.92 550.65 434.48 C 544.85 444.66 537.96 454.16 531.14 463.67 C 525.90 468.70 522.32 475.20 516.92 480.10 C 512.19 484.42 508.22 489.58 502.92 493.23 C 500.40 495.25 498.51 497.96 495.86 499.83 C 491.03 503.37 486.58 507.42 481.50 510.59 C 472.50 517.83 462.38 523.59 452.33 529.25 C 444.87 532.32 438.27 537.22 430.53 539.59 C 422.02 543.65 413.08 547.09 403.79 548.80 C 398.71 551.81 392.64 552.01 386.94 552.81 C 386.62 553.12 385.99 553.72 385.67 554.02 C 378.48 555.07 371.21 555.42 364.05 556.62 C 359.36 556.81 354.59 556.19 349.99 557.44 C 346.01 558.44 341.92 557.70 337.88 557.76 C 336.74 557.82 335.70 557.50 334.77 556.80 C 329.19 556.41 323.52 557.17 318.05 555.71 C 312.34 555.87 306.81 554.39 301.15 553.98 C 299.27 552.20 296.52 552.74 294.22 552.07 C 290.41 551.07 286.28 550.88 282.77 548.98 C 279.02 547.72 275.02 547.22 271.44 545.48 C 268.07 543.82 264.30 543.32 260.86 541.84 C 257.04 540.44 253.68 537.94 249.66 537.06 C 241.03 532.55 232.19 528.40 224.05 523.04 C 220.61 521.20 217.25 519.26 214.19 516.84 C 211.04 515.40 208.69 512.72 205.65 511.08 C 199.89 506.65 193.86 502.55 188.67 497.44 C 181.95 492.54 177.00 485.72 170.75 480.30 C 164.46 474.02 158.41 467.40 153.42 460.03 C 150.83 458.09 150.11 454.61 147.73 452.41 C 143.04 445.29 138.32 438.17 134.19 430.72 C 132.45 425.77 129.21 421.55 127.42 416.63 C 123.22 409.44 121.02 401.37 117.79 393.76 C 116.57 388.90 115.20 384.08 113.89 379.25 C 111.21 371.03 110.30 362.39 108.57 353.97 C 108.44 352.28 108.61 350.48 107.63 348.99 C 107.56 344.66 107.56 340.31 106.75 336.04 C 106.56 328.05 106.80 320.05 106.66 312.05 C 106.56 308.66 107.63 305.37 107.52 301.99 C 107.66 299.31 106.90 296.39 108.38 293.96 C 108.48 291.84 108.46 289.72 108.44 287.61 C 108.76 287.22 109.40 286.45 109.72 286.06 C 110.17 279.30 111.49 272.62 112.61 265.94 C 115.00 259.44 116.18 252.58 118.25 245.98 C 121.66 236.42 125.25 226.90 130.20 218.01 C 130.28 217.49 130.44 216.44 130.51 215.92 C 135.29 209.47 137.68 201.31 143.28 195.34 C 143.43 194.81 143.71 193.73 143.86 193.20 C 144.99 191.90 145.99 190.50 146.87 189.02 C 150.91 184.32 153.86 178.70 158.42 174.47 C 159.52 171.99 161.14 169.78 163.56 168.46 C 163.67 168.06 163.89 167.25 164.00 166.84 C 173.14 158.02 181.69 148.55 191.44 140.39 C 196.82 136.42 201.78 131.90 207.41 128.26 C 218.86 119.21 232.18 113.14 245.11 106.61 C 255.16 102.26 265.34 97.97 276.09 95.55 C 279.05 94.45 282.03 93.35 285.25 93.34 C 291.87 90.88 299.09 90.88 305.98 89.51 C 308.54 87.56 312.02 89.00 314.94 88.12 C 318.64 87.10 322.50 87.70 326.28 87.40 M 305.60 131.44 C 296.08 133.77 286.29 135.33 277.23 139.18 C 274.26 140.19 271.15 140.97 268.58 142.86 C 268.10 142.93 267.14 143.06 266.66 143.13 C 262.56 145.15 258.60 147.46 254.38 149.26 C 250.42 151.70 245.73 152.98 242.45 156.43 C 237.00 158.46 232.78 162.65 228.04 165.87 C 212.75 177.05 199.61 190.82 187.65 205.41 C 185.78 208.68 183.23 211.47 181.08 214.54 C 172.89 226.13 166.74 238.99 160.91 251.88 C 158.22 260.03 154.91 267.99 153.49 276.51 C 151.11 285.16 149.67 294.07 149.18 303.02 C 147.50 313.24 148.66 323.64 148.29 333.95 C 149.27 343.32 149.72 352.78 151.79 362.01 C 153.70 369.30 155.12 376.74 158.05 383.71 C 159.77 387.56 159.69 392.29 162.84 395.40 C 162.90 395.91 163.04 396.93 163.11 397.44 C 168.95 409.91 175.84 421.84 183.78 433.08 C 186.98 436.84 189.27 441.41 193.33 444.39 C 194.52 448.02 198.17 449.85 200.27 452.89 C 203.46 457.18 207.21 461.04 211.56 464.17 C 214.47 466.10 216.22 469.50 219.63 470.70 C 222.75 474.63 227.36 476.89 230.94 480.33 C 233.98 482.21 237.20 483.85 239.86 486.29 C 243.64 488.10 247.03 490.59 250.89 492.28 C 254.17 494.93 258.48 495.76 261.73 498.43 C 264.96 499.20 268.27 500.21 270.80 502.46 C 275.51 504.03 280.42 505.00 284.88 507.26 C 289.97 508.74 295.22 509.64 300.31 511.15 C 308.35 513.58 316.94 513.19 324.96 515.51 C 334.69 515.65 344.49 517.49 354.20 515.76 C 357.83 515.30 361.50 515.67 365.15 515.52 C 366.96 512.95 370.50 514.33 373.13 514.00 C 373.56 513.77 374.42 513.30 374.85 513.07 C 378.35 513.05 381.87 512.69 385.20 511.57 C 390.54 509.72 396.15 508.89 401.62 507.52 C 401.89 507.27 402.44 506.77 402.71 506.51 C 407.75 504.60 413.27 504.01 417.90 501.10 C 423.11 499.59 427.51 496.35 432.53 494.38 C 434.86 492.49 437.79 491.69 440.38 490.28 C 442.79 488.27 445.45 486.59 448.43 485.55 C 449.60 484.36 450.91 483.31 452.41 482.53 C 455.66 480.76 458.14 477.83 461.59 476.38 C 462.55 475.29 463.43 474.13 464.39 473.05 C 464.89 472.97 465.90 472.81 466.41 472.72 C 468.41 469.57 471.84 467.87 474.45 465.31 C 477.31 462.62 480.06 459.82 482.83 457.03 C 493.00 447.29 501.15 435.71 509.47 424.41 C 511.19 421.16 512.64 417.73 515.04 414.90 C 518.07 409.49 520.45 403.74 523.57 398.39 C 524.71 395.52 525.51 392.52 526.88 389.74 C 529.27 386.14 528.97 381.58 531.01 377.84 C 533.37 372.47 533.57 366.51 535.25 360.96 C 537.52 355.25 537.05 348.99 537.98 343.01 C 538.69 338.67 537.01 333.92 539.27 329.92 C 539.52 325.22 539.35 320.53 539.40 315.83 C 539.05 315.42 538.35 314.58 537.99 314.16 C 538.57 305.65 537.38 297.17 536.44 288.73 C 535.01 286.54 535.45 283.81 534.70 281.40 C 533.32 276.82 533.06 271.97 531.35 267.49 C 529.66 265.41 529.74 262.60 529.08 260.13 C 528.42 256.33 525.76 253.30 524.86 249.59 C 524.12 246.35 522.38 243.52 520.78 240.66 C 520.24 239.40 519.93 238.07 519.44 236.80 C 517.16 234.13 515.67 230.93 514.64 227.60 C 514.19 227.31 513.28 226.73 512.83 226.44 C 510.07 219.15 504.45 213.51 500.54 206.89 C 497.93 203.60 494.95 200.60 492.57 197.15 C 485.31 189.75 477.82 182.54 470.67 175.04 C 468.36 174.35 467.06 172.29 465.36 170.78 C 462.21 168.54 459.31 165.98 456.27 163.60 C 454.37 162.46 452.50 161.27 450.56 160.22 C 450.28 159.80 449.73 158.96 449.46 158.54 C 446.88 157.73 444.50 156.44 442.34 154.83 C 436.87 150.90 430.63 148.29 424.73 145.13 C 418.88 143.35 413.68 139.90 407.63 138.75 C 402.36 136.21 396.61 134.97 390.93 133.72 C 381.23 130.76 371.04 129.56 360.93 129.16 C 351.73 127.46 342.31 128.65 333.01 128.29 C 323.93 129.73 314.60 129.27 305.60 131.44 Z" />
<path fill="#000000" opacity="1.00" d=" M 226.66 206.60 C 242.77 206.28 258.91 206.43 275.03 206.52 C 275.15 221.87 275.39 237.25 274.91 252.59 C 258.84 252.51 242.76 252.69 226.68 252.49 C 226.39 237.20 226.46 221.90 226.66 206.60 Z" />
<path fill="#000000" opacity="1.00" d=" M 288.26 206.42 C 304.19 206.46 320.12 206.43 336.05 206.43 C 336.23 221.82 336.32 237.21 336.02 252.59 C 320.09 252.57 304.16 252.56 288.23 252.60 C 287.42 242.43 288.07 232.21 287.87 222.02 C 287.93 216.82 287.58 211.59 288.26 206.42 Z" />
<path fill="#000000" opacity="1.00" d=" M 350.16 206.52 C 366.17 206.31 382.18 206.54 398.19 206.40 C 398.55 221.78 398.43 237.17 398.25 252.55 C 382.21 252.60 366.17 252.58 350.13 252.55 C 349.62 246.36 350.03 240.15 349.92 233.94 C 350.05 224.80 349.62 215.65 350.16 206.52 Z" />
<path fill="#000000" opacity="1.00" d=" M 411.24 206.46 C 427.19 206.43 443.14 206.42 459.10 206.47 C 459.32 207.08 459.77 208.28 460.00 208.89 C 458.36 213.20 460.18 217.62 460.09 222.02 C 460.05 231.49 460.05 240.96 460.08 250.43 C 459.58 251.15 459.10 251.88 458.62 252.62 C 442.84 252.51 427.06 252.62 411.28 252.56 C 410.70 245.38 411.12 238.18 411.00 230.99 C 411.12 222.81 410.72 214.62 411.24 206.46 Z" />
<path fill="#000000" opacity="1.00" d=" M 288.36 268.45 C 304.22 268.55 320.08 268.53 335.95 268.46 C 336.34 283.82 336.23 299.20 336.03 314.56 C 320.07 314.34 304.12 314.60 288.16 314.56 C 287.52 304.38 288.02 294.16 287.86 283.97 C 287.94 278.79 287.55 273.59 288.36 268.45 Z" />
<path fill="#000000" opacity="1.00" d=" M 350.28 268.46 C 366.25 268.57 382.22 268.47 398.20 268.51 C 398.58 283.82 398.34 299.15 398.33 314.47 C 382.28 314.64 366.23 314.38 350.19 314.55 C 349.57 307.73 350.07 300.87 349.92 294.03 C 350.08 285.51 349.54 276.96 350.28 268.46 Z" />
<path fill="#000000" opacity="1.00" d=" M 411.37 268.49 C 426.59 268.52 441.81 268.50 457.04 268.49 C 459.69 267.81 459.93 271.19 460.03 272.98 C 460.16 284.99 459.97 297.00 460.12 309.00 C 460.20 310.87 459.77 312.70 459.30 314.51 C 443.24 314.54 427.18 314.51 411.12 314.52 C 410.83 302.00 411.10 289.47 410.98 276.95 C 410.93 274.12 411.04 271.30 411.37 268.49 Z" />
<path fill="#000000" opacity="1.00" d=" M 226.76 268.56 C 242.75 268.40 258.75 268.61 274.75 268.45 C 275.53 273.59 275.02 278.81 275.15 283.99 C 275.09 294.15 275.27 304.31 275.07 314.47 C 258.90 314.53 242.74 314.60 226.57 314.44 C 226.61 299.15 226.24 283.84 226.76 268.56 Z" />
<path fill="#000000" opacity="1.00" d=" M 226.68 330.74 C 242.74 330.62 258.81 330.75 274.88 330.69 C 275.50 344.85 275.00 359.05 275.12 373.23 C 271.65 374.89 267.70 374.03 264.00 374.21 C 252.10 374.40 240.18 373.90 228.30 374.49 C 240.50 375.14 252.77 374.57 265.00 374.79 C 268.33 374.98 272.08 374.00 275.03 375.99 C 258.90 375.68 242.77 376.03 226.64 375.78 C 226.47 360.77 226.40 345.75 226.68 330.74 Z" />
<path fill="#000000" opacity="1.00" d=" M 287.87 345.98 C 287.97 340.88 287.49 335.74 288.32 330.68 C 304.23 330.72 320.14 330.69 336.04 330.70 C 336.29 345.73 336.21 360.78 336.08 375.81 C 320.08 375.89 304.08 375.91 288.08 375.80 C 287.60 365.87 287.98 355.92 287.87 345.98 Z" />
<path fill="#000000" opacity="1.00" d=" M 349.87 338.98 C 349.78 336.19 349.88 333.39 350.36 330.64 C 366.29 330.77 382.22 330.67 398.16 330.69 C 398.64 345.71 398.33 360.75 398.31 375.77 C 382.24 375.94 366.16 375.89 350.09 375.80 C 349.65 363.53 350.10 351.25 349.87 338.98 Z" />
<path fill="#000000" opacity="1.00" d=" M 411.00 348.06 C 411.14 342.25 410.62 336.42 411.39 330.64 C 427.30 330.77 443.21 330.67 459.12 330.71 C 460.97 336.95 459.72 343.56 460.07 349.97 C 459.74 358.57 460.79 367.26 459.40 375.79 C 443.34 375.92 427.28 375.90 411.21 375.79 C 410.75 366.56 411.11 357.30 411.00 348.06 Z" />
<path fill="#000000" opacity="1.00" d=" M 226.61 393.20 C 242.77 392.71 258.94 392.98 275.11 393.10 C 275.14 408.37 275.26 423.64 275.04 438.91 C 268.05 438.21 261.03 438.65 254.02 438.53 C 245.76 438.62 237.48 438.31 229.23 438.74 C 228.55 438.63 227.18 438.40 226.50 438.29 C 226.61 423.26 226.39 408.23 226.61 393.20 Z" />
<path fill="#000000" opacity="1.00" d=" M 287.84 397.00 C 287.86 395.50 287.52 392.57 289.90 392.94 C 304.65 392.97 319.41 392.97 334.16 392.94 C 335.41 392.62 336.55 393.63 336.19 394.89 C 336.15 409.60 336.22 424.32 336.15 439.04 C 331.11 438.23 326.01 438.59 320.93 438.53 C 311.18 438.51 301.42 438.58 291.67 438.49 C 291.31 438.70 290.59 439.11 290.23 439.32 C 289.68 439.16 288.57 438.83 288.02 438.67 C 287.65 424.79 287.98 410.89 287.84 397.00 Z" />
<path fill="#000000" opacity="1.00" d=" M 350.08 393.09 C 363.73 392.78 377.38 393.08 391.02 392.93 C 393.48 392.90 395.94 393.02 398.40 393.27 C 398.37 407.17 398.37 421.07 398.40 434.98 C 398.35 436.28 398.36 437.62 398.04 438.90 C 386.05 438.13 374.02 438.73 362.01 438.51 C 357.96 438.31 353.88 439.12 349.87 438.40 C 350.08 423.30 349.67 408.19 350.08 393.09 Z" />
<path fill="#000000" opacity="1.00" d=" M 411.12 393.19 C 427.14 392.68 443.19 393.07 459.22 393.01 C 459.76 394.96 460.12 396.96 460.09 399.00 C 460.05 410.33 460.06 421.66 460.09 433.00 C 460.13 435.08 459.74 437.16 459.08 439.13 C 456.76 438.75 454.43 438.48 452.08 438.50 C 440.73 438.55 429.38 438.55 418.03 438.50 C 416.26 438.40 414.56 438.89 412.90 439.44 C 410.23 438.32 411.10 435.28 410.97 432.98 C 411.11 419.72 410.83 406.45 411.12 393.19 Z" />
</g>
</svg>
