<?xml version="1.0" encoding="UTF-8" ?>
<!DOCTYPE svg PUBLIC "-//W3C//DTD SVG 1.1//EN" "http://www.w3.org/Graphics/SVG/1.1/DTD/svg11.dtd">
<svg width="693pt" height="646pt" viewBox="0 0 693 646" version="1.1" xmlns="http://www.w3.org/2000/svg">
<g id="#000000ff">
<path fill="#000000" opacity="1.00" d=" M 240.37 17.65 C 280.39 5.88 322.36 0.77 364.03 2.85 C 423.74 5.63 482.80 23.11 534.03 53.99 C 561.80 70.92 587.54 91.39 609.37 115.56 C 655.41 165.31 685.15 230.38 690.46 298.13 C 694.05 340.32 688.50 383.27 674.29 423.16 C 652.28 485.72 609.29 540.18 555.13 578.15 C 490.48 624.14 410.09 646.59 331.01 643.29 C 259.29 640.53 188.18 616.58 130.53 573.60 C 105.73 555.49 83.73 533.67 64.85 509.49 C 26.71 460.24 3.37 399.34 0.81 336.97 C 0.77 335.23 0.50 333.51 0.00 331.86 L 0.00 314.91 C 1.24 309.68 0.75 304.25 1.43 298.94 C 5.03 252.38 19.95 206.81 44.14 166.89 C 60.25 139.80 80.77 115.45 103.95 94.15 C 142.87 58.76 189.99 32.64 240.37 17.65 M 320.60 37.90 C 251.36 42.83 183.50 70.01 131.33 116.03 C 99.21 144.09 73.07 179.19 56.38 218.50 C 40.73 254.75 33.51 294.57 35.18 334.01 C 36.68 373.18 47.25 411.89 65.40 446.61 C 92.41 498.41 135.86 541.04 187.04 568.91 C 265.19 612.00 361.06 620.54 446.05 593.91 C 510.28 574.03 568.48 533.47 607.21 478.26 C 629.54 446.77 645.21 410.50 652.35 372.54 C 661.53 324.81 657.13 274.56 639.88 229.12 C 616.49 166.88 569.75 114.55 512.44 81.36 C 454.98 47.55 386.94 32.88 320.60 37.90 Z" />
<path fill="#000000" opacity="1.00" d=" M 231.45 146.53 C 262.81 129.82 297.23 117.77 332.91 115.68 C 369.14 113.17 405.47 121.54 438.45 136.26 C 453.57 143.13 468.98 150.26 481.26 161.71 C 497.12 176.04 509.70 194.83 514.06 215.97 C 515.90 224.19 515.33 232.64 515.41 241.00 C 515.39 319.31 515.45 397.63 515.37 475.94 C 505.49 475.91 495.60 475.93 485.71 475.93 C 485.69 394.61 485.70 313.29 485.71 231.98 C 486.45 217.81 478.96 204.79 470.23 194.22 C 458.91 180.70 444.56 169.29 427.88 163.22 C 401.25 152.47 372.97 144.20 344.01 144.64 C 313.69 144.77 284.37 154.24 256.68 165.86 C 244.55 171.47 233.83 179.92 224.75 189.67 C 214.85 200.54 205.77 213.81 205.29 229.00 C 205.24 311.30 205.29 393.61 205.26 475.92 C 195.37 475.93 185.47 475.92 175.57 475.93 C 175.54 395.96 175.57 316.00 175.56 236.03 C 175.58 230.32 175.31 224.56 176.37 218.92 C 179.55 199.64 189.90 182.22 203.10 168.08 C 211.40 159.53 220.83 152.00 231.45 146.53 Z" />
<path fill="#000000" opacity="1.00" d=" M 120.13 366.89 C 124.51 334.74 144.69 305.39 172.77 289.26 C 172.80 351.50 172.72 413.74 172.81 475.97 C 144.57 459.93 124.33 430.35 120.11 398.10 C 120.06 387.70 120.01 377.29 120.13 366.89 Z" />
<path fill="#000000" opacity="1.00" d=" M 518.16 289.23 C 551.04 307.94 572.75 344.98 571.92 382.93 C 572.58 420.68 550.90 457.47 518.16 476.03 C 518.17 413.76 518.18 351.50 518.16 289.23 Z" />
</g>
</svg>
