<?xml version="1.0" encoding="UTF-8" ?>
<!DOCTYPE svg PUBLIC "-//W3C//DTD SVG 1.1//EN" "http://www.w3.org/Graphics/SVG/1.1/DTD/svg11.dtd">
<svg width="693pt" height="646pt" viewBox="0 0 693 646" version="1.1" xmlns="http://www.w3.org/2000/svg">
<g id="#000000ff">
<path fill="#000000" opacity="1.00" d=" M 342.41 0.00 L 349.62 0.00 C 371.43 1.03 393.31 2.37 414.78 6.63 C 490.97 20.48 562.86 59.49 614.17 117.76 C 659.63 168.61 688.15 234.73 691.98 302.98 C 693.59 326.05 691.69 349.21 688.01 371.99 C 678.44 427.81 652.54 480.52 615.11 522.93 C 567.55 577.43 501.99 615.41 431.66 631.66 C 385.40 642.58 337.03 644.25 290.07 637.08 C 220.92 626.55 154.78 595.67 103.34 548.13 C 66.78 514.37 37.72 472.29 20.42 425.56 C -1.71 366.48 -4.36 300.34 12.84 239.66 C 24.48 198.31 45.13 159.60 72.47 126.52 C 104.50 87.67 145.47 56.36 191.05 35.06 C 232.32 15.52 277.40 4.32 322.93 1.33 C 329.40 0.64 335.93 0.77 342.41 0.00 M 321.51 35.80 C 266.14 39.65 211.75 57.85 165.44 88.49 C 122.85 116.66 87.07 155.56 64.21 201.33 C 47.66 234.12 38.08 270.36 36.09 307.02 C 35.85 323.38 35.60 339.83 38.07 356.06 C 45.71 414.88 74.07 470.26 115.60 512.37 C 169.18 567.34 243.70 600.50 320.05 606.09 C 333.66 607.53 347.38 606.95 361.04 606.95 C 392.59 605.58 424.03 600.06 453.95 589.84 C 525.82 565.97 589.35 515.53 625.61 448.66 C 644.74 413.48 655.96 374.02 657.92 334.02 C 658.11 319.17 658.33 304.28 656.37 289.53 C 653.50 266.93 648.12 244.57 639.61 223.41 C 626.11 189.07 605.46 157.65 579.84 131.15 C 554.20 104.50 523.59 82.83 490.28 66.83 C 444.82 45.20 394.33 34.09 343.98 34.98 C 336.49 35.04 328.97 34.87 321.51 35.80 Z" />
<path fill="#000000" opacity="1.00" d=" M 326.21 89.21 C 358.20 86.40 390.80 90.17 421.12 100.84 C 463.21 115.48 500.63 143.07 527.20 178.83 C 550.93 210.57 566.01 248.72 570.25 288.13 C 575.25 332.73 566.60 378.79 545.40 418.37 C 526.26 454.45 497.07 485.09 461.97 505.97 C 424.89 528.21 381.23 539.30 338.03 537.40 C 294.97 535.93 252.53 521.41 217.40 496.51 C 178.13 468.86 148.09 428.32 133.31 382.60 C 124.41 355.36 120.88 326.40 122.83 297.82 C 125.46 256.18 140.20 215.42 164.67 181.64 C 186.02 152.01 214.68 127.70 247.42 111.51 C 272.02 99.30 298.88 91.79 326.21 89.21 M 460.48 145.99 C 443.88 170.34 427.50 194.85 410.86 219.18 C 422.59 227.29 433.20 237.19 441.26 249.01 C 465.51 232.51 489.77 216.03 513.95 199.43 C 499.60 178.53 481.37 160.34 460.48 145.99 M 335.55 224.71 C 312.38 227.47 290.75 240.16 276.71 258.73 C 263.27 276.27 256.72 298.95 258.89 320.94 C 261.27 353.17 283.26 382.77 313.18 394.81 C 333.37 403.15 356.67 403.63 377.20 396.18 C 392.46 390.67 406.13 380.83 416.21 368.12 C 427.56 353.92 434.44 336.12 435.26 317.93 C 436.42 299.55 431.56 280.86 421.61 265.36 C 411.67 249.70 396.67 237.32 379.39 230.58 C 365.54 225.05 350.32 223.58 335.55 224.71 M 179.99 426.47 C 194.32 447.38 212.54 465.58 233.43 479.94 C 250.03 455.75 266.51 431.48 283.03 407.24 C 271.11 399.15 260.86 388.73 252.64 376.92 C 228.42 393.43 204.18 409.92 179.99 426.47 Z" />
<path fill="#000000" opacity="1.00" d=" M 340.34 294.53 C 347.33 292.08 355.71 293.76 360.89 299.14 C 367.63 305.68 368.34 317.22 362.72 324.68 C 358.54 330.46 351.04 333.38 344.04 332.28 C 335.36 331.26 328.08 323.59 327.52 314.87 C 326.46 306.18 332.01 297.27 340.34 294.53 Z" />
</g>
</svg>
