<?xml version="1.0" encoding="UTF-8" ?>
<!DOCTYPE svg PUBLIC "-//W3C//DTD SVG 1.1//EN" "http://www.w3.org/Graphics/SVG/1.1/DTD/svg11.dtd">
<svg width="693pt" height="646pt" viewBox="0 0 693 646" version="1.1" xmlns="http://www.w3.org/2000/svg">
<g id="#000000ff">
<path fill="#000000" opacity="1.00" d=" M 208.64 28.76 C 289.87 -4.04 382.84 -6.17 465.68 22.15 C 498.09 33.44 529.13 48.98 556.95 69.15 C 610.67 107.33 653.18 161.82 674.79 224.26 C 688.67 263.83 694.03 306.37 690.43 348.14 C 685.10 415.52 655.58 480.24 609.91 529.85 C 588.62 553.55 563.56 573.69 536.54 590.49 C 474.76 628.48 401.34 646.62 328.99 643.20 C 257.98 640.09 187.66 616.18 130.56 573.62 C 105.53 555.35 83.34 533.29 64.34 508.83 C 26.49 459.69 3.35 399.04 0.80 336.93 C 0.75 334.79 0.40 332.67 0.00 330.59 L 0.00 317.10 C 0.36 314.76 0.61 312.41 0.75 310.05 C 3.39 240.64 31.69 173.02 77.59 121.11 C 113.04 80.41 158.62 48.84 208.64 28.76 M 320.63 37.90 C 263.36 41.98 207.15 61.23 159.80 93.80 C 119.31 121.70 85.29 159.40 63.31 203.50 C 50.15 229.63 41.38 257.91 37.38 286.88 C 31.03 333.32 37.09 381.45 55.20 424.71 C 71.77 464.94 98.20 500.90 130.86 529.56 C 155.80 551.72 184.57 569.43 215.16 582.65 C 292.55 615.64 382.50 617.81 461.41 588.69 C 522.43 566.41 576.82 525.05 612.49 470.53 C 633.23 439.07 647.45 403.26 653.51 366.05 C 661.39 318.54 655.98 268.87 637.95 224.20 C 613.92 163.82 567.82 113.25 511.72 80.94 C 454.42 47.43 386.69 32.91 320.63 37.90 Z" />
<path fill="#000000" opacity="1.00" d=" M 281.43 195.64 C 309.19 187.54 338.07 183.09 367.01 183.08 C 419.13 182.53 470.76 196.11 517.61 218.48 C 560.38 238.67 599.51 265.85 635.60 296.26 C 643.62 302.33 648.64 313.06 646.06 323.07 C 644.56 328.09 642.04 333.61 636.86 335.68 C 631.78 337.78 626.25 335.64 621.70 333.23 C 613.67 328.62 606.99 322.02 600.88 315.14 C 574.82 286.63 543.89 262.71 510.33 243.66 C 465.47 218.40 414.62 202.84 362.94 202.23 C 327.65 201.51 292.37 207.60 259.06 219.13 C 222.83 231.47 188.99 250.09 157.66 271.94 C 127.43 293.13 99.82 317.81 73.66 343.79 C 88.90 322.98 106.87 304.29 125.71 286.71 C 170.28 245.75 223.02 212.61 281.43 195.64 Z" />
<path fill="#000000" opacity="1.00" d=" M 253.87 235.16 C 288.71 222.37 325.77 214.77 362.99 215.70 C 410.79 216.49 457.72 231.83 498.22 256.90 C 531.83 277.48 561.32 304.22 587.46 333.57 C 596.46 345.49 604.58 358.83 607.01 373.79 C 608.41 381.47 606.37 390.06 600.35 395.33 C 594.51 400.33 586.87 404.61 578.92 402.96 C 571.07 401.41 565.57 395.14 560.40 389.54 C 558.27 387.17 554.79 384.62 551.59 386.52 C 546.01 389.68 544.74 396.93 539.35 400.33 C 526.34 410.09 512.09 418.11 497.53 425.31 C 456.80 445.37 412.31 457.95 367.04 461.71 C 320.06 465.65 272.28 459.34 227.90 443.44 C 186.96 428.97 149.08 406.69 115.00 379.93 C 109.99 375.93 104.79 372.13 100.32 367.51 C 139.50 395.42 182.46 418.18 227.96 433.88 C 275.32 450.14 326.13 458.23 376.11 452.41 C 413.70 448.17 450.33 435.79 482.87 416.52 C 500.86 405.84 517.69 393.26 533.19 379.22 C 540.63 373.34 544.88 364.16 546.33 354.94 C 548.13 342.52 542.75 330.06 534.32 321.13 C 508.00 287.99 473.44 260.89 433.69 245.88 C 449.55 266.54 457.51 293.06 455.55 319.05 C 453.39 352.50 434.30 384.18 405.95 401.99 C 387.05 414.05 364.34 419.96 341.97 418.66 C 321.67 417.61 301.72 410.62 285.22 398.77 C 265.33 384.67 250.57 363.57 244.09 340.08 C 235.19 308.53 241.68 273.11 261.54 246.98 C 199.40 267.57 143.48 303.20 92.07 343.13 C 108.93 324.92 128.13 308.96 147.92 294.03 C 180.39 269.81 215.88 249.37 253.87 235.16 M 337.52 273.74 C 320.13 277.87 306.83 295.02 307.75 312.97 C 307.99 326.36 315.57 339.26 327.16 345.96 C 335.48 350.87 345.63 352.65 355.09 350.62 C 367.27 348.17 378.12 339.67 383.20 328.29 C 390.89 312.21 385.55 291.40 371.33 280.75 C 361.94 273.37 349.08 270.77 337.52 273.74 M 254.31 302.98 C 252.57 319.89 256.02 337.25 263.52 352.48 C 276.21 346.27 288.94 340.14 301.67 334.02 C 297.62 325.59 295.75 316.14 296.54 306.81 C 282.46 305.62 268.40 304.08 254.31 302.98 Z" />
</g>
</svg>
