<?xml version="1.0" encoding="UTF-8" ?>
<!DOCTYPE svg PUBLIC "-//W3C//DTD SVG 1.1//EN" "http://www.w3.org/Graphics/SVG/1.1/DTD/svg11.dtd">
<svg width="1200pt" height="1200pt" viewBox="0 0 1200 1200" version="1.1" xmlns="http://www.w3.org/2000/svg">
<g id="#ffffffff">
<path fill="#ffffff" opacity="1.00" d=" M 564.09 129.11 C 606.88 126.77 650.04 131.51 691.16 143.66 C 729.73 155.19 766.55 172.97 799.04 196.81 C 857.64 239.06 902.40 301.06 921.11 371.08 C 937.39 431.29 934.24 496.56 912.09 554.87 C 894.53 601.64 865.17 643.66 828.38 677.33 C 785.28 716.64 732.10 744.63 675.49 758.56 C 608.56 775.23 537.01 772.72 471.41 751.42 C 429.00 737.55 389.16 715.80 354.87 687.21 C 326.14 663.07 301.16 634.26 282.31 601.75 C 262.05 567.43 248.67 529.02 243.30 489.53 C 237.22 444.10 241.35 397.23 256.11 353.79 C 277.97 287.83 323.23 230.60 380.39 191.48 C 434.29 154.19 498.78 132.99 564.09 129.11 M 560.55 163.83 C 525.87 166.19 491.65 174.35 459.46 187.44 C 408.28 208.40 362.34 242.79 329.28 287.26 C 297.05 330.02 277.60 382.43 275.12 435.97 C 274.68 453.74 274.86 471.61 277.87 489.17 C 286.87 549.64 317.88 605.99 362.21 647.79 C 419.91 703.03 499.37 733.94 579.00 734.99 C 616.14 735.89 653.47 730.66 688.83 719.15 C 747.47 700.44 800.86 664.49 838.78 615.84 C 875.08 569.78 896.64 511.79 896.99 452.99 C 897.95 411.19 888.31 369.29 869.92 331.79 C 853.58 298.28 830.33 268.23 802.47 243.49 C 745.96 192.87 670.65 164.57 595.01 163.02 C 583.52 163.04 571.99 162.65 560.55 163.83 Z" />
<path fill="#ffffff" opacity="1.00" d=" M 507.76 326.08 C 541.87 314.45 577.97 308.47 614.03 309.17 C 660.89 309.88 707.22 321.72 749.80 341.00 C 794.51 361.08 835.41 388.81 872.92 420.20 C 875.62 422.55 878.65 424.61 880.77 427.56 C 886.09 434.19 888.35 443.62 885.07 451.67 C 883.38 456.38 880.13 461.00 875.01 462.24 C 868.59 463.18 862.52 459.92 857.43 456.37 C 848.27 450.04 841.36 441.22 833.68 433.30 C 806.77 405.81 775.44 382.68 741.44 364.69 C 704.14 345.14 663.09 332.14 620.99 329.00 C 580.12 325.66 538.69 331.35 499.95 344.68 C 460.71 357.99 424.19 378.49 390.71 402.76 C 363.20 422.80 337.76 445.56 313.76 469.66 C 336.10 440.07 362.74 413.85 391.64 390.68 C 426.50 363.07 465.52 340.32 507.76 326.08 Z" />
<path fill="#ffffff" opacity="1.00" d=" M 528.77 350.52 C 571.62 339.50 617.27 338.50 660.21 349.60 C 700.56 359.77 737.91 379.95 770.51 405.58 C 787.54 418.99 803.41 433.84 818.25 449.64 C 822.95 454.73 827.90 459.66 831.68 465.51 C 839.02 476.54 845.71 488.63 847.17 502.01 C 848.04 509.48 845.24 517.48 839.20 522.15 C 833.52 526.67 826.25 530.54 818.77 528.81 C 811.03 527.17 805.58 521.02 800.48 515.44 C 798.30 512.95 794.66 510.52 791.38 512.51 C 785.85 515.72 784.59 522.94 779.19 526.31 C 763.47 538.01 746.11 547.29 728.40 555.58 C 693.85 571.30 656.93 581.96 619.21 586.37 C 575.44 591.63 530.64 588.08 488.27 575.87 C 447.51 564.19 409.15 544.80 374.61 520.32 C 361.96 511.28 349.41 502.00 337.90 491.53 C 367.76 513.94 400.62 532.19 434.79 547.14 C 476.54 565.24 521.18 577.42 566.73 579.98 C 602.36 581.81 638.47 577.58 672.27 565.92 C 709.83 553.30 744.05 531.83 773.31 505.27 C 780.22 499.88 784.28 491.57 786.09 483.15 C 788.33 472.22 785.00 460.72 778.42 451.88 C 768.76 439.89 758.70 428.15 747.27 417.79 C 725.82 397.94 700.72 381.99 673.39 371.56 C 684.64 386.56 692.31 404.31 694.74 422.94 C 699.67 457.04 686.57 493.02 661.09 516.16 C 647.57 528.72 630.71 537.60 612.76 541.87 C 591.45 546.82 568.61 545.34 548.28 537.17 C 518.85 525.77 495.22 500.63 485.61 470.58 C 479.17 450.76 478.53 429.04 484.09 408.94 C 487.61 395.87 493.82 383.61 501.82 372.73 C 463.05 385.52 426.54 404.40 392.14 426.26 C 371.17 439.82 350.67 454.15 331.29 469.92 C 357.92 441.96 388.60 418.02 421.18 397.39 C 454.55 376.76 490.57 359.92 528.77 350.52 M 581.63 398.83 C 568.30 400.60 556.33 409.70 550.93 421.99 C 547.18 430.07 546.77 439.42 548.90 448.00 C 551.67 458.87 559.37 468.38 569.46 473.31 C 578.19 477.83 588.68 478.72 598.11 476.00 C 609.53 472.77 619.33 464.16 623.85 453.16 C 630.75 437.20 625.37 417.12 611.47 406.70 C 603.15 400.13 592.10 397.35 581.63 398.83 M 494.24 428.80 C 492.47 445.80 495.76 463.39 503.54 478.61 C 516.26 472.32 529.11 466.27 541.86 460.03 C 537.73 451.59 535.86 442.08 536.65 432.71 C 522.51 431.48 508.38 430.07 494.24 428.80 Z" />
<path fill="#ffffff" opacity="1.00" d=" M 239.60 846.24 C 254.77 846.25 269.94 846.25 285.10 846.25 C 315.21 921.48 345.19 996.77 375.31 1072.00 C 360.13 1072.00 344.94 1071.99 329.76 1072.00 C 299.72 996.75 269.64 921.50 239.60 846.24 Z" />
<path fill="#ffffff" opacity="1.00" d=" M 419.89 846.25 C 486.59 846.24 553.29 846.25 619.98 846.24 C 639.33 846.12 659.06 848.93 676.61 857.42 C 697.72 867.36 715.10 884.93 724.90 906.08 C 732.54 922.56 735.78 940.89 735.49 958.99 C 749.98 959.01 764.47 958.99 778.97 959.00 C 779.05 977.58 785.61 996.75 799.66 1009.40 C 815.80 1023.98 838.92 1029.06 860.09 1025.56 C 873.91 1023.49 887.08 1016.83 896.45 1006.38 C 903.48 998.63 909.01 989.34 911.57 979.14 C 914.78 967.69 913.88 955.71 914.00 943.97 C 914.00 911.40 913.99 878.82 914.00 846.24 C 929.17 846.25 944.33 846.25 959.49 846.24 C 959.51 876.16 959.49 906.07 959.50 935.99 C 959.46 956.09 960.39 976.63 954.58 996.13 C 949.23 1015.33 938.18 1032.91 923.05 1045.90 C 907.93 1059.22 888.69 1067.46 868.82 1070.36 C 846.96 1073.53 824.15 1072.41 803.19 1065.10 C 783.89 1058.36 766.92 1045.52 754.76 1029.14 C 743.26 1013.88 736.92 995.26 734.60 976.42 C 732.58 996.12 725.49 1015.49 713.24 1031.15 C 701.67 1046.12 685.91 1057.86 668.15 1064.42 C 655.68 1069.15 642.38 1071.32 629.10 1071.90 C 589.41 1072.14 549.70 1071.93 510.00 1072.00 C 510.03 1026.82 509.94 981.64 510.05 936.47 C 525.11 936.54 540.18 936.47 555.25 936.50 C 555.25 966.50 555.25 996.50 555.25 1026.49 C 572.49 1026.50 589.74 1026.49 606.98 1026.50 C 619.87 1026.33 633.11 1027.56 645.57 1023.43 C 668.15 1016.90 685.35 996.20 689.09 973.20 C 691.58 957.66 690.30 941.10 683.35 926.82 C 672.70 905.24 648.81 891.90 625.04 891.75 C 571.61 891.76 518.18 891.75 464.75 891.75 C 464.79 876.92 464.65 862.09 464.83 847.26 C 452.78 878.58 439.98 909.63 427.62 940.84 C 417.59 965.88 407.60 990.94 397.55 1015.97 C 390.03 997.00 382.44 978.06 374.82 959.14 C 389.83 921.50 404.85 883.87 419.89 846.25 Z" />
</g>
</svg>
