<?xml version="1.0" encoding="UTF-8" ?>
<!DOCTYPE svg PUBLIC "-//W3C//DTD SVG 1.1//EN" "http://www.w3.org/Graphics/SVG/1.1/DTD/svg11.dtd">
<svg width="1200pt" height="1200pt" viewBox="0 0 1200 1200" version="1.1" xmlns="http://www.w3.org/2000/svg">
<g id="#ffffffff">
<path fill="#ffffff" opacity="1.00" d=" M 577.14 123.19 C 612.90 121.21 648.96 123.87 683.85 132.11 C 729.10 142.49 772.42 161.72 810.19 188.76 C 868.62 230.01 913.79 290.68 933.57 359.67 C 951.76 421.90 948.83 490.02 925.48 550.50 C 907.85 596.61 878.76 638.04 842.40 671.32 C 801.43 708.68 751.35 735.82 697.88 750.39 C 628.56 769.37 553.77 767.63 485.41 745.43 C 447.31 732.90 411.19 714.18 379.43 689.62 C 346.48 664.28 318.09 632.80 297.00 596.93 C 276.25 562.11 262.57 523.05 257.21 482.86 C 251.60 440.06 254.96 395.99 267.87 354.75 C 287.88 289.12 330.97 231.40 386.33 191.23 C 441.53 150.59 508.87 127.37 577.14 123.19 M 574.57 157.82 C 500.56 162.96 428.09 193.84 374.70 245.65 C 331.16 287.30 300.75 343.10 291.86 402.89 C 288.75 421.11 288.66 439.65 289.19 458.07 C 291.32 494.64 301.01 530.76 317.64 563.43 C 335.98 599.90 362.59 632.01 394.25 657.70 C 452.26 704.92 527.33 729.99 601.97 729.06 C 662.09 729.07 722.26 712.35 773.40 680.63 C 824.92 648.92 867.28 601.59 890.56 545.54 C 916.76 483.61 917.96 411.65 893.92 348.87 C 879.76 311.43 857.19 277.29 828.81 249.12 C 771.22 191.37 690.35 158.65 609.08 157.03 C 597.58 157.04 586.04 156.65 574.57 157.82 Z" />
<path fill="#ffffff" opacity="1.00" d=" M 469.21 230.27 C 475.75 230.19 482.31 230.08 488.86 230.38 L 488.45 231.22 C 491.50 231.44 494.54 231.79 497.61 231.73 L 497.63 232.69 C 498.08 232.56 498.98 232.30 499.44 232.17 L 499.34 233.51 C 500.77 233.56 502.20 233.61 503.64 233.66 C 503.61 234.05 503.54 234.84 503.50 235.24 C 505.18 235.42 506.87 235.61 508.57 235.78 C 508.52 236.09 508.43 236.72 508.39 237.03 C 509.67 237.47 511.18 237.70 511.90 239.02 C 513.08 239.39 514.34 239.69 514.95 240.91 C 516.09 241.53 517.25 242.12 518.43 242.69 L 518.53 243.54 L 519.67 243.31 C 519.69 244.17 519.72 245.88 519.74 246.74 L 518.81 246.53 C 518.60 248.14 518.34 249.75 517.61 251.23 C 517.62 251.52 517.63 252.11 517.64 252.40 C 517.44 252.41 517.04 252.42 516.83 252.43 C 516.53 253.33 515.92 255.12 515.62 256.02 L 515.77 256.56 C 515.54 256.56 515.08 256.56 514.85 256.55 C 514.61 257.77 514.19 258.91 513.59 259.99 L 513.68 260.60 L 513.03 260.53 C 512.12 262.76 510.96 264.88 509.63 266.89 C 509.22 267.82 508.82 268.76 508.42 269.70 L 507.85 269.44 C 507.43 270.77 507.09 272.23 505.82 273.02 C 505.67 273.49 505.36 274.44 505.21 274.91 C 504.40 275.87 503.67 276.89 502.98 277.94 C 502.79 278.34 502.40 279.14 502.21 279.54 L 501.44 279.60 C 501.45 279.90 501.48 280.51 501.49 280.81 C 500.56 281.87 499.75 283.02 499.10 284.26 L 498.75 284.48 C 498.03 285.68 497.23 286.83 496.43 287.97 C 496.36 288.19 496.21 288.61 496.14 288.83 C 494.02 291.04 492.61 293.82 490.41 295.97 C 490.46 296.32 490.57 297.01 490.62 297.36 L 489.68 297.29 C 488.55 299.02 487.31 300.69 486.12 302.38 L 485.25 302.38 L 485.71 303.52 L 484.56 303.55 L 484.69 304.67 C 484.36 304.68 483.70 304.70 483.37 304.71 L 483.59 306.05 C 483.12 306.50 482.20 307.38 481.73 307.82 C 480.86 309.01 479.97 310.19 479.11 311.39 L 478.30 311.38 L 478.62 312.54 L 477.93 312.64 C 476.86 314.02 475.82 315.42 474.63 316.69 C 473.98 317.43 473.33 318.18 472.69 318.93 C 471.78 320.04 470.90 321.16 469.98 322.26 L 469.28 322.36 L 469.52 323.57 L 468.56 323.28 L 468.45 324.37 L 467.53 324.82 L 467.63 325.62 L 466.97 325.69 C 466.03 326.80 465.13 327.93 464.19 329.03 C 463.16 330.06 462.16 331.11 461.19 332.19 C 460.20 333.15 459.23 334.13 458.26 335.11 C 457.98 335.40 457.43 336.00 457.15 336.29 C 456.78 336.61 456.03 337.26 455.65 337.58 C 453.81 339.51 451.85 341.31 449.77 342.97 C 449.13 345.41 446.21 344.27 444.40 344.60 L 444.48 343.48 L 443.30 343.56 L 443.42 342.33 C 443.04 342.41 442.29 342.56 441.91 342.63 C 441.48 342.08 440.63 340.96 440.20 340.41 C 439.94 340.39 439.43 340.37 439.17 340.36 C 438.12 339.19 437.07 338.03 436.00 336.91 C 435.32 336.28 434.66 335.64 434.01 335.00 C 433.10 333.98 432.18 332.97 431.28 331.96 C 430.62 331.09 429.97 330.22 429.32 329.34 L 428.45 329.22 C 428.50 328.81 428.62 327.98 428.68 327.57 L 427.53 327.47 L 427.66 326.30 L 426.89 326.27 C 426.46 324.62 425.50 323.29 424.47 321.99 L 424.68 320.95 C 424.10 320.31 423.53 319.67 422.97 319.04 C 422.73 317.82 422.51 316.61 422.29 315.40 L 421.56 315.64 C 421.36 315.03 420.96 313.82 420.76 313.21 C 420.63 311.95 420.50 310.69 420.38 309.44 L 419.66 309.78 C 419.41 308.52 419.14 307.28 418.86 306.04 C 418.67 304.40 418.52 302.75 418.42 301.11 L 417.53 301.86 C 417.04 295.25 416.98 288.61 417.69 282.02 L 418.99 283.03 C 418.73 281.69 418.63 280.34 418.72 278.99 C 419.04 277.73 419.33 276.47 419.60 275.20 L 420.24 275.56 C 420.50 273.49 420.92 271.45 421.44 269.43 L 422.24 269.62 C 422.51 268.40 422.79 267.17 423.06 265.95 C 423.64 265.31 424.22 264.67 424.80 264.04 L 424.27 262.67 L 425.50 262.53 L 425.44 261.40 L 426.51 261.32 C 426.48 260.99 426.42 260.33 426.38 260.00 C 427.94 257.95 429.37 255.80 430.82 253.67 L 431.68 253.67 L 431.55 252.83 C 431.90 252.39 432.61 251.51 432.96 251.07 C 434.31 249.70 435.61 248.29 437.05 247.01 C 437.84 246.35 438.50 245.57 439.03 244.67 C 439.28 244.65 439.80 244.63 440.06 244.61 C 441.87 242.78 444.12 241.44 445.91 239.59 C 446.42 239.48 447.44 239.26 447.95 239.16 C 448.56 237.65 450.13 237.47 451.52 237.11 L 451.25 236.19 L 452.43 236.59 L 452.47 235.67 C 453.83 235.53 455.19 235.39 456.56 235.25 C 456.51 234.88 456.42 234.13 456.37 233.75 C 458.10 233.64 459.84 233.50 461.58 233.36 L 461.31 232.33 C 464.00 231.74 466.73 231.37 469.48 231.22 L 469.21 230.27 Z" />
<path fill="#ffffff" opacity="1.00" d=" M 525.73 250.45 C 527.24 251.11 528.38 252.28 529.35 253.59 C 529.60 253.93 530.12 254.59 530.37 254.93 L 530.32 255.65 L 531.46 255.67 C 531.45 255.98 531.42 256.61 531.41 256.92 C 532.33 257.98 533.09 259.18 533.68 260.47 L 534.26 260.74 C 534.68 261.98 535.18 263.19 535.64 264.42 L 536.28 264.66 C 536.78 265.76 537.19 266.94 537.74 268.03 C 538.70 269.68 538.75 271.58 538.93 273.44 C 539.29 273.40 539.99 273.32 540.34 273.28 C 540.46 275.70 540.64 278.13 540.76 280.56 L 541.94 280.41 C 541.87 280.76 541.74 281.46 541.68 281.81 C 542.61 284.76 542.90 288.10 541.83 291.06 L 541.73 291.72 L 540.94 291.45 C 540.52 292.63 540.10 293.80 539.66 294.97 L 539.54 295.56 L 538.90 295.59 C 538.54 297.25 537.47 298.59 536.53 299.95 C 536.57 300.30 536.65 301.00 536.69 301.35 L 535.64 301.36 C 535.21 302.43 534.79 303.51 534.37 304.59 L 533.81 304.61 C 533.31 306.00 532.54 307.19 531.50 308.22 C 531.51 308.43 531.54 308.86 531.55 309.07 C 531.24 309.47 530.62 310.28 530.31 310.68 L 529.88 310.65 C 529.44 311.97 528.59 313.05 527.71 314.10 C 527.72 314.44 527.74 315.11 527.75 315.45 L 526.71 315.45 C 526.25 316.42 525.79 317.38 525.33 318.35 L 524.63 318.46 C 524.19 319.31 523.75 320.17 523.33 321.03 C 521.87 323.14 520.19 325.08 518.47 326.97 C 518.44 327.21 518.37 327.69 518.33 327.93 C 516.68 329.51 515.39 331.40 514.15 333.30 L 513.37 333.35 L 513.40 334.14 C 512.30 335.41 511.35 336.80 510.36 338.15 C 507.49 341.75 503.98 344.77 501.11 348.37 L 500.31 348.36 L 500.60 349.52 L 499.45 349.47 L 499.48 350.14 C 499.16 350.49 498.52 351.20 498.20 351.56 L 497.99 351.67 C 497.63 351.97 496.90 352.59 496.53 352.90 L 496.59 353.45 C 495.16 353.50 493.75 353.54 492.33 353.59 L 492.60 354.40 C 490.48 354.46 488.37 354.55 486.27 354.60 L 486.74 355.38 C 482.25 355.55 477.76 355.68 473.27 355.45 L 473.70 354.51 C 472.84 354.51 471.12 354.51 470.26 354.50 L 470.65 353.67 C 468.18 353.62 465.71 353.48 463.26 353.40 C 463.31 353.01 463.41 352.24 463.46 351.85 C 461.43 351.75 459.39 351.64 457.37 351.55 C 457.37 350.76 457.38 349.18 457.38 348.40 L 458.56 348.62 L 458.46 347.45 L 459.15 347.53 C 459.51 347.19 460.22 346.50 460.57 346.16 L 460.35 345.40 L 461.57 345.52 L 461.39 344.77 C 461.75 344.45 462.48 343.79 462.84 343.46 L 463.59 343.56 L 463.40 342.81 C 463.76 342.48 464.47 341.82 464.83 341.49 L 465.52 341.51 L 465.38 340.32 L 466.60 340.49 C 466.61 340.13 466.64 339.42 466.65 339.06 C 467.70 338.23 468.62 337.25 469.66 336.41 L 469.64 335.95 C 470.45 334.98 471.32 334.05 472.24 333.17 C 474.62 330.38 477.20 327.83 479.61 325.10 C 479.62 324.85 479.65 324.35 479.66 324.10 C 480.83 323.15 481.86 322.06 482.79 320.88 C 483.59 319.91 484.43 318.98 485.29 318.06 C 486.17 316.92 487.07 315.78 487.93 314.63 L 488.78 314.66 L 488.36 313.49 L 489.06 313.36 C 489.99 312.27 490.83 311.11 491.70 309.98 C 492.64 308.94 493.65 307.97 494.56 306.90 C 494.54 306.59 494.51 305.96 494.49 305.65 L 495.63 305.58 L 495.51 304.44 L 496.21 304.46 C 497.03 303.24 497.86 302.02 498.67 300.80 C 499.03 300.37 499.75 299.53 500.11 299.11 C 501.21 297.50 502.31 295.90 503.46 294.33 C 503.92 293.47 504.38 292.62 504.83 291.76 L 505.34 291.55 C 506.37 289.79 507.50 288.08 508.61 286.37 C 508.72 286.35 508.94 286.32 509.06 286.31 C 509.76 284.70 510.77 283.27 511.73 281.82 C 512.46 280.56 513.18 279.28 513.98 278.04 C 514.71 277.08 515.21 275.98 515.69 274.87 C 516.17 273.93 516.65 272.98 517.12 272.03 C 517.74 270.99 518.40 269.97 519.08 268.97 C 519.24 268.38 519.57 267.19 519.73 266.60 L 520.51 266.66 C 520.55 265.87 520.62 264.29 520.65 263.51 L 521.79 263.63 L 521.32 262.43 L 522.20 262.64 C 522.44 261.29 522.70 259.92 523.40 258.73 L 523.23 257.63 L 524.34 257.51 C 524.39 256.11 524.45 254.71 524.51 253.32 L 525.41 253.56 C 525.49 252.78 525.65 251.23 525.73 250.45 Z" />
<path fill="#ffffff" opacity="1.00" d=" M 598.24 291.41 C 599.29 289.31 601.98 290.63 603.79 290.36 L 603.55 291.05 C 605.11 291.36 607.11 291.14 607.98 292.86 C 608.33 292.74 609.02 292.50 609.37 292.38 L 609.37 293.56 L 610.56 293.56 L 610.51 294.85 C 610.87 294.78 611.59 294.66 611.95 294.59 C 612.36 294.92 613.17 295.56 613.58 295.89 L 613.54 296.85 C 613.93 296.74 614.71 296.54 615.10 296.44 C 615.55 296.99 616.44 298.11 616.89 298.67 C 617.27 298.56 618.02 298.35 618.39 298.25 L 618.45 299.48 L 619.59 299.50 L 619.61 300.66 C 619.98 300.56 620.73 300.38 621.10 300.28 C 621.55 300.83 622.44 301.93 622.88 302.48 C 623.16 302.44 623.71 302.37 623.99 302.33 C 625.07 303.32 626.32 304.09 627.66 304.71 L 627.69 305.27 C 628.68 305.65 629.67 306.05 630.67 306.46 L 630.73 307.01 C 634.18 309.08 634.44 313.59 633.05 317.01 C 632.38 318.12 631.76 319.27 631.08 320.37 L 630.41 320.50 L 630.67 321.66 L 629.73 321.59 C 629.30 322.61 628.88 323.62 628.45 324.64 L 627.87 324.49 C 627.18 326.77 625.60 328.61 624.31 330.56 L 623.99 330.70 C 623.04 332.54 621.95 334.31 620.74 336.00 C 619.56 337.84 618.42 339.70 617.31 341.58 L 616.83 341.66 C 616.38 343.05 615.60 344.28 614.48 345.22 L 614.65 346.05 C 614.31 346.45 613.64 347.25 613.30 347.65 L 612.97 347.68 C 612.10 349.29 611.13 350.86 610.11 352.39 L 609.29 352.32 L 609.58 353.47 C 608.79 353.55 607.21 353.72 606.42 353.80 C 606.48 354.19 606.61 354.96 606.67 355.35 C 604.61 355.36 602.57 355.39 600.53 355.39 C 600.53 354.99 600.53 354.20 600.53 353.80 C 598.92 353.42 596.65 353.94 596.02 351.98 C 594.59 351.71 593.22 351.30 591.89 350.78 C 590.21 349.95 588.18 349.57 587.00 348.02 C 585.80 347.82 584.61 347.64 583.43 347.47 L 583.67 346.74 C 582.42 346.39 581.19 346.05 579.95 345.72 L 579.22 345.79 L 579.55 344.70 C 578.33 344.52 577.12 344.34 575.93 344.16 C 575.19 342.62 573.45 342.49 572.03 342.01 C 571.20 341.17 570.18 340.57 569.14 340.04 C 568.07 339.39 567.03 338.70 566.01 337.98 C 565.62 337.52 564.84 336.58 564.44 336.11 C 564.21 333.69 565.66 331.79 566.98 329.94 C 567.66 329.29 568.36 328.65 569.06 328.02 C 569.80 326.55 571.16 325.53 571.86 324.03 C 572.68 322.73 573.62 321.52 574.44 320.22 L 574.44 319.70 C 575.11 318.86 575.80 318.04 576.51 317.24 L 576.28 316.32 L 577.07 316.38 C 577.94 314.48 579.03 312.70 580.19 310.97 C 580.99 309.56 582.11 308.36 582.87 306.92 C 583.39 305.86 584.13 304.92 584.83 303.97 C 585.61 302.60 586.46 301.28 587.43 300.03 C 587.41 299.69 587.37 299.03 587.35 298.70 L 588.40 298.66 C 588.84 297.64 589.29 296.61 589.74 295.59 L 590.66 295.64 L 590.42 294.78 C 590.76 294.46 591.44 293.83 591.78 293.51 C 593.42 291.90 595.44 290.95 597.77 291.62 L 598.24 291.41 Z" />
<path fill="#ffffff" opacity="1.00" d=" M 547.22 295.96 C 548.54 292.42 551.54 295.51 553.36 296.85 L 553.49 297.56 L 554.61 297.45 L 554.51 298.58 C 554.86 298.58 555.55 298.59 555.90 298.59 C 556.95 300.27 558.58 301.44 560.08 302.70 C 561.83 304.13 563.58 305.58 565.43 306.91 L 565.47 307.70 C 565.84 307.66 566.58 307.59 566.95 307.56 C 567.86 309.16 569.42 310.16 570.86 311.23 C 571.81 312.11 572.79 312.97 573.81 313.80 C 572.92 314.87 572.10 315.98 571.35 317.14 C 570.38 318.96 569.32 320.72 568.20 322.46 L 567.25 322.36 L 567.65 323.27 L 566.64 323.60 L 566.45 324.67 L 565.55 324.51 L 565.59 325.68 L 564.88 325.63 C 563.82 327.09 562.80 328.59 561.69 330.01 C 560.39 332.38 560.36 335.10 560.48 337.73 C 557.07 336.39 553.42 336.36 549.83 336.75 C 548.60 337.27 547.36 337.78 546.14 338.30 C 544.98 339.06 543.86 339.86 542.71 340.61 C 541.27 341.88 539.91 343.24 538.58 344.62 C 538.30 344.90 537.75 345.46 537.47 345.75 L 537.47 346.23 C 535.81 348.06 534.17 349.92 532.51 351.75 L 532.60 352.63 L 531.31 352.68 L 531.53 353.99 C 531.18 354.28 530.49 354.85 530.15 355.14 C 529.08 356.49 528.14 357.95 527.07 359.31 L 526.33 359.41 L 526.56 360.57 L 525.41 360.64 C 525.48 361.06 525.63 361.92 525.71 362.34 L 524.70 362.31 C 523.47 364.14 522.18 365.93 521.04 367.83 C 519.66 367.33 518.35 366.73 517.09 366.01 C 515.84 364.94 514.40 364.11 513.06 363.17 C 512.02 362.56 511.04 361.88 510.03 361.26 C 508.31 360.22 506.55 359.24 504.85 358.18 C 504.33 357.63 503.28 356.54 502.76 355.99 C 504.62 355.77 505.74 354.19 507.08 353.09 C 509.42 350.10 511.77 347.11 514.42 344.40 C 514.75 343.90 515.39 342.92 515.72 342.42 L 516.19 342.33 C 518.29 339.31 520.70 336.51 522.88 333.54 L 523.60 333.56 L 523.36 332.45 C 523.69 332.41 524.35 332.34 524.68 332.30 L 524.20 330.66 L 525.25 330.64 C 526.48 328.58 528.07 326.77 529.69 325.01 C 529.62 324.74 529.49 324.19 529.43 323.92 C 529.91 323.51 530.86 322.71 531.34 322.30 C 532.39 320.44 533.75 318.78 534.88 316.98 C 535.75 315.68 536.64 314.39 537.50 313.08 C 537.48 312.73 537.44 312.04 537.43 311.69 L 538.51 311.72 C 538.93 310.71 539.35 309.69 539.77 308.68 L 540.24 308.65 C 540.93 307.33 541.74 306.09 542.60 304.88 C 542.53 304.57 542.40 303.94 542.33 303.63 L 543.44 303.45 L 543.32 302.35 L 544.27 302.43 C 544.42 301.81 544.72 300.58 544.88 299.96 C 546.34 299.12 546.57 297.36 547.22 295.96 Z" />
<path fill="#ffffff" opacity="1.00" d=" M 642.41 313.46 C 645.47 313.34 648.55 313.32 651.62 313.44 L 651.70 314.32 C 652.93 314.73 654.13 315.17 655.37 315.59 L 655.55 316.43 C 656.56 316.82 657.59 317.21 658.62 317.61 C 658.65 317.93 658.71 318.55 658.74 318.86 L 660.28 318.28 L 660.58 319.48 L 661.78 319.26 L 661.46 320.28 C 662.08 320.44 663.33 320.75 663.95 320.90 C 665.52 322.31 667.41 323.26 669.07 324.57 C 669.41 324.47 670.10 324.29 670.45 324.19 L 670.39 325.49 L 671.56 325.46 L 671.63 326.51 C 671.96 326.47 672.64 326.39 672.98 326.35 C 674.18 327.29 675.47 328.14 676.83 328.87 C 678.70 330.05 680.47 331.39 682.17 332.82 C 682.56 333.93 683.05 335.01 683.63 336.06 C 683.59 336.39 683.52 337.05 683.48 337.37 L 684.54 337.24 C 684.55 338.36 684.58 340.61 684.59 341.73 L 684.02 341.74 C 683.55 342.85 683.14 343.97 682.77 345.12 C 682.73 345.36 682.65 345.84 682.60 346.09 C 681.53 347.73 680.47 349.39 679.34 350.99 C 679.37 351.32 679.42 351.99 679.45 352.32 L 678.46 352.48 L 678.59 353.56 L 677.75 353.51 C 677.40 354.77 676.96 356.01 676.02 356.97 C 675.39 358.01 674.73 359.03 674.15 360.11 C 673.30 361.45 672.43 362.79 671.47 364.06 C 671.51 364.40 671.59 365.09 671.63 365.43 L 670.74 365.32 C 670.54 365.75 670.16 366.61 669.96 367.04 C 668.27 369.77 666.55 372.50 665.10 375.37 L 664.73 375.37 C 663.19 378.16 660.74 380.26 658.72 382.68 C 658.41 382.96 657.80 383.51 657.50 383.79 L 657.51 384.23 C 656.15 385.71 654.87 387.27 653.66 388.87 C 652.86 390.06 652.02 391.23 651.19 392.40 L 650.43 392.50 L 650.71 393.66 L 649.99 393.65 C 649.13 394.85 648.19 395.98 647.21 397.07 C 646.97 397.37 646.48 397.98 646.24 398.28 C 644.79 400.06 640.91 400.86 641.18 397.56 L 640.43 397.69 C 640.47 395.59 640.52 393.49 640.55 391.39 L 641.34 391.50 C 641.35 390.67 641.39 389.00 641.41 388.17 L 642.23 388.56 C 642.35 386.67 642.52 384.79 642.74 382.92 C 644.02 380.27 643.70 377.24 643.64 374.39 L 642.86 374.49 C 642.72 373.06 641.96 372.27 640.59 372.11 L 640.41 371.40 L 639.21 371.71 L 639.67 370.64 C 639.00 370.52 637.66 370.27 636.99 370.14 C 636.20 368.36 634.17 368.44 632.57 368.10 L 632.56 367.22 L 631.37 367.68 L 631.64 366.84 C 630.31 366.57 629.02 366.17 627.77 365.66 C 627.47 365.67 626.87 365.69 626.57 365.70 L 626.56 364.81 C 624.95 364.45 622.78 364.75 622.13 362.84 C 621.09 362.65 620.05 362.45 619.02 362.26 C 618.34 360.92 616.78 360.74 615.53 360.31 C 614.96 358.79 614.62 357.20 614.44 355.60 L 615.52 355.40 L 615.25 354.27 L 616.30 354.48 C 616.40 353.73 616.59 352.22 616.69 351.47 L 617.71 351.59 L 617.46 350.46 L 618.61 350.40 C 618.58 350.06 618.52 349.37 618.49 349.03 C 618.93 348.59 619.80 347.72 620.23 347.28 C 621.22 345.51 622.24 343.75 623.30 342.01 C 624.19 340.30 625.22 338.67 626.39 337.13 L 626.21 336.24 L 626.99 336.41 C 627.98 334.47 629.07 332.57 629.89 330.54 L 630.60 330.58 L 630.53 329.46 L 631.69 329.33 C 631.59 328.90 631.39 328.05 631.29 327.62 L 632.53 327.57 L 632.40 326.41 L 633.04 326.33 C 633.95 324.48 634.93 322.66 635.84 320.80 L 636.34 320.65 C 637.41 318.88 638.56 317.16 639.70 315.43 L 640.53 315.49 L 640.63 314.31 C 641.09 314.45 642.01 314.74 642.47 314.89 L 642.41 313.46 Z" />
<path fill="#ffffff" opacity="1.00" d=" M 549.51 341.26 C 549.87 341.28 550.59 341.33 550.95 341.36 C 552.91 340.35 555.11 340.73 557.09 341.46 C 557.43 341.41 558.10 341.30 558.43 341.24 L 558.33 342.52 C 559.57 342.58 560.82 342.64 562.08 342.71 C 562.15 344.72 564.06 344.60 565.57 344.85 L 565.30 345.79 C 566.97 345.72 568.65 345.66 570.33 345.59 L 570.31 346.60 C 571.15 346.59 572.84 346.56 573.68 346.54 L 573.16 347.92 L 574.52 347.14 L 574.42 348.36 C 575.45 348.43 577.51 348.56 578.54 348.63 C 578.53 348.94 578.50 349.56 578.48 349.87 C 578.80 349.83 579.45 349.77 579.77 349.73 C 581.04 350.14 582.34 350.49 583.67 350.79 L 583.43 351.37 C 585.07 351.76 586.73 352.23 588.40 352.56 L 588.62 353.34 C 590.51 353.70 592.24 354.52 593.91 355.46 C 595.08 355.84 596.26 356.25 597.46 356.59 L 597.40 357.56 C 598.21 357.57 599.81 357.58 600.62 357.59 L 600.68 358.77 L 602.27 358.35 C 602.29 358.65 602.33 359.23 602.36 359.52 C 603.17 359.56 604.81 359.63 605.63 359.67 L 605.26 360.81 L 606.48 360.33 L 606.41 361.40 C 607.78 361.43 609.16 361.47 610.55 361.52 L 610.32 362.71 C 611.02 362.74 612.43 362.80 613.13 362.83 C 613.62 364.67 615.57 364.60 617.10 364.98 C 617.65 366.94 619.83 366.56 621.42 366.90 C 621.42 367.29 621.41 368.07 621.41 368.45 C 622.77 368.55 624.14 368.64 625.52 368.73 C 625.49 369.12 625.43 369.91 625.40 370.30 C 626.12 370.39 627.57 370.56 628.29 370.65 C 628.82 370.94 629.87 371.50 630.39 371.79 L 630.40 372.42 C 631.46 372.52 632.53 372.62 633.60 372.73 C 633.56 373.05 633.48 373.67 633.44 373.99 C 634.75 374.35 636.05 374.83 637.01 375.86 C 637.37 376.08 638.09 376.50 638.45 376.72 C 638.99 381.70 638.32 386.71 638.25 391.70 C 637.91 391.68 637.21 391.64 636.86 391.62 C 636.69 393.58 636.49 395.54 636.33 397.52 L 635.38 397.40 L 635.51 398.17 C 634.69 399.52 634.35 401.39 632.59 401.82 L 632.64 402.57 L 631.49 402.45 L 631.69 403.47 C 630.85 403.50 629.18 403.56 628.35 403.59 L 628.74 404.74 L 627.52 404.31 L 627.55 405.31 C 626.14 405.44 624.74 405.57 623.35 405.71 L 623.84 406.94 L 622.45 406.18 L 622.63 407.24 C 620.84 407.31 619.08 407.44 617.31 407.56 L 617.67 408.67 C 615.16 409.05 612.48 407.93 610.12 409.09 L 615.33 409.86 C 612.49 410.16 609.67 410.52 606.87 410.94 C 604.34 411.47 601.76 411.57 599.20 411.59 L 599.79 412.45 C 597.92 412.42 596.07 412.41 594.22 412.41 L 594.79 411.74 C 593.28 411.63 591.81 411.23 590.87 409.98 C 585.81 404.64 580.62 399.45 575.27 394.43 L 574.64 394.60 C 574.26 394.04 573.51 392.94 573.13 392.39 C 572.82 392.43 572.20 392.49 571.89 392.53 C 571.53 390.76 569.90 390.66 568.46 390.45 C 568.43 392.48 568.53 394.51 568.65 396.54 L 569.71 396.21 C 569.83 398.74 569.82 401.26 569.73 403.80 L 568.85 403.58 C 568.63 406.20 568.25 408.88 566.43 410.92 C 566.45 411.22 566.47 411.83 566.49 412.14 C 565.95 412.59 564.89 413.49 564.36 413.94 C 564.45 414.31 564.63 415.04 564.71 415.40 L 563.46 415.38 L 563.51 416.50 L 562.73 416.49 C 562.51 418.85 560.09 418.14 558.48 418.70 C 557.11 419.53 555.70 420.29 554.29 421.01 C 555.19 422.13 555.93 423.54 557.50 423.83 C 557.51 423.94 557.52 424.16 557.53 424.27 C 559.59 424.33 561.64 424.45 563.71 424.58 C 563.67 424.95 563.60 425.69 563.56 426.06 C 565.11 426.15 566.65 426.26 568.20 426.41 C 569.56 427.45 571.17 428.04 572.76 428.68 L 572.65 429.27 C 573.99 429.70 575.31 430.15 576.65 430.60 L 576.35 431.46 C 577.80 431.53 579.27 431.60 580.75 431.67 C 580.70 432.04 580.60 432.78 580.55 433.15 C 582.59 433.31 584.63 433.49 586.69 433.63 C 586.66 434.00 586.60 434.73 586.57 435.09 C 588.02 435.28 589.47 435.48 590.93 435.74 C 592.94 437.79 595.05 439.77 596.70 442.14 C 598.12 444.19 599.59 446.23 601.26 448.10 C 601.32 448.35 601.44 448.84 601.50 449.09 C 603.05 450.76 604.55 452.49 605.72 454.47 L 606.11 454.61 C 606.82 455.72 607.58 456.81 608.35 457.90 C 609.30 459.26 610.26 460.60 611.16 462.01 C 612.04 463.53 613.12 464.92 614.42 466.12 C 614.39 466.48 614.35 467.20 614.32 467.56 L 615.46 467.45 L 615.36 468.60 L 616.42 468.71 C 616.44 469.00 616.49 469.57 616.52 469.86 C 617.42 470.90 618.15 472.09 618.84 473.30 L 619.26 473.45 C 620.15 475.02 621.15 476.53 622.15 478.05 C 623.94 480.29 625.13 483.01 627.19 485.05 C 627.27 485.31 627.41 485.83 627.49 486.09 C 628.33 487.13 629.08 488.27 629.80 489.42 L 630.70 489.67 L 630.50 491.25 C 630.79 491.31 631.36 491.43 631.64 491.49 L 631.39 492.56 L 632.13 492.57 C 632.92 493.74 633.75 494.89 634.63 496.02 C 634.60 496.28 634.54 496.81 634.51 497.07 C 635.05 497.53 636.12 498.45 636.66 498.91 C 636.58 499.29 636.44 500.04 636.36 500.42 L 637.55 500.36 L 637.45 501.52 L 638.57 501.62 C 638.55 501.93 638.49 502.56 638.47 502.87 C 639.41 503.91 640.33 505.03 640.75 506.42 L 641.12 506.52 C 641.90 507.73 642.71 508.92 643.56 510.10 L 643.66 510.91 C 643.94 511.34 644.49 512.20 644.76 512.63 L 645.32 512.55 C 645.71 513.60 646.11 514.65 646.52 515.70 L 647.11 515.52 C 647.51 517.09 648.33 518.47 649.37 519.71 C 649.48 520.34 649.69 521.60 649.80 522.22 C 650.31 522.43 651.33 522.85 651.84 523.06 C 651.46 523.12 650.70 523.23 650.33 523.28 L 650.53 524.51 L 649.28 524.63 C 649.38 525.08 649.58 525.96 649.69 526.40 L 648.44 526.37 L 648.33 527.03 C 648.02 527.32 647.39 527.90 647.07 528.19 C 646.01 529.23 644.86 530.17 643.94 531.34 C 643.60 531.32 642.92 531.28 642.58 531.26 L 642.48 532.11 C 641.20 532.88 640.07 533.87 638.99 534.89 C 637.92 535.38 636.91 535.96 635.95 536.63 C 635.62 536.60 634.97 536.54 634.64 536.50 L 634.49 537.59 L 633.29 537.36 L 633.70 538.28 C 632.29 538.57 630.43 538.09 629.69 539.72 L 628.94 538.06 L 628.40 540.27 C 627.68 540.31 626.23 540.40 625.51 540.45 L 625.55 542.62 C 631.37 542.49 637.21 542.29 643.03 542.65 C 643.40 543.26 644.13 544.49 644.49 545.11 C 644.40 545.51 644.22 546.33 644.12 546.74 L 645.25 546.34 C 645.27 549.24 645.45 552.15 645.85 555.04 C 646.36 556.82 646.57 558.69 646.73 560.55 L 647.46 560.22 C 647.48 562.69 647.60 565.17 647.61 567.65 L 648.34 567.43 C 648.40 569.19 648.49 570.96 648.55 572.74 L 649.38 572.24 C 649.25 576.40 649.64 580.57 649.63 584.74 L 650.43 584.27 C 650.74 588.81 649.48 593.62 651.18 597.98 C 651.62 602.14 651.65 606.32 651.76 610.50 C 651.95 610.44 652.33 610.31 652.52 610.24 C 652.97 614.78 651.84 619.59 653.66 623.90 L 655.29 623.13 C 655.86 616.19 655.27 609.20 655.43 602.24 L 654.76 602.55 C 654.76 595.44 654.38 588.33 654.38 581.22 L 653.62 581.77 C 653.56 571.98 653.32 562.19 653.67 552.40 L 654.88 552.89 L 654.36 551.76 C 655.34 550.85 656.35 549.95 657.50 549.25 L 657.52 548.38 C 658.81 548.34 660.11 548.30 661.43 548.28 L 661.47 547.42 L 662.54 547.47 L 662.56 546.80 C 663.74 545.95 664.97 545.16 666.17 544.32 C 666.66 543.98 667.63 543.30 668.12 542.96 C 668.13 542.31 668.16 541.66 668.20 541.03 C 667.03 540.53 665.95 539.89 664.91 539.21 C 662.97 538.09 661.35 536.56 659.87 534.92 C 659.15 533.61 658.40 532.33 657.62 531.07 C 657.05 529.39 656.35 527.75 655.63 526.14 C 655.56 525.47 655.42 524.11 655.35 523.43 L 654.74 523.43 C 654.47 522.87 653.92 521.73 653.64 521.17 C 653.56 520.50 653.39 519.15 653.31 518.48 L 652.44 518.49 C 652.00 516.78 651.60 515.05 651.33 513.30 L 650.63 513.60 C 650.39 512.07 650.19 510.55 649.90 509.05 C 648.23 507.47 648.05 505.11 647.28 503.08 C 646.25 501.78 646.24 500.10 645.99 498.57 C 645.66 498.56 645.01 498.55 644.68 498.54 C 644.49 496.87 644.31 495.23 644.14 493.58 C 643.79 493.57 643.09 493.57 642.74 493.57 C 642.58 492.21 642.42 490.85 642.28 489.51 L 641.67 489.62 C 641.09 487.88 640.25 486.32 639.06 484.96 C 638.33 484.20 637.55 483.52 636.71 482.91 C 636.71 482.58 636.69 481.92 636.68 481.59 L 635.71 481.58 C 635.39 481.09 634.76 480.12 634.44 479.64 C 633.21 478.40 632.12 477.05 631.06 475.69 L 630.40 475.63 L 630.46 474.53 L 629.69 474.55 C 629.44 473.35 628.77 472.48 627.68 471.95 C 627.65 471.71 627.58 471.23 627.55 471.00 C 626.79 470.23 626.04 469.48 625.29 468.73 C 624.10 467.46 623.19 465.97 622.09 464.65 L 621.43 464.52 L 621.60 463.38 L 620.87 463.46 C 620.24 462.62 619.66 461.76 619.13 460.88 C 618.26 459.99 617.42 459.07 616.61 458.16 L 616.47 457.72 C 615.17 456.28 613.82 454.87 612.77 453.24 C 611.78 451.68 610.56 450.28 609.30 448.95 L 609.56 447.66 C 609.25 447.63 608.65 447.57 608.34 447.54 L 608.60 446.43 L 607.42 446.65 L 607.55 444.49 C 609.93 444.53 612.33 444.61 614.73 444.66 C 614.67 445.04 614.55 445.79 614.49 446.16 C 617.89 446.29 621.29 446.50 624.70 446.63 L 624.54 447.85 C 625.05 447.67 626.05 447.31 626.56 447.13 L 626.37 448.27 C 628.51 448.31 630.66 448.39 632.81 448.43 L 632.47 449.37 C 633.31 449.36 635.00 449.34 635.84 449.34 L 635.54 450.21 C 637.61 450.25 639.68 450.32 641.77 450.34 L 641.62 451.17 C 644.34 451.62 647.03 452.19 649.77 452.60 L 649.29 453.48 C 650.71 453.55 652.13 453.62 653.56 453.70 L 653.57 454.60 L 654.90 454.03 L 654.50 455.22 C 656.72 455.35 658.94 455.53 661.16 455.74 C 661.52 457.83 663.80 457.42 665.38 457.82 C 665.42 458.10 665.50 458.68 665.54 458.97 C 666.68 459.58 667.60 460.50 668.70 461.20 C 668.95 461.51 669.44 462.14 669.68 462.46 C 670.05 462.77 670.80 463.39 671.17 463.70 C 672.09 464.56 673.01 465.42 673.93 466.30 C 675.32 467.47 676.68 468.70 677.95 470.02 C 680.74 472.98 683.65 475.85 687.04 478.14 C 687.56 477.42 688.10 476.72 688.65 476.04 C 686.48 474.63 684.78 472.68 683.00 470.85 C 681.71 469.52 680.40 468.22 679.11 466.91 C 678.45 466.13 677.80 465.34 677.17 464.55 L 676.71 464.50 C 676.41 464.18 675.81 463.54 675.51 463.22 L 675.60 462.85 C 673.29 460.59 673.72 456.57 675.11 453.94 C 675.85 453.10 676.57 452.25 677.31 451.41 C 677.57 451.11 678.08 450.50 678.33 450.20 C 678.52 449.95 678.89 449.46 679.07 449.22 C 679.37 448.94 679.95 448.37 680.24 448.09 C 680.77 447.37 681.31 446.66 681.87 445.96 C 682.11 445.60 682.60 444.87 682.84 444.51 L 683.10 444.55 C 684.64 442.34 686.43 440.32 688.30 438.38 C 688.50 438.07 688.92 437.45 689.12 437.14 C 689.40 436.86 689.96 436.31 690.23 436.03 C 691.06 434.95 691.92 433.89 692.72 432.79 C 694.32 430.72 696.08 428.78 697.87 426.87 C 698.09 426.51 698.52 425.78 698.74 425.42 L 699.71 425.45 C 699.69 425.10 699.63 424.40 699.61 424.05 C 700.71 423.57 701.46 422.77 701.86 421.64 L 702.52 421.50 L 702.51 420.78 C 704.39 418.81 706.20 416.78 707.90 414.65 L 708.67 414.64 L 708.47 413.78 C 709.81 412.32 711.09 410.82 712.34 409.29 C 714.22 406.76 716.44 404.52 718.57 402.21 L 718.32 401.35 L 719.12 401.35 C 720.48 399.58 721.80 397.78 723.22 396.06 C 723.86 394.68 725.36 394.44 726.68 394.09 C 726.64 393.76 726.55 393.10 726.51 392.77 C 727.82 392.76 729.14 392.75 730.48 392.74 C 730.43 393.14 730.35 393.94 730.31 394.33 C 731.10 394.41 732.70 394.57 733.50 394.65 C 733.54 394.97 733.61 395.62 733.65 395.95 C 735.04 396.67 736.24 397.68 737.48 398.65 C 737.77 399.04 738.36 399.81 738.65 400.19 C 738.95 400.46 739.54 400.99 739.84 401.26 C 740.07 401.49 740.54 401.93 740.78 402.16 C 741.02 402.50 741.51 403.19 741.75 403.53 L 742.46 403.53 L 742.50 404.57 L 743.17 404.53 C 743.47 404.87 744.07 405.55 744.37 405.89 L 744.49 406.52 L 745.10 406.61 C 745.42 406.93 746.06 407.58 746.38 407.91 L 746.44 408.53 L 747.13 408.61 C 747.36 408.94 747.84 409.61 748.08 409.94 C 749.07 410.96 750.05 412.00 751.04 413.05 C 751.77 413.73 752.52 414.41 753.29 415.08 C 753.25 415.46 753.16 416.22 753.12 416.60 L 754.39 416.55 C 754.42 418.19 754.44 419.83 754.45 421.48 L 753.64 421.34 C 751.59 425.72 747.12 428.32 744.04 431.94 C 742.32 433.62 740.62 435.31 738.89 436.99 C 736.93 438.96 734.94 440.90 732.95 442.85 C 731.59 444.15 730.22 445.44 728.85 446.74 C 728.57 447.00 728.02 447.52 727.74 447.78 C 727.49 448.02 727.00 448.50 726.75 448.74 C 726.46 448.98 725.87 449.46 725.58 449.71 C 725.28 450.10 724.68 450.88 724.39 451.27 C 724.06 451.46 723.39 451.85 723.06 452.04 C 722.84 452.33 722.41 452.92 722.19 453.22 C 721.93 453.52 721.41 454.12 721.15 454.42 L 720.46 454.44 L 720.33 455.06 C 720.03 455.40 719.42 456.08 719.11 456.42 L 718.45 456.40 L 718.43 457.46 L 717.33 457.39 L 717.23 458.11 C 716.13 459.04 715.07 460.01 714.02 460.99 C 711.30 463.67 708.59 466.36 705.71 468.87 L 705.58 469.54 L 704.54 469.55 L 704.50 470.24 C 704.19 470.56 703.56 471.21 703.24 471.53 L 702.54 471.51 L 702.51 472.24 C 702.21 472.49 701.60 473.00 701.30 473.25 C 701.03 473.57 700.49 474.20 700.23 474.52 L 699.71 474.43 C 699.50 474.75 699.08 475.37 698.86 475.68 C 698.49 475.93 697.73 476.42 697.35 476.67 L 697.41 477.24 C 695.67 477.63 693.97 478.14 692.29 478.68 L 692.80 477.50 C 690.91 476.97 689.42 478.04 687.86 478.75 C 689.23 479.69 690.23 480.91 690.85 482.43 L 691.68 482.27 L 691.57 483.55 C 692.55 483.54 694.52 483.50 695.51 483.48 L 695.37 482.33 L 696.44 482.48 C 696.56 482.00 696.80 481.04 696.92 480.56 C 697.14 481.26 697.56 482.66 697.77 483.36 C 698.50 483.41 699.95 483.52 700.67 483.57 L 700.25 484.32 C 700.69 484.63 701.55 485.26 701.99 485.57 C 702.35 485.49 703.06 485.33 703.42 485.24 L 703.35 486.19 C 703.76 486.48 704.58 487.05 704.98 487.34 C 705.23 487.36 705.71 487.38 705.95 487.40 C 706.85 488.15 707.88 488.72 709.03 489.09 C 709.74 490.10 710.86 490.60 711.94 491.15 C 712.92 491.87 713.92 492.56 715.00 493.17 C 715.96 493.87 716.93 494.54 718.02 495.08 C 718.86 495.91 719.90 496.46 720.97 496.99 C 721.87 498.06 723.18 498.48 724.51 498.80 C 724.59 499.77 724.73 501.71 724.80 502.68 L 723.68 502.41 C 723.50 505.17 723.31 507.93 723.28 510.71 C 722.91 510.64 722.18 510.52 721.82 510.45 C 721.65 512.82 721.45 515.18 721.30 517.56 L 720.21 517.65 C 720.37 518.10 720.69 519.00 720.85 519.45 L 719.74 519.38 C 719.63 521.13 719.49 522.89 719.38 524.66 C 719.01 524.63 718.29 524.58 717.92 524.55 C 717.75 525.87 717.58 527.19 717.41 528.52 L 716.30 528.39 L 716.49 529.12 C 716.17 529.49 715.54 530.24 715.22 530.61 L 714.46 530.42 L 714.56 531.59 C 714.08 531.59 713.11 531.61 712.62 531.62 C 712.61 532.11 712.60 533.07 712.59 533.56 L 711.47 533.47 L 711.57 534.61 L 710.79 534.57 C 709.56 536.35 708.28 538.10 707.13 539.94 C 704.50 544.80 701.16 549.21 697.21 553.06 C 695.03 555.49 695.34 558.73 695.41 561.77 L 694.56 561.19 C 694.50 564.32 694.33 567.45 694.31 570.58 L 693.68 570.41 C 693.86 581.27 693.00 592.13 693.47 602.99 C 693.54 615.53 693.53 628.08 693.25 640.63 L 692.54 639.96 C 692.16 643.28 691.44 646.57 691.42 649.94 L 690.66 649.19 C 690.66 651.16 690.61 653.13 690.58 655.12 C 690.21 655.65 689.47 656.71 689.10 657.24 C 669.74 657.36 650.37 657.23 631.01 657.30 C 629.01 657.31 626.99 657.35 625.06 656.84 C 624.29 656.83 622.74 656.83 621.96 656.83 C 620.65 657.12 619.34 657.27 618.01 657.30 C 599.20 657.32 580.38 657.21 561.56 657.35 C 560.58 655.46 560.36 653.36 560.27 651.28 L 559.51 651.83 C 559.54 647.95 559.58 644.08 559.59 640.21 L 560.40 640.81 C 560.45 637.72 560.65 634.64 560.73 631.56 L 561.29 631.50 C 561.29 629.04 561.40 626.59 561.43 624.14 L 562.26 624.57 C 562.41 621.73 562.52 618.86 563.09 616.07 C 563.30 613.80 563.48 611.53 563.59 609.26 L 564.40 609.78 C 564.48 607.46 564.62 605.15 564.81 602.84 C 565.37 600.69 565.53 598.47 565.69 596.28 L 566.44 596.80 C 566.49 594.47 566.63 592.14 566.84 589.84 C 567.22 588.32 567.49 586.79 567.69 585.26 L 568.35 585.71 C 568.45 582.92 568.66 580.15 568.70 577.37 L 569.44 577.54 C 569.50 576.16 569.56 574.78 569.63 573.42 L 570.39 573.67 C 570.43 570.61 570.59 567.56 570.76 564.51 L 571.49 564.92 C 571.68 563.98 572.08 562.11 572.27 561.17 C 572.38 558.88 572.56 556.59 572.69 554.31 L 573.58 554.89 C 573.68 552.37 573.76 549.85 573.67 547.34 L 572.91 547.47 C 572.06 544.98 570.72 542.61 568.66 540.94 C 568.62 540.69 568.54 540.18 568.50 539.92 C 566.89 538.00 565.25 536.10 563.91 533.97 C 563.57 533.53 562.88 532.63 562.54 532.18 L 562.64 531.37 L 561.90 531.30 C 560.59 529.40 559.22 527.54 557.60 525.90 C 557.58 525.69 557.54 525.26 557.51 525.05 C 556.64 523.96 555.82 522.84 555.10 521.66 L 554.41 521.63 L 554.49 520.49 L 553.21 520.32 L 553.59 519.21 C 552.83 518.25 552.01 517.33 551.21 516.43 L 550.75 516.24 C 550.31 515.27 549.87 514.30 549.43 513.35 L 548.41 513.38 C 548.43 513.05 548.48 512.37 548.50 512.04 C 547.29 510.40 546.10 508.74 545.10 506.98 C 544.51 505.93 543.68 505.06 543.12 504.01 C 542.68 503.11 542.25 502.21 541.83 501.32 C 541.49 501.00 540.83 500.38 540.49 500.07 C 540.56 499.70 540.69 498.98 540.76 498.61 L 539.84 498.58 C 539.18 497.24 538.32 496.03 537.40 494.88 C 537.45 494.57 537.55 493.94 537.60 493.63 L 536.50 493.58 L 536.54 492.45 L 535.37 492.33 C 535.40 491.98 535.45 491.28 535.48 490.93 C 534.93 490.51 533.82 489.66 533.27 489.23 C 533.33 488.96 533.44 488.41 533.49 488.14 C 532.48 487.13 531.67 485.97 531.11 484.67 L 530.38 484.70 L 530.44 483.55 L 529.27 483.40 C 529.37 482.98 529.57 482.13 529.67 481.71 L 528.71 481.69 C 527.49 479.77 526.09 477.98 524.70 476.19 C 523.40 474.36 522.05 472.56 520.49 470.95 C 520.52 470.60 520.59 469.92 520.62 469.58 L 519.44 469.67 L 519.50 468.53 L 518.89 468.35 C 517.89 466.87 516.78 465.45 515.55 464.17 C 514.74 462.97 513.94 461.77 513.09 460.61 L 512.41 460.56 L 512.73 459.38 L 511.91 459.36 C 511.05 458.13 510.15 456.95 509.29 455.74 C 508.83 455.31 507.92 454.47 507.46 454.04 C 507.51 453.69 507.59 452.98 507.63 452.63 L 506.68 452.68 C 505.57 450.67 504.08 448.92 502.55 447.23 L 502.45 446.79 C 502.14 446.26 501.54 445.21 501.24 444.68 L 500.69 444.56 C 499.75 442.95 498.84 441.34 498.03 439.67 L 497.69 439.63 C 497.37 439.22 496.73 438.40 496.41 437.99 C 496.49 437.64 496.64 436.92 496.72 436.57 L 495.48 436.64 L 495.64 435.50 L 494.71 435.45 C 494.55 434.17 494.39 432.89 494.24 431.62 L 493.19 431.77 C 493.19 429.92 493.21 428.07 493.24 426.22 L 494.15 426.51 C 494.46 424.45 494.92 422.42 495.49 420.43 L 496.16 420.53 C 496.52 418.86 497.08 417.25 497.68 415.66 L 498.20 415.60 C 498.52 414.29 498.78 412.87 499.94 412.02 C 500.36 411.02 500.76 410.02 501.16 409.01 C 501.78 407.56 502.86 406.38 503.59 404.98 C 503.60 404.71 503.64 404.18 503.65 403.92 C 504.56 402.58 505.52 401.26 506.07 399.73 L 506.64 399.56 L 506.51 398.42 L 507.30 398.49 C 507.64 396.78 508.65 395.35 509.64 393.96 L 509.40 392.73 L 510.66 392.66 L 510.52 391.48 L 511.70 391.40 C 511.57 390.97 511.32 390.10 511.20 389.67 L 512.20 389.61 C 512.51 389.21 513.12 388.39 513.43 387.98 C 513.44 387.72 513.45 387.20 513.46 386.95 C 515.80 383.73 517.48 380.08 520.00 376.99 C 521.45 374.42 523.12 371.97 524.89 369.59 L 525.29 369.59 C 525.97 368.52 526.69 367.47 527.44 366.44 C 527.74 365.90 528.34 364.81 528.64 364.27 L 529.15 364.30 C 530.26 361.99 531.80 359.92 533.52 358.02 C 533.53 357.78 533.56 357.31 533.57 357.07 C 534.38 355.98 535.17 354.88 536.05 353.84 L 536.67 353.61 L 536.53 352.46 L 537.32 352.62 C 537.61 352.26 538.18 351.54 538.46 351.18 L 538.40 350.68 C 540.28 348.81 542.08 346.85 543.97 344.99 C 545.75 343.99 547.54 343.02 549.38 342.15 L 549.51 341.26 Z" />
<path fill="#ffffff" opacity="1.00" d=" M 685.32 354.30 C 687.44 354.26 689.57 354.29 691.71 354.39 C 691.62 354.60 691.46 355.03 691.38 355.25 C 692.26 355.42 694.04 355.76 694.93 355.93 C 698.46 359.17 701.63 362.79 705.26 365.94 L 705.31 366.69 L 706.45 366.47 L 706.43 367.55 L 706.97 367.73 C 707.34 368.03 708.07 368.64 708.44 368.95 L 708.38 369.55 L 709.47 369.58 L 709.44 370.21 C 709.79 370.54 710.49 371.20 710.84 371.53 L 711.48 371.51 L 711.58 372.12 C 711.90 372.47 712.54 373.15 712.87 373.50 L 713.52 373.45 L 713.41 374.63 L 714.09 374.50 C 714.41 374.87 715.06 375.60 715.39 375.96 L 715.52 376.13 C 715.84 376.48 716.48 377.19 716.80 377.55 L 717.11 377.61 C 717.88 378.67 718.68 379.70 719.52 380.73 C 719.60 384.81 720.66 389.43 717.92 392.91 C 716.77 394.18 715.63 395.46 714.48 396.73 L 714.46 397.17 C 714.17 397.55 713.57 398.31 713.28 398.69 L 712.31 398.64 C 712.40 399.08 712.59 399.96 712.68 400.40 L 711.44 400.42 L 711.50 401.54 L 710.76 401.53 C 709.90 402.79 709.01 404.03 708.17 405.30 L 707.68 405.37 C 707.38 405.74 706.77 406.47 706.47 406.84 L 706.59 407.69 L 705.28 407.59 C 705.35 408.04 705.49 408.95 705.56 409.41 L 704.70 409.39 C 704.46 409.73 703.99 410.42 703.75 410.76 C 702.42 412.44 701.01 414.05 699.58 415.64 C 699.40 415.95 699.03 416.56 698.84 416.86 C 697.83 418.15 696.78 419.42 695.78 420.73 C 694.54 422.27 693.26 423.78 692.03 425.33 L 691.38 425.53 L 691.69 426.65 L 690.77 426.61 C 690.28 427.45 689.79 428.30 689.31 429.15 C 688.45 430.09 687.60 431.04 686.72 431.96 C 685.92 433.03 685.12 434.10 684.31 435.17 C 682.79 437.14 681.26 439.10 679.65 441.00 C 678.77 442.11 677.98 443.29 677.10 444.39 L 676.49 444.53 L 676.65 445.66 L 675.91 445.68 C 674.86 447.44 673.41 448.90 671.70 450.03 L 671.53 450.58 L 670.35 450.44 L 670.70 451.55 C 669.87 451.56 668.21 451.58 667.37 451.58 L 667.53 452.38 C 664.95 452.32 662.25 452.85 659.92 451.55 C 659.58 451.58 658.91 451.63 658.58 451.66 L 658.64 450.49 L 658.00 450.30 C 656.82 449.92 655.65 449.52 654.49 449.11 L 654.69 448.36 C 654.02 448.29 652.70 448.15 652.04 448.08 C 651.16 446.54 649.41 446.32 647.86 445.97 C 647.09 444.17 645.00 444.43 643.41 444.12 C 643.43 443.76 643.47 443.04 643.48 442.68 C 642.10 442.54 640.73 442.42 639.36 442.31 C 639.40 441.93 639.49 441.17 639.53 440.79 C 638.35 440.64 637.19 440.49 636.03 440.33 C 634.56 438.95 633.19 437.40 633.06 435.33 L 631.78 435.38 C 631.56 433.02 631.48 430.65 631.42 428.30 C 631.61 428.39 631.99 428.57 632.18 428.66 C 632.52 425.92 634.26 423.72 635.71 421.48 L 636.12 421.25 C 636.85 420.07 637.66 418.94 638.57 417.89 C 638.56 417.58 638.53 416.96 638.52 416.65 L 639.66 416.61 L 639.50 415.46 L 640.20 415.47 C 641.27 413.54 642.57 411.75 643.92 410.02 C 644.87 408.52 645.84 407.04 646.74 405.52 L 647.32 405.51 C 647.76 404.50 648.21 403.50 648.67 402.50 L 649.27 402.45 C 650.17 400.92 651.17 399.45 652.17 397.99 C 653.45 396.24 654.71 394.47 655.79 392.59 L 656.48 392.54 L 656.42 391.47 L 656.96 391.23 C 658.37 389.15 659.72 387.03 661.20 385.01 C 662.74 382.83 664.41 380.72 665.75 378.40 L 666.65 378.38 C 666.63 378.06 666.59 377.43 666.57 377.11 C 667.45 376.04 668.30 374.93 668.98 373.72 L 669.47 373.65 C 669.90 372.79 670.34 371.93 670.79 371.07 C 671.71 370.04 672.59 368.97 673.51 367.94 C 673.50 367.69 673.48 367.19 673.47 366.95 C 673.78 366.55 674.39 365.76 674.70 365.36 L 675.06 365.27 C 675.83 364.11 676.68 363.01 677.58 361.93 C 677.54 361.61 677.46 360.97 677.42 360.65 L 678.61 360.68 L 678.47 359.78 C 679.41 358.84 680.34 357.86 681.45 357.09 L 681.31 356.40 L 682.43 356.52 L 682.38 355.58 C 683.18 355.55 684.79 355.49 685.59 355.46 L 685.32 354.30 Z" />
<path fill="#ffffff" opacity="1.00" d=" M 582.41 409.31 C 583.30 409.37 585.09 409.49 585.98 409.55 C 587.01 410.79 588.06 412.03 588.90 413.43 L 589.53 413.49 L 589.33 414.63 L 590.13 414.55 C 590.27 415.98 591.06 416.76 592.50 416.87 L 592.51 417.77 L 593.82 417.13 L 593.30 418.45 C 596.32 418.51 599.35 418.39 602.38 418.29 L 602.23 417.33 C 604.65 416.76 607.13 416.47 609.62 416.30 L 609.21 415.46 C 610.45 415.33 611.71 415.19 612.97 415.04 C 614.14 414.73 615.32 414.43 616.50 414.15 L 616.14 413.50 C 618.35 413.20 620.55 412.79 622.76 412.43 L 622.36 411.55 C 624.08 411.46 625.80 411.39 627.53 411.32 C 627.56 411.05 627.62 410.51 627.65 410.24 C 628.11 410.42 629.04 410.77 629.50 410.95 L 629.30 409.66 C 631.88 409.69 634.38 409.06 636.83 408.27 C 636.58 411.36 633.66 412.99 632.12 415.40 L 631.82 415.56 C 630.07 418.16 627.79 420.34 625.78 422.74 C 624.89 423.84 623.96 424.92 622.99 425.95 C 622.36 426.78 621.70 427.58 621.01 428.35 L 620.55 428.28 L 620.33 429.33 L 619.40 429.78 L 619.70 430.62 L 618.84 430.57 C 617.16 433.01 615.44 436.43 611.88 435.74 C 610.83 435.28 609.79 434.84 608.74 434.40 C 607.76 433.73 606.70 433.28 605.54 433.05 L 605.39 432.41 L 604.22 432.77 L 604.58 431.64 C 603.92 431.53 602.59 431.32 601.93 431.21 C 600.74 429.50 598.53 429.18 596.91 428.04 C 595.89 427.44 594.92 426.79 593.92 426.20 C 592.59 425.18 591.19 424.26 589.80 423.35 C 588.71 422.56 587.60 421.80 586.49 421.07 L 586.42 420.04 C 585.96 420.21 585.05 420.56 584.59 420.73 L 584.61 419.47 L 583.46 419.51 L 583.53 418.68 C 581.21 418.60 581.44 416.16 581.02 414.51 L 580.56 417.12 C 580.49 415.70 580.34 412.86 580.27 411.44 L 581.78 411.68 L 581.23 410.47 L 582.47 410.54 L 582.41 409.31 Z" />
<path fill="#ffffff" opacity="1.00" d=" M 732.73 448.94 C 734.49 447.47 736.12 445.86 737.86 444.36 C 740.13 443.64 741.62 445.76 743.29 446.86 L 743.44 447.53 L 744.48 447.54 L 744.49 448.19 C 744.86 448.46 745.59 448.99 745.96 449.26 L 746.59 449.37 C 746.62 449.66 746.66 450.24 746.69 450.53 L 748.40 450.20 L 748.40 451.19 C 750.26 452.39 751.94 453.85 753.57 455.37 C 753.87 455.65 754.49 456.23 754.80 456.52 L 755.58 456.53 L 755.55 457.70 C 756.00 457.63 756.91 457.51 757.37 457.45 C 757.44 457.95 757.58 458.94 757.65 459.43 C 758.03 459.43 758.81 459.42 759.20 459.42 C 759.60 459.87 760.40 460.77 760.80 461.22 C 761.95 462.08 763.10 462.96 764.28 463.83 L 764.32 464.68 L 765.47 464.47 L 765.53 465.55 L 766.68 465.41 L 766.52 466.66 C 766.89 466.63 767.63 466.58 767.99 466.56 C 768.97 468.12 770.43 469.24 771.96 470.24 C 772.58 470.93 773.23 471.61 773.91 472.27 L 774.58 472.39 C 775.79 475.40 775.06 478.60 774.50 481.67 L 773.64 481.55 C 773.49 482.85 773.36 484.15 773.23 485.46 L 772.30 485.48 L 772.75 486.64 L 771.65 486.40 C 771.56 487.18 771.37 488.74 771.28 489.51 L 770.28 489.40 L 770.49 490.51 L 769.33 490.62 C 769.40 491.04 769.53 491.87 769.60 492.28 L 768.41 492.38 L 768.49 493.53 L 767.38 493.54 C 767.40 493.89 767.44 494.58 767.46 494.93 C 766.64 495.55 765.90 496.23 765.21 496.99 C 764.60 497.76 763.99 498.54 763.39 499.32 C 761.94 500.90 760.40 502.38 758.81 503.81 C 758.39 504.24 757.55 505.11 757.13 505.55 C 756.75 505.51 756.00 505.44 755.62 505.40 L 755.76 506.60 C 752.46 507.96 748.89 508.04 745.43 507.33 L 745.48 506.40 L 744.26 506.54 L 744.47 505.21 C 744.09 505.30 743.34 505.48 742.97 505.57 C 742.55 505.27 741.72 504.67 741.30 504.37 L 741.47 503.84 C 740.08 503.47 738.53 503.25 737.97 501.74 C 737.32 501.65 736.02 501.49 735.36 501.41 L 735.74 500.35 L 734.50 500.50 L 734.37 499.31 C 733.93 499.44 733.03 499.71 732.59 499.84 L 732.60 498.51 L 731.46 498.58 L 731.26 498.07 C 729.81 497.32 728.45 496.45 727.07 495.61 L 726.18 495.73 L 726.31 494.85 C 724.71 494.35 723.30 493.43 722.03 492.38 C 721.74 492.41 721.17 492.45 720.88 492.47 C 720.44 491.92 719.56 490.82 719.12 490.26 C 718.83 490.35 718.25 490.51 717.97 490.59 C 717.58 490.26 716.81 489.58 716.42 489.25 L 716.53 488.89 C 715.27 488.54 714.04 488.07 713.13 487.12 C 712.09 486.46 711.09 485.72 709.93 485.33 C 708.96 484.59 708.08 483.76 707.00 483.23 C 705.26 482.17 703.46 481.23 701.75 480.13 C 700.52 478.37 703.07 477.83 703.78 476.68 C 704.24 476.35 705.16 475.70 705.62 475.38 L 705.78 474.90 C 707.42 473.43 709.09 471.98 710.53 470.30 L 710.56 469.77 C 710.86 469.54 711.46 469.10 711.76 468.88 C 712.03 468.59 712.56 468.02 712.82 467.73 C 713.06 467.44 713.55 466.86 713.79 466.57 L 714.34 466.56 C 718.50 462.16 723.25 458.31 727.06 453.60 C 727.42 453.60 728.13 453.61 728.49 453.61 L 728.33 452.35 L 729.55 452.54 L 729.38 451.70 L 730.37 451.42 L 730.75 450.47 L 731.54 450.61 L 731.55 449.49 L 732.72 449.68 L 732.73 448.94 Z" />
<path fill="#ffffff" opacity="1.00" d=" M 778.48 484.56 C 778.61 484.00 778.88 482.87 779.01 482.31 C 779.15 482.86 779.42 483.97 779.56 484.52 L 780.61 484.36 L 780.68 485.50 C 781.10 485.46 781.93 485.38 782.34 485.34 L 782.38 486.26 C 782.78 486.57 783.58 487.19 783.98 487.50 C 784.34 487.45 785.05 487.34 785.41 487.29 L 785.35 488.18 C 786.98 488.91 788.23 490.15 788.77 491.90 L 789.52 491.24 C 790.30 494.72 789.67 497.93 787.30 500.60 L 786.93 500.80 C 786.24 502.02 785.47 503.19 784.51 504.21 C 784.52 504.51 784.54 505.10 784.54 505.39 L 783.45 505.45 L 783.56 506.59 L 782.38 506.60 C 782.41 506.94 782.47 507.61 782.50 507.95 C 781.33 509.32 780.22 510.73 778.98 512.04 C 778.33 512.81 777.67 513.57 777.01 514.32 C 776.34 514.41 775.02 514.59 774.35 514.68 L 774.56 515.42 C 773.76 515.42 772.16 515.42 771.37 515.43 L 771.64 514.81 C 769.68 514.84 768.04 514.11 766.93 512.51 C 766.58 512.57 765.88 512.70 765.53 512.76 L 765.71 511.47 L 764.53 511.56 L 764.35 510.87 C 763.16 510.20 761.97 509.54 760.78 508.94 C 760.74 508.68 760.66 508.15 760.62 507.89 C 761.77 507.03 762.94 506.19 764.11 505.35 C 764.77 504.63 765.45 503.92 766.15 503.23 C 766.47 502.97 767.11 502.45 767.44 502.19 L 767.56 501.82 C 767.87 501.49 768.50 500.83 768.81 500.50 L 769.17 500.35 C 770.27 498.98 771.29 497.54 772.48 496.23 L 772.42 495.37 L 773.11 495.56 C 773.96 493.20 775.31 491.09 776.53 488.93 L 776.82 488.25 C 777.18 486.96 777.53 485.66 777.73 484.34 L 778.48 484.56 Z" />
<path fill="#ffffff" opacity="1.00" d=" M 267.75 865.00 C 302.17 865.00 336.58 865.00 371.00 865.00 C 371.00 878.50 371.01 892.00 370.99 905.51 C 351.33 905.49 331.66 905.50 312.00 905.50 C 312.00 919.00 312.00 932.50 312.00 946.00 C 330.67 946.00 349.33 946.00 368.00 946.00 C 368.00 959.33 368.00 972.66 368.00 986.00 C 349.50 986.00 331.00 986.00 312.50 986.00 C 312.50 1002.83 312.50 1019.66 312.50 1036.50 C 332.50 1036.50 352.50 1036.50 372.50 1036.50 C 372.50 1050.00 372.50 1063.50 372.51 1077.00 C 337.59 1077.00 302.67 1077.00 267.75 1077.00 C 267.75 1006.33 267.75 935.67 267.75 865.00 Z" />
<path fill="#ffffff" opacity="1.00" d=" M 388.50 865.00 C 405.64 864.99 422.79 865.00 439.93 865.00 C 449.65 899.97 459.36 934.95 469.09 969.92 C 478.81 934.95 488.50 899.98 498.24 865.01 C 515.41 864.98 532.58 865.01 549.75 865.00 C 549.75 935.67 549.75 1006.33 549.75 1077.00 C 536.00 1077.00 522.25 1077.00 508.50 1077.00 C 508.51 1033.46 508.48 989.93 508.51 946.40 C 497.53 989.91 486.72 1033.47 475.82 1077.00 C 471.33 1076.99 466.84 1077.01 462.36 1076.99 C 451.50 1033.54 440.68 990.08 429.75 946.65 C 429.76 990.10 429.75 1033.55 429.75 1077.00 C 416.00 1077.00 402.25 1077.00 388.49 1077.00 C 388.50 1006.33 388.50 935.67 388.50 865.00 Z" />
<path fill="#ffffff" opacity="1.00" d=" M 571.24 894.14 C 581.83 884.47 592.35 874.71 602.91 865.00 C 634.11 865.00 665.31 865.00 696.51 865.00 C 696.50 891.75 696.51 918.50 696.50 945.25 C 681.50 945.25 666.50 945.25 651.50 945.25 C 651.49 932.00 651.50 918.75 651.50 905.50 C 639.75 905.50 628.00 905.50 616.25 905.51 C 616.27 949.17 616.23 992.84 616.26 1036.51 C 628.01 1036.48 639.75 1036.50 651.50 1036.50 C 651.50 1027.91 651.49 1019.33 651.50 1010.75 C 666.50 1010.75 681.50 1010.75 696.50 1010.75 C 696.48 1023.07 696.54 1035.39 696.47 1047.71 C 686.64 1057.42 676.92 1067.24 667.13 1077.00 C 635.17 1077.00 603.21 1077.00 571.24 1077.00 C 571.25 1016.05 571.25 955.09 571.24 894.14 Z" />
<path fill="#ffffff" opacity="1.00" d=" M 714.00 865.00 C 748.33 865.00 782.67 865.00 817.00 865.00 C 816.99 878.50 817.03 892.01 816.98 905.52 C 797.32 905.48 777.66 905.51 758.00 905.50 C 758.00 919.00 758.00 932.50 758.00 946.00 C 776.67 946.00 795.33 946.00 814.00 946.00 C 814.00 959.33 814.00 972.66 814.00 986.00 C 795.58 986.00 777.17 986.00 758.75 986.00 C 758.75 1002.83 758.75 1019.66 758.75 1036.50 C 778.67 1036.50 798.58 1036.50 818.50 1036.50 C 818.51 1049.99 818.48 1063.48 818.52 1076.98 C 783.68 1077.03 748.84 1076.98 714.00 1077.00 C 714.00 1006.33 714.00 935.67 714.00 865.00 Z" />
<path fill="#ffffff" opacity="1.00" d=" M 834.50 865.00 C 868.83 865.00 903.17 865.00 937.50 865.00 C 937.50 878.50 937.50 892.00 937.50 905.50 C 917.92 905.50 898.34 905.50 878.75 905.50 C 878.75 919.00 878.75 932.50 878.75 946.00 C 897.34 946.00 915.92 945.99 934.50 946.00 C 934.51 959.32 934.47 972.64 934.53 985.97 C 916.10 986.04 897.67 985.97 879.25 986.00 C 879.27 1002.84 879.22 1019.67 879.27 1036.51 C 899.18 1036.48 919.09 1036.51 939.00 1036.49 C 939.00 1049.99 939.00 1063.50 939.00 1077.00 C 904.16 1077.00 869.33 1077.00 834.50 1077.00 C 834.50 1006.33 834.50 935.67 834.50 865.00 Z" />
</g>
</svg>
