<?xml version="1.0" encoding="UTF-8" ?>
<!DOCTYPE svg PUBLIC "-//W3C//DTD SVG 1.1//EN" "http://www.w3.org/Graphics/SVG/1.1/DTD/svg11.dtd">
<svg width="1200pt" height="1200pt" viewBox="0 0 1200 1200" version="1.1" xmlns="http://www.w3.org/2000/svg">
<g id="#ffffffff">
<path fill="#ffffff" opacity="1.00" d=" M 577.09 137.19 C 613.57 135.15 650.34 138.00 685.89 146.58 C 731.11 157.25 774.34 176.73 811.96 204.03 C 868.44 244.47 912.35 303.12 932.42 369.86 C 950.76 429.60 949.61 495.15 929.17 554.20 C 914.61 597.03 890.16 636.34 858.96 669.02 C 825.44 704.37 784.03 732.05 738.96 750.43 C 646.42 788.34 538.24 786.38 447.36 744.49 C 379.61 713.81 321.66 660.69 287.75 594.24 C 270.53 560.57 259.52 523.64 255.98 485.97 C 251.99 444.23 256.60 401.60 270.09 361.86 C 291.00 298.78 333.28 243.55 387.00 204.74 C 442.06 164.42 509.11 141.36 577.09 137.19 M 484.88 191.04 C 434.62 209.31 388.97 240.48 354.33 281.29 C 352.12 283.75 350.38 286.67 347.66 288.63 C 346.18 292.16 343.33 294.84 341.25 298.01 C 310.20 340.25 291.53 391.62 289.11 444.05 C 288.68 461.76 288.87 479.58 291.86 497.09 C 298.01 538.02 314.09 577.34 337.83 611.20 C 358.45 640.85 384.74 666.48 414.56 686.80 C 415.40 689.08 418.21 688.80 419.82 690.32 C 425.14 694.09 431.06 696.95 436.35 700.76 C 441.29 702.85 445.80 705.85 450.65 708.14 C 545.50 756.18 663.71 754.80 757.18 704.00 C 759.65 702.82 761.87 700.74 764.78 700.90 C 764.95 699.85 765.51 699.13 766.48 698.73 C 789.69 685.43 810.94 668.82 829.81 649.88 C 870.96 608.73 899.56 554.69 908.12 496.95 C 911.18 478.79 911.35 460.31 910.79 441.95 C 908.70 407.11 899.89 372.63 884.60 341.22 C 868.16 306.95 844.47 276.26 816.03 251.10 C 757.56 198.93 679.10 170.59 600.95 170.96 C 561.48 170.58 521.95 177.43 484.88 191.04 Z" />
<path fill="#ffffff" opacity="1.00" d=" M 426.75 242.00 C 462.00 242.01 497.25 241.98 532.50 242.01 C 552.50 314.18 572.64 386.31 592.58 458.49 C 612.75 386.34 632.61 314.10 652.82 241.96 C 688.06 242.09 723.30 241.91 758.54 242.05 C 758.48 387.35 758.49 532.65 758.53 677.96 C 730.27 678.06 702.01 677.97 673.75 678.00 C 673.72 588.17 673.80 498.35 673.71 408.52 C 651.19 498.34 628.80 588.18 606.31 678.00 C 597.18 678.00 588.06 678.00 578.94 678.00 C 556.42 587.89 533.85 497.78 511.37 407.66 C 511.09 497.77 511.33 587.89 511.25 678.00 C 483.08 678.00 454.92 678.00 426.75 678.00 C 426.75 532.67 426.75 387.33 426.75 242.00 Z" />
<path fill="#ffffff" opacity="1.00" d=" M 301.14 871.14 C 317.21 864.83 336.75 867.10 350.22 878.20 C 360.38 869.86 374.00 866.44 386.96 868.06 C 408.43 870.21 427.04 888.70 429.30 910.17 C 429.97 915.41 429.70 920.69 429.75 925.97 C 429.73 971.77 429.79 1017.57 429.73 1063.37 C 417.40 1059.27 405.07 1055.16 392.75 1051.05 C 392.74 1006.03 392.76 961.00 392.74 915.99 C 392.62 909.26 385.76 903.61 379.14 904.71 C 373.63 905.47 368.73 910.43 368.76 916.11 C 368.74 965.20 368.75 1014.28 368.76 1063.36 C 356.41 1059.29 344.09 1055.15 331.76 1051.05 C 331.75 1006.36 331.74 961.67 331.76 916.98 C 332.19 909.56 324.35 902.91 317.09 904.91 C 311.17 906.09 307.12 912.10 307.51 918.01 C 307.49 966.44 307.50 1014.87 307.50 1063.30 C 295.26 1059.22 283.01 1055.13 270.76 1051.06 C 270.73 1011.04 270.76 971.02 270.75 931.00 C 270.99 921.84 269.88 912.48 272.38 903.54 C 276.24 889.07 287.39 876.89 301.14 871.14 Z" />
<path fill="#ffffff" opacity="1.00" d=" M 441.75 879.87 C 454.00 875.81 466.23 871.70 478.48 867.64 C 478.53 932.85 478.50 998.05 478.50 1063.25 C 466.25 1063.25 454.00 1063.25 441.75 1063.25 C 441.75 1002.12 441.75 941.00 441.75 879.87 Z" />
<path fill="#ffffff" opacity="1.00" d=" M 490.50 879.96 C 502.75 875.88 515.00 871.79 527.25 867.71 C 527.30 880.05 527.16 892.40 527.32 904.74 C 528.24 915.68 537.08 923.43 544.73 930.30 C 550.71 935.52 557.15 940.18 563.79 944.54 C 574.34 937.82 584.24 929.99 592.73 920.77 C 596.71 916.08 600.48 910.43 600.27 904.02 C 600.22 896.00 600.26 887.99 600.25 879.97 C 612.57 875.84 624.90 871.73 637.24 867.64 C 637.27 875.77 637.24 883.91 637.25 892.04 C 637.18 901.10 637.85 910.37 635.21 919.17 C 629.67 938.93 613.94 953.56 598.06 965.51 C 607.83 972.79 617.18 980.87 624.54 990.66 C 632.03 1000.53 636.92 1012.57 637.22 1025.05 C 637.29 1033.72 637.23 1042.38 637.25 1051.05 C 624.91 1055.15 612.59 1059.29 600.24 1063.36 C 600.22 1050.53 600.29 1037.69 600.22 1024.86 C 599.40 1018.61 595.56 1013.22 591.34 1008.74 C 583.18 1000.14 573.74 992.86 563.79 986.46 C 554.18 992.72 545.03 999.78 536.99 1007.99 C 532.10 1013.20 527.43 1019.48 527.28 1026.94 C 527.20 1035.00 527.28 1043.06 527.25 1051.13 C 515.00 1055.18 502.77 1059.30 490.52 1063.36 C 490.47 1050.56 490.51 1037.76 490.50 1024.96 C 490.71 1012.37 495.87 1000.28 503.42 990.36 C 510.77 980.77 519.95 972.76 529.56 965.50 C 515.10 954.44 500.86 941.47 494.11 924.12 C 488.44 910.07 491.11 894.68 490.50 879.96 Z" />
<path fill="#ffffff" opacity="1.00" d=" M 649.25 867.75 C 694.08 867.75 738.92 867.75 783.75 867.75 C 783.75 880.00 783.76 892.25 783.75 904.50 C 751.16 904.50 718.58 904.50 686.00 904.50 C 686.02 945.17 685.95 985.85 686.04 1026.52 C 718.61 1026.47 751.18 1026.50 783.76 1026.50 C 783.75 1038.75 783.75 1051.00 783.75 1063.25 C 738.92 1063.25 694.08 1063.25 649.25 1063.25 C 649.25 998.08 649.25 932.92 649.25 867.75 Z" />
<path fill="#ffffff" opacity="1.00" d=" M 795.75 867.75 C 823.15 867.76 850.56 867.71 877.96 867.77 C 899.14 868.27 918.62 882.91 926.44 902.34 C 930.53 912.37 930.67 923.44 929.96 934.08 C 928.32 958.43 908.01 979.90 883.93 983.34 C 899.16 1010.07 914.80 1036.57 930.16 1063.24 C 915.98 1063.29 901.81 1063.19 887.63 1063.29 C 869.14 1031.84 850.94 1000.21 832.47 968.75 C 832.55 1000.25 832.48 1031.75 832.50 1063.25 C 820.25 1063.25 808.00 1063.25 795.75 1063.25 C 795.75 998.08 795.75 932.92 795.75 867.75 M 832.50 904.50 C 832.50 918.67 832.50 932.83 832.50 947.00 C 846.99 946.99 861.49 947.01 875.98 947.00 C 885.28 946.91 893.50 938.28 893.26 928.99 C 893.12 925.02 893.72 920.92 892.41 917.09 C 889.97 909.87 882.79 904.47 875.10 904.53 C 860.90 904.46 846.70 904.52 832.50 904.50 Z" />
<path fill="#ffffff" opacity="1.00" d=" M 691.85 947.00 C 718.41 947.04 744.98 946.91 771.55 947.07 C 771.47 959.36 771.48 971.65 771.54 983.94 C 749.06 984.07 726.59 983.96 704.11 984.00 C 700.07 971.65 695.84 959.36 691.85 947.00 Z" />
</g>
</svg>
