<?xml version="1.0" encoding="UTF-8" ?>
<!DOCTYPE svg PUBLIC "-//W3C//DTD SVG 1.1//EN" "http://www.w3.org/Graphics/SVG/1.1/DTD/svg11.dtd">
<svg width="1200pt" height="1200pt" viewBox="0 0 1200 1200" version="1.1" xmlns="http://www.w3.org/2000/svg">
<g id="#ffffffff">
<path fill="#ffffff" opacity="1.00" d=" M 569.08 143.19 C 605.89 141.12 643.00 144.07 678.85 152.81 C 755.91 171.06 826.94 215.67 874.84 278.99 C 894.78 305.50 910.88 335.03 921.42 366.52 C 941.47 424.94 942.66 489.66 924.84 548.78 C 910.85 596.00 884.95 639.44 850.97 675.00 C 819.64 708.02 781.44 734.45 739.75 752.67 C 649.82 792.46 543.76 793.67 452.82 756.35 C 382.59 727.84 321.36 675.98 284.65 609.35 C 264.55 573.33 251.89 533.11 247.99 492.03 C 243.94 450.00 248.66 407.07 262.35 367.09 C 283.48 303.94 326.01 248.72 379.97 210.04 C 434.84 170.14 501.50 147.35 569.08 143.19 M 566.61 177.82 C 516.36 181.36 466.87 196.56 423.56 222.35 C 382.77 246.42 347.50 280.04 322.26 320.18 C 295.54 362.67 280.46 412.74 280.96 463.03 C 280.52 507.39 292.25 551.60 313.33 590.56 C 349.25 656.87 412.00 707.03 483.10 731.15 C 558.74 757.19 643.77 754.97 717.89 724.81 C 768.43 704.21 813.92 670.56 846.97 626.99 C 880.40 583.54 900.58 529.85 902.89 475.00 C 903.31 457.65 903.02 440.22 900.13 423.07 C 893.80 380.93 877.00 340.50 852.11 305.96 C 832.23 277.98 807.13 253.83 779.00 234.23 C 743.61 209.75 703.24 192.71 661.16 183.87 C 630.12 177.47 598.20 175.51 566.61 177.82 Z" />
<path fill="#ffffff" opacity="1.00" d=" M 577.16 273.24 C 592.26 269.81 608.18 270.53 623.09 274.57 C 636.49 278.36 649.65 285.23 658.17 296.56 C 662.84 302.77 665.90 310.30 666.37 318.09 C 666.87 324.09 665.59 330.03 664.86 335.95 C 658.22 380.43 651.04 424.83 642.91 469.06 C 640.96 482.52 631.81 494.66 619.69 500.71 C 619.73 497.39 619.42 494.05 618.43 490.87 C 618.01 497.65 618.14 504.70 615.19 511.03 C 611.05 519.55 603.01 525.72 594.16 528.77 C 594.19 559.18 594.21 589.58 594.14 619.99 C 594.01 629.32 594.44 638.73 592.92 647.98 C 592.42 651.42 589.24 654.02 585.89 654.48 C 581.29 655.24 576.59 655.04 571.96 654.88 C 568.91 654.59 565.07 654.67 563.38 651.58 C 560.47 648.05 560.72 643.31 560.52 639.02 C 559.75 611.34 560.31 583.65 560.00 555.96 C 560.00 542.95 560.00 529.94 560.00 516.93 C 560.14 514.42 558.40 512.40 557.62 510.14 C 554.45 502.22 554.11 492.85 558.00 485.11 C 562.22 476.34 570.24 469.09 579.89 467.06 C 586.79 466.24 594.14 466.47 600.46 469.64 C 602.03 470.39 603.64 471.07 605.32 471.57 C 599.71 466.62 592.26 464.12 584.89 463.49 C 571.25 462.63 557.44 469.72 550.27 481.38 C 547.50 485.58 546.11 490.46 544.70 495.24 C 542.35 495.15 540.41 493.72 538.46 492.59 C 527.78 486.34 520.42 475.12 518.06 463.07 C 516.65 455.69 518.28 448.24 519.14 440.90 C 522.16 420.53 525.30 400.17 529.09 379.93 C 529.64 378.37 529.44 376.18 531.07 375.27 C 550.78 377.02 570.44 379.33 590.13 381.32 C 598.34 382.01 606.54 383.47 614.81 382.94 C 616.36 380.44 617.23 376.43 614.63 374.34 C 601.55 372.16 588.30 371.16 575.16 369.44 C 560.74 367.95 546.35 366.12 531.89 364.97 C 531.82 363.35 531.77 361.74 531.75 360.13 C 559.17 363.00 586.54 366.50 614.03 368.60 C 618.73 369.38 619.78 363.31 617.95 360.15 C 590.33 355.70 562.38 353.61 534.62 350.21 C 534.31 347.86 533.29 344.06 536.88 344.10 C 547.60 344.22 558.24 345.92 568.91 346.90 C 584.95 348.57 600.99 350.39 617.05 351.81 C 621.95 352.20 623.01 342.79 617.92 342.62 C 590.98 338.63 563.82 336.40 536.82 332.90 C 536.92 330.80 537.21 328.72 537.71 326.68 C 557.14 328.60 576.52 330.99 595.95 332.91 C 604.32 333.61 612.68 335.04 621.11 334.88 C 625.69 334.71 626.27 325.47 620.99 326.01 C 593.89 322.02 566.52 319.99 539.41 316.09 C 540.31 308.92 542.09 301.72 545.38 295.25 C 552.29 283.90 564.51 276.53 577.16 273.24 Z" />
<path fill="#ffffff" opacity="1.00" d=" M 654.99 888.05 C 658.01 886.30 661.73 885.84 665.16 886.16 C 667.50 886.33 669.34 888.55 668.91 890.90 C 667.38 903.59 665.10 916.22 664.76 929.02 C 664.32 945.08 663.45 961.12 663.02 977.18 C 665.75 978.34 669.02 977.91 671.84 979.02 C 676.82 983.72 673.94 993.55 667.21 994.88 C 665.53 995.10 662.46 994.53 662.33 996.98 C 661.60 1013.66 662.21 1030.38 661.98 1047.07 C 661.90 1049.37 660.21 1051.51 657.97 1052.10 C 654.30 1052.52 650.02 1052.70 647.38 1049.65 C 643.09 1046.00 644.43 1039.99 644.26 1035.06 C 642.19 1022.36 642.98 1009.33 642.69 996.47 C 625.41 996.05 608.19 997.62 591.01 999.29 C 584.45 1007.59 578.75 1016.55 573.83 1025.90 C 569.62 1034.24 563.76 1041.73 556.80 1047.95 C 554.12 1049.38 549.68 1050.20 547.88 1047.05 C 545.48 1042.74 549.34 1038.53 550.51 1034.46 C 557.10 1023.21 563.76 1012.01 569.90 1000.51 C 567.06 999.90 563.88 1000.16 561.30 998.72 C 558.78 995.78 559.26 991.59 559.86 988.07 C 560.91 983.93 564.94 981.69 568.83 980.87 C 573.83 979.17 579.30 979.71 584.31 978.41 C 606.78 947.49 628.27 915.56 654.99 888.05 M 609.97 976.30 C 620.89 975.81 631.83 975.80 642.75 975.23 C 642.74 961.94 642.75 948.65 642.75 935.37 C 631.19 948.48 618.88 961.13 609.97 976.30 Z" />
<path fill="#ffffff" opacity="1.00" d=" M 812.08 896.07 C 833.59 887.69 856.96 884.56 879.96 885.71 C 894.46 886.13 908.98 887.82 923.02 891.53 C 931.17 893.81 939.75 896.09 946.31 901.72 C 950.76 905.82 954.75 911.74 953.51 918.09 C 951.86 925.94 946.34 932.31 940.47 937.47 C 933.46 943.04 925.87 947.87 917.95 952.02 C 899.96 962.17 881.31 971.10 862.18 978.89 C 869.20 984.76 876.25 990.60 883.47 996.24 C 897.01 1008.43 910.55 1020.64 924.04 1032.90 C 929.86 1038.81 935.49 1046.83 933.44 1055.58 C 932.88 1057.65 930.26 1057.21 928.66 1057.67 C 914.50 1044.98 899.35 1033.47 884.50 1021.62 C 869.42 1009.92 853.90 998.82 838.06 988.19 C 835.02 989.07 832.05 990.15 829.10 991.27 C 820.28 1012.51 812.49 1034.17 805.20 1055.98 C 803.74 1056.61 802.25 1057.18 800.77 1057.77 C 796.86 1054.61 794.10 1049.97 793.73 1044.91 C 792.64 1033.86 797.13 1023.49 800.05 1013.09 C 804.02 1000.31 807.39 987.35 811.83 974.72 C 815.90 963.51 819.85 952.25 823.91 941.03 C 827.39 932.46 830.91 923.91 834.42 915.36 C 826.40 916.08 817.44 919.28 809.95 915.00 C 805.92 912.98 805.86 907.98 806.48 904.13 C 807.00 900.79 808.70 897.28 812.08 896.07 M 863.59 909.84 C 863.70 916.82 859.63 922.67 856.76 928.73 C 851.36 939.79 846.17 950.96 841.18 962.21 C 865.59 953.63 890.07 944.17 911.61 929.59 C 915.99 926.33 920.86 923.03 923.33 918.00 C 924.36 915.85 921.69 914.34 920.12 913.54 C 913.35 910.57 905.92 909.53 898.68 908.36 C 886.96 908.20 875.17 907.68 863.59 909.84 Z" />
<path fill="#ffffff" opacity="1.00" d=" M 759.48 890.74 C 762.70 889.32 767.04 889.88 769.21 892.88 C 772.85 897.43 775.77 903.16 774.86 909.17 C 774.07 913.10 771.73 916.47 770.09 920.08 C 760.44 939.44 751.42 959.12 743.16 979.12 C 733.91 1002.37 725.24 1025.86 717.33 1049.60 C 716.99 1051.27 715.32 1052.06 713.88 1052.62 C 711.68 1053.50 710.50 1051.00 709.21 1049.74 C 703.17 1042.25 705.02 1031.77 707.06 1023.14 C 713.67 1001.78 719.19 980.06 727.16 959.15 C 734.40 939.40 740.94 919.30 750.40 900.45 C 752.50 896.55 755.41 892.71 759.48 890.74 Z" />
<path fill="#ffffff" opacity="1.00" d=" M 310.64 902.85 C 325.29 900.82 340.82 903.57 353.29 911.75 C 370.10 922.79 381.51 941.21 385.12 960.89 C 387.44 973.46 387.40 986.52 384.87 999.06 C 381.51 1015.55 372.76 1031.01 359.90 1041.93 C 341.31 1058.14 312.38 1061.06 290.86 1049.11 C 277.20 1041.13 267.27 1027.72 261.66 1013.10 C 255.73 997.18 254.80 979.69 257.17 962.96 C 259.70 945.30 268.06 928.32 281.39 916.33 C 289.49 909.02 299.83 904.28 310.64 902.85 M 308.50 912.69 C 297.13 915.01 287.16 922.08 280.23 931.26 C 269.78 944.75 265.46 962.19 265.75 979.05 C 265.40 995.01 269.12 1011.44 278.22 1024.73 C 284.60 1034.22 293.96 1042.04 305.07 1045.22 C 320.11 1049.52 337.25 1047.15 349.94 1037.77 C 360.02 1030.35 367.59 1019.77 372.10 1008.14 C 377.56 993.78 378.42 977.87 375.60 962.85 C 372.60 946.65 363.73 931.44 350.57 921.44 C 338.76 912.45 322.89 909.61 308.50 912.69 Z" />
<path fill="#ffffff" opacity="1.00" d=" M 417.00 903.50 C 420.22 903.49 423.44 903.47 426.66 903.55 C 453.86 947.70 481.24 991.75 508.50 1035.87 C 508.49 991.75 508.50 947.62 508.50 903.50 C 511.66 903.49 514.83 903.49 518.00 903.50 C 518.00 953.67 518.00 1003.83 518.00 1054.00 C 514.73 1053.99 511.47 1054.00 508.21 1053.99 C 480.95 1009.96 453.75 965.89 426.47 921.87 C 426.54 965.92 426.48 1009.96 426.50 1054.00 C 423.33 1053.99 420.16 1053.99 417.00 1054.00 C 417.00 1003.83 417.00 953.67 417.00 903.50 Z" />
</g>
</svg>
