<?xml version="1.0" encoding="UTF-8" ?>
<!DOCTYPE svg PUBLIC "-//W3C//DTD SVG 1.1//EN" "http://www.w3.org/Graphics/SVG/1.1/DTD/svg11.dtd">
<svg width="829pt" height="888pt" viewBox="0 0 829 888" version="1.1" xmlns="http://www.w3.org/2000/svg">
<g id="#ffffffff">
<path fill="#ffffff" opacity="1.00" d=" M 319.60 8.76 C 388.57 -6.22 461.85 -1.00 527.92 23.86 C 597.67 50.03 659.39 98.71 698.37 162.49 C 717.18 192.83 730.37 226.54 737.66 261.47 C 738.55 262.48 739.55 263.47 739.91 264.83 C 742.80 267.82 743.95 272.03 746.24 275.48 C 746.72 278.28 747.95 280.83 749.21 283.35 C 749.86 287.34 751.70 291.16 751.38 295.28 C 753.69 302.25 752.24 309.78 752.35 317.00 C 751.53 320.74 751.37 324.61 750.21 328.29 C 750.67 324.19 751.18 320.08 752.03 316.05 C 753.46 306.71 751.51 297.41 750.16 288.19 L 749.11 289.58 C 750.56 286.82 748.63 284.08 747.63 281.54 C 746.31 279.29 746.57 276.45 744.74 274.47 C 744.25 271.62 741.32 269.90 741.30 266.89 C 740.26 266.22 739.26 265.18 737.93 265.31 C 739.37 268.73 739.49 272.51 740.15 276.12 C 746.80 320.29 743.62 365.98 730.39 408.66 C 718.23 448.82 697.40 486.26 670.34 518.28 C 622.29 575.48 554.71 615.35 482.06 631.97 C 429.53 644.21 374.29 644.83 321.53 633.64 C 284.85 626.18 249.53 612.56 216.96 594.18 C 216.75 596.32 216.52 598.47 216.25 600.62 C 216.41 601.07 216.73 601.97 216.88 602.41 L 215.85 602.00 C 215.60 606.92 214.91 611.74 214.30 616.61 C 213.18 620.36 213.85 624.37 212.70 628.14 C 213.10 628.02 215.79 628.76 214.45 629.59 C 213.94 629.22 212.91 628.46 212.40 628.09 C 213.28 616.66 215.75 605.39 216.53 593.90 C 185.56 575.98 157.04 553.59 133.17 526.88 C 91.12 480.84 62.98 421.98 54.95 360.05 C 54.06 359.02 52.85 358.20 52.26 356.96 C 52.22 355.98 54.17 357.44 54.18 356.09 C 54.53 354.37 54.12 352.64 54.00 350.93 C 50.55 318.50 52.86 285.51 60.03 253.73 C 60.67 251.66 58.41 252.29 57.29 252.57 C 58.39 251.46 59.59 250.43 61.08 249.88 C 69.93 212.45 86.61 177.05 108.65 145.60 C 131.80 112.94 160.94 84.58 194.09 62.16 C 231.92 36.44 274.86 18.26 319.60 8.76 M 317.20 44.66 C 279.87 53.88 244.19 69.66 212.44 91.37 C 173.54 118.01 140.64 153.67 118.46 195.36 C 117.70 196.59 117.43 198.01 117.24 199.43 L 116.45 199.29 C 113.33 205.52 110.17 211.80 107.73 218.31 C 107.34 221.40 111.08 218.83 112.25 218.04 C 112.58 216.31 113.26 214.68 113.86 213.03 C 113.73 215.13 113.56 217.39 112.01 218.98 C 110.29 220.89 106.62 219.91 105.76 222.74 C 84.35 276.28 80.99 336.93 96.79 392.42 C 98.19 392.44 99.59 392.49 100.99 392.58 C 99.56 392.63 98.14 392.65 96.71 392.64 C 110.48 441.50 138.34 486.07 175.35 520.71 C 201.82 545.83 232.99 565.82 266.43 580.33 C 347.44 615.14 442.31 615.98 523.93 582.65 C 559.77 567.98 593.09 546.91 621.17 520.19 C 651.25 491.80 675.37 456.94 690.51 418.41 C 694.26 408.60 698.02 398.68 700.07 388.36 C 699.60 388.39 698.68 388.44 698.21 388.46 C 698.33 387.45 699.09 387.20 700.49 387.72 C 710.31 350.13 711.70 310.35 704.49 272.18 C 697.25 233.32 681.19 196.12 657.99 164.13 C 635.34 132.08 605.83 105.03 572.59 84.27 C 535.70 61.12 493.98 45.86 450.99 39.06 C 447.24 38.55 443.90 36.20 440.03 36.43 C 437.03 36.52 434.07 36.19 431.13 35.64 C 393.01 33.63 354.35 35.23 317.20 44.66 Z" />
<path fill="#ffffff" opacity="1.00" d=" M 365.99 87.40 C 370.30 85.11 375.55 87.74 379.98 85.84 C 389.33 85.54 398.71 85.65 408.07 85.76 C 413.21 87.31 418.67 85.67 423.80 87.21 C 426.05 87.82 428.61 86.92 430.73 88.06 C 432.62 89.32 435.00 88.44 437.08 89.08 C 440.63 90.09 444.37 90.18 447.91 91.21 C 451.57 91.20 454.87 93.02 458.54 93.13 C 460.33 94.62 462.71 94.60 464.88 95.09 C 465.88 95.44 466.89 95.81 467.90 96.21 C 469.11 96.45 470.32 96.73 471.53 97.03 C 473.55 98.76 476.28 99.10 478.82 99.50 L 478.56 100.23 C 482.94 100.35 486.59 103.04 490.58 104.51 C 495.12 106.57 499.75 108.51 504.03 111.08 C 505.86 111.89 507.72 112.65 509.48 113.63 C 511.61 115.37 514.13 116.53 516.56 117.77 C 518.28 119.09 519.91 120.54 521.94 121.39 C 525.13 122.84 527.55 125.59 530.89 126.77 C 531.19 127.38 531.51 128.00 531.82 128.61 C 533.40 129.23 535.34 129.60 535.99 131.42 C 536.45 131.54 537.37 131.79 537.83 131.92 C 539.12 133.80 540.82 135.47 543.07 136.13 C 543.92 137.17 544.79 138.20 545.69 139.21 C 548.06 139.47 549.19 141.58 550.68 143.13 C 552.71 144.58 554.04 146.76 555.85 148.46 C 556.18 148.43 556.83 148.36 557.16 148.33 C 557.99 150.30 559.89 151.29 561.46 152.58 C 562.56 153.81 563.50 155.19 564.76 156.29 C 565.53 156.85 566.29 157.44 567.04 158.06 C 568.21 159.86 569.51 161.56 570.81 163.28 C 577.45 168.88 581.84 176.62 587.72 182.94 C 587.64 183.30 587.50 184.01 587.43 184.37 L 588.57 184.40 L 588.41 185.54 L 589.49 185.49 L 589.55 186.50 L 590.10 186.51 C 590.70 187.40 591.32 188.28 591.96 189.15 C 592.19 189.68 592.67 190.73 592.91 191.25 C 594.25 193.16 595.71 194.98 597.05 196.90 C 597.70 198.08 598.31 199.28 598.99 200.46 C 602.10 204.67 603.71 209.76 606.68 214.08 C 609.20 217.50 609.62 221.88 611.99 225.37 C 614.23 228.81 614.92 232.95 616.40 236.72 L 617.17 236.44 C 617.41 239.13 618.37 241.66 619.00 244.28 C 620.31 248.55 622.52 252.54 623.09 257.02 C 623.69 258.42 623.84 259.92 623.95 261.44 C 624.18 261.83 624.63 262.63 624.85 263.03 C 625.95 269.00 627.88 274.89 627.88 281.02 C 629.96 283.55 627.98 287.27 630.23 289.66 C 630.33 293.05 629.98 296.50 630.89 299.81 C 631.61 305.59 630.51 311.48 631.59 317.24 C 631.89 320.49 631.88 323.78 631.59 327.03 C 630.40 332.66 631.90 338.49 630.53 344.09 C 630.08 346.50 630.30 348.98 630.31 351.42 C 630.01 351.79 629.41 352.54 629.11 352.91 C 629.46 357.03 627.71 360.83 627.34 364.88 C 626.54 368.22 626.57 371.76 625.30 374.98 C 624.15 379.09 622.74 383.14 622.14 387.39 L 621.52 387.30 C 621.28 388.89 621.22 390.63 620.01 391.86 C 618.90 398.81 614.68 404.59 613.23 411.44 L 612.21 411.39 C 612.23 411.76 612.26 412.50 612.27 412.87 C 610.76 414.77 609.87 417.05 609.09 419.33 L 608.31 419.41 C 608.27 420.02 608.19 421.23 608.16 421.84 C 605.77 423.83 605.36 427.06 603.55 429.45 C 602.28 431.89 601.49 434.63 599.63 436.72 C 597.53 441.11 594.23 444.75 591.94 449.03 C 588.84 453.74 585.08 457.98 582.13 462.79 C 580.07 464.47 578.41 466.56 576.97 468.78 C 575.97 469.88 574.99 471.00 573.99 472.10 C 573.04 473.38 572.13 474.71 571.14 475.98 C 569.94 477.03 568.74 478.11 567.83 479.44 C 567.67 479.52 567.36 479.69 567.20 479.77 C 565.84 481.17 564.37 482.45 563.04 483.88 C 560.24 486.59 557.81 489.82 554.37 491.77 C 551.12 494.17 549.11 498.14 545.26 499.66 C 543.80 501.46 542.09 503.09 539.84 503.83 C 539.25 504.64 538.66 505.45 538.09 506.28 C 537.63 506.39 536.69 506.62 536.22 506.73 C 535.23 508.22 533.65 509.01 531.99 509.51 L 532.09 510.61 C 531.86 510.64 531.39 510.69 531.15 510.72 C 529.76 512.09 527.71 512.65 526.70 514.43 C 526.39 514.43 525.77 514.42 525.46 514.42 L 525.34 515.06 C 523.76 515.78 522.27 516.70 520.99 517.88 C 518.49 519.94 515.09 520.61 512.88 523.02 C 509.14 524.82 505.69 527.15 501.94 528.93 C 500.08 529.74 498.25 530.62 496.44 531.53 C 493.89 533.13 490.98 534.10 488.55 535.90 C 486.69 536.74 484.80 537.55 482.79 537.96 C 479.84 539.35 476.93 540.84 473.92 542.11 C 472.82 542.44 471.71 542.73 470.59 542.99 C 469.23 543.63 467.85 544.23 466.51 544.91 C 462.49 545.55 458.81 547.61 454.70 547.76 C 453.34 548.48 451.98 549.19 450.63 549.91 C 439.50 551.26 428.82 555.42 417.44 554.62 L 417.68 555.70 C 413.17 555.71 408.64 555.43 404.15 555.80 C 399.97 556.80 395.63 557.48 391.36 556.67 C 389.46 556.32 387.20 557.75 385.90 555.72 C 381.39 555.45 376.84 555.92 372.34 555.48 C 372.02 555.28 371.39 554.89 371.07 554.69 C 364.62 555.21 358.39 553.34 352.01 553.03 C 350.61 550.65 347.38 552.28 345.28 550.98 C 338.42 550.19 332.16 547.14 325.45 545.72 C 324.39 545.47 323.42 545.03 322.55 544.38 C 320.20 543.43 317.74 542.80 315.32 542.09 C 313.08 541.34 310.98 540.20 308.62 539.89 C 308.59 539.66 308.52 539.21 308.49 538.98 C 306.65 538.38 304.85 537.65 303.20 536.64 C 302.30 536.48 301.41 536.32 300.53 536.17 C 298.12 534.25 295.13 533.36 292.43 531.95 C 290.15 530.31 287.48 529.37 284.98 528.15 C 282.42 525.99 279.25 524.86 276.35 523.28 C 276.37 523.08 276.41 522.69 276.42 522.50 C 273.56 520.92 269.74 520.16 267.88 517.31 C 267.26 517.06 266.01 516.56 265.38 516.31 L 265.55 515.74 C 262.53 515.22 260.62 512.44 258.18 510.81 C 255.58 509.45 253.31 507.51 250.91 505.82 C 249.39 504.40 247.69 503.21 245.96 502.07 C 244.98 501.39 244.05 500.64 243.30 499.72 C 241.51 498.10 239.76 496.44 237.85 494.98 C 234.93 492.98 232.78 490.14 230.24 487.73 C 228.79 486.37 227.44 484.90 226.23 483.33 L 225.34 483.73 L 225.53 482.73 C 222.82 480.40 220.22 477.94 217.84 475.27 C 217.45 475.02 216.68 474.52 216.29 474.26 L 216.49 473.79 C 214.85 472.28 213.54 470.49 212.22 468.72 C 211.14 467.73 210.06 466.73 208.96 465.77 C 208.83 465.30 208.56 464.37 208.43 463.90 C 207.65 463.26 206.86 462.63 206.07 462.01 C 205.59 460.96 205.10 459.93 204.59 458.91 C 202.20 458.30 202.26 455.46 200.57 454.06 L 200.79 453.25 L 200.05 453.33 C 198.20 450.96 196.73 448.33 194.98 445.90 C 193.91 443.54 192.47 441.36 190.69 439.48 C 187.94 434.02 184.26 429.08 182.45 423.16 L 181.61 423.38 C 181.49 422.79 181.25 421.61 181.13 421.02 C 178.96 417.72 177.81 413.88 175.68 410.55 C 174.23 406.07 171.78 401.90 170.73 397.23 C 170.32 396.31 169.90 395.40 169.48 394.50 C 167.39 389.48 167.00 383.71 164.73 378.84 C 164.66 377.66 164.61 376.48 164.58 375.30 L 163.54 375.36 C 163.03 370.58 162.00 365.84 160.88 361.18 C 160.72 359.33 161.08 357.32 160.08 355.65 C 158.90 353.40 159.63 350.79 159.49 348.38 L 158.47 348.65 C 158.45 344.45 158.94 340.16 157.77 336.06 C 157.64 326.12 157.61 316.17 157.81 306.23 C 159.35 302.23 158.10 297.73 158.51 293.54 L 159.48 293.61 C 159.46 290.87 159.48 288.13 159.49 285.39 C 159.82 285.43 160.48 285.50 160.81 285.53 C 160.80 283.69 160.81 281.85 160.90 280.01 C 161.67 278.40 161.72 276.61 161.88 274.88 C 162.96 271.00 162.45 266.75 164.39 263.07 C 164.77 260.99 165.55 259.03 166.16 257.02 C 166.35 255.81 166.52 254.60 166.67 253.39 L 167.15 253.45 C 167.79 250.41 168.16 247.24 169.57 244.44 C 169.94 243.09 170.34 241.76 170.73 240.42 L 171.19 240.48 C 171.92 237.82 172.63 235.13 173.77 232.61 C 175.83 230.33 175.32 226.91 177.37 224.60 C 178.73 222.12 179.64 219.40 181.26 217.07 C 181.31 216.52 181.40 215.41 181.45 214.86 C 184.46 212.43 184.89 208.24 187.09 205.19 C 189.49 201.52 191.17 197.38 194.36 194.25 C 194.46 193.72 194.66 192.65 194.76 192.11 C 196.70 190.60 197.42 188.12 199.22 186.48 C 200.73 184.27 202.36 182.15 203.82 179.92 C 205.46 178.80 206.23 176.95 207.19 175.30 C 210.48 173.50 210.86 169.10 214.40 167.46 C 215.17 165.65 216.56 164.26 217.85 162.83 C 226.35 154.87 234.18 146.22 243.09 138.70 C 244.25 138.11 245.54 137.62 246.34 136.52 C 247.85 134.56 250.36 133.78 251.86 131.82 C 254.16 130.41 256.27 128.74 258.49 127.21 C 260.52 125.33 262.94 123.96 265.20 122.37 C 270.73 118.91 276.29 115.50 282.11 112.55 C 284.60 111.71 286.84 110.33 289.09 109.00 C 292.95 107.74 296.14 104.90 300.13 104.09 C 305.27 101.08 311.08 99.76 316.56 97.54 C 318.27 96.20 320.50 96.34 322.56 96.28 L 322.41 95.55 C 323.58 95.33 324.74 95.06 325.89 94.74 C 327.56 94.66 329.30 94.49 330.40 93.03 C 335.43 93.08 339.91 90.57 344.90 90.37 C 347.57 89.82 350.42 89.96 352.96 88.89 C 354.52 88.80 356.08 88.77 357.65 88.73 L 357.43 87.52 C 360.28 87.47 363.14 87.45 365.99 87.40 M 368.93 128.79 C 362.60 129.02 356.33 130.29 350.24 132.02 C 348.99 132.18 347.75 132.42 346.53 132.74 C 345.18 133.00 343.78 133.09 342.55 133.75 C 336.30 134.95 330.44 137.32 324.50 139.52 C 323.43 139.85 322.36 140.18 321.30 140.51 C 320.92 140.87 320.18 141.59 319.81 141.96 C 319.27 142.00 318.19 142.08 317.66 142.13 C 315.77 143.20 313.65 143.84 311.94 145.20 C 309.33 146.61 306.48 147.49 303.94 149.01 C 300.53 151.27 296.15 152.12 293.54 155.51 C 288.20 157.20 284.09 161.37 279.56 164.52 C 272.93 169.08 267.11 174.65 261.04 179.88 C 256.88 184.41 251.85 188.20 248.51 193.41 C 243.51 197.87 239.52 203.29 235.71 208.76 C 230.96 214.57 227.10 221.02 223.28 227.46 C 218.63 237.38 212.58 246.89 209.77 257.60 C 208.42 260.83 207.26 264.11 206.21 267.44 C 205.50 271.42 204.69 275.41 203.36 279.23 C 201.17 289.04 200.43 299.06 199.30 308.99 C 199.32 317.64 199.31 326.30 199.31 334.96 C 199.21 336.41 199.66 337.80 200.18 339.14 C 200.07 350.14 202.83 360.86 205.26 371.50 C 206.52 375.54 207.76 379.58 209.36 383.50 C 210.22 386.09 210.95 388.73 211.64 391.38 C 212.28 392.44 212.89 393.56 213.89 394.34 C 213.95 394.88 214.06 395.96 214.11 396.50 C 217.69 403.91 221.58 411.12 225.54 418.32 C 226.36 418.93 226.98 419.71 227.40 420.65 C 229.17 424.86 232.59 428.07 234.73 432.10 C 238.09 435.69 240.08 440.60 244.39 443.28 C 245.09 446.90 248.88 448.48 250.85 451.33 C 251.53 452.20 252.22 453.08 252.93 453.94 C 254.01 455.22 255.07 456.53 256.10 457.87 C 258.68 460.00 261.20 462.20 263.87 464.22 C 266.30 465.87 267.53 469.11 270.71 469.60 C 272.40 472.64 275.82 473.83 278.01 476.42 C 279.64 477.01 281.07 477.97 281.86 479.57 C 282.26 479.70 283.06 479.96 283.46 480.09 C 285.26 481.48 287.28 482.55 289.18 483.80 C 290.86 486.12 294.20 486.00 295.80 488.41 C 298.64 489.55 301.48 490.76 303.95 492.62 C 306.56 494.72 310.34 494.81 312.55 497.48 C 315.79 498.14 319.36 499.08 321.71 501.53 C 326.05 502.91 330.62 503.70 334.72 505.76 C 337.33 507.11 340.34 507.22 343.12 508.05 C 349.74 509.65 356.25 511.77 363.09 512.24 C 366.83 513.69 371.26 511.97 374.60 514.56 C 377.38 514.59 380.18 514.43 382.96 514.65 C 389.21 516.01 395.67 515.19 402.01 515.35 C 406.69 514.10 411.54 514.65 416.32 514.57 C 416.55 514.24 417.01 513.56 417.24 513.23 C 423.21 512.95 429.12 512.06 435.01 510.95 C 440.70 508.82 446.76 508.09 452.59 506.42 C 454.04 505.59 455.59 504.94 457.11 504.21 C 460.36 503.52 463.58 502.68 466.73 501.59 C 466.98 501.26 467.48 500.61 467.73 500.29 C 470.70 499.44 473.75 498.62 476.36 496.89 C 478.57 495.41 481.07 494.49 483.51 493.45 C 485.75 491.37 488.84 490.71 491.48 489.32 C 493.74 487.12 496.55 485.52 499.56 484.58 C 501.03 482.15 504.00 481.67 506.02 479.88 C 508.11 478.24 510.04 476.25 512.64 475.44 C 513.52 474.29 514.42 473.15 515.35 472.04 C 515.88 471.97 516.94 471.84 517.47 471.78 C 518.65 469.46 520.82 468.04 522.87 466.57 C 526.43 463.57 529.71 460.25 532.92 456.88 C 534.67 455.34 536.25 453.61 537.86 451.94 C 542.47 447.18 546.48 441.83 550.71 436.71 C 554.19 432.24 557.25 427.46 560.66 422.95 C 562.50 419.89 563.65 416.39 566.23 413.83 C 568.27 409.35 570.71 405.06 572.74 400.58 C 575.47 397.15 575.74 392.61 577.90 388.88 C 579.90 385.49 580.33 381.52 581.20 377.75 C 581.55 377.46 582.24 376.88 582.59 376.59 C 583.25 371.89 585.09 367.41 585.36 362.64 C 586.09 361.24 586.37 359.69 586.62 358.16 C 586.84 357.85 587.30 357.25 587.53 356.94 C 588.06 351.30 588.57 345.65 589.12 340.02 C 589.55 336.36 588.03 332.18 590.34 328.98 C 590.48 324.24 590.35 319.50 590.41 314.76 C 590.05 314.38 589.35 313.62 588.99 313.24 C 589.54 304.81 588.43 296.43 587.50 288.09 C 585.83 285.52 586.83 282.30 585.40 279.65 C 584.32 275.51 584.17 271.14 582.56 267.15 C 579.78 262.48 580.59 256.43 577.05 252.05 C 575.81 248.84 575.14 245.41 573.50 242.35 L 572.78 242.50 C 572.40 241.10 572.10 239.65 571.19 238.50 C 570.96 237.49 570.75 236.49 570.55 235.48 C 570.15 235.17 569.36 234.54 568.97 234.22 C 567.78 231.82 566.50 229.45 565.73 226.87 C 564.08 225.89 563.16 224.29 562.68 222.48 C 560.83 219.23 558.48 216.30 556.61 213.07 C 553.90 210.12 552.23 206.37 549.33 203.58 C 548.54 201.46 546.85 200.02 545.11 198.70 C 542.95 194.45 538.71 191.82 535.73 188.19 C 530.98 183.41 526.15 178.65 521.36 173.95 C 519.42 173.23 518.21 171.62 516.93 170.10 C 513.45 167.94 510.48 165.11 507.29 162.55 C 505.32 161.50 503.54 160.12 501.49 159.22 C 501.25 158.79 500.75 157.93 500.50 157.50 C 498.03 156.90 495.93 155.46 493.73 154.27 C 488.48 149.92 481.87 147.62 476.03 144.22 C 470.67 142.74 466.00 139.54 460.58 138.27 C 453.61 135.52 446.39 133.54 439.05 132.02 C 434.68 130.06 429.75 130.40 425.20 129.16 C 420.12 128.80 415.12 127.91 410.01 128.20 C 408.82 127.42 407.43 127.18 406.04 127.28 C 398.00 127.37 389.97 127.19 381.94 127.37 C 377.74 128.95 373.22 127.67 368.93 128.79 Z" />
<path fill="#ffffff" opacity="1.00" d=" M 277.66 205.60 C 293.76 205.27 309.88 205.44 325.99 205.52 C 326.36 216.34 326.05 227.19 326.15 238.02 C 326.03 242.54 326.45 247.08 325.87 251.58 C 309.80 251.49 293.73 251.73 277.66 251.46 C 277.43 236.18 277.43 220.88 277.66 205.60 Z" />
<path fill="#ffffff" opacity="1.00" d=" M 339.28 205.44 C 355.20 205.43 371.11 205.45 387.03 205.43 C 387.24 220.81 387.33 236.22 387.00 251.60 C 371.09 251.56 355.18 251.56 339.27 251.60 C 338.35 241.10 339.11 230.51 338.86 219.98 C 338.98 215.13 338.52 210.25 339.28 205.44 Z" />
<path fill="#ffffff" opacity="1.00" d=" M 401.14 205.74 C 404.06 205.17 407.07 205.50 410.04 205.44 C 423.07 205.41 436.10 205.51 449.13 205.38 C 449.64 220.75 449.38 236.16 449.25 251.54 C 433.16 251.52 417.05 251.78 400.96 251.40 C 400.98 236.19 400.67 220.94 401.14 205.74 Z" />
<path fill="#ffffff" opacity="1.00" d=" M 462.27 205.46 C 478.25 205.41 494.24 205.45 510.22 205.45 C 511.58 207.92 510.00 210.45 510.26 213.02 C 511.84 222.24 510.74 231.66 511.07 240.97 C 510.75 244.53 512.05 248.56 509.73 251.65 C 493.91 251.46 478.10 251.67 462.28 251.54 C 461.65 241.03 462.17 230.47 462.00 219.94 C 462.09 215.11 461.75 210.27 462.27 205.46 Z" />
<path fill="#ffffff" opacity="1.00" d=" M 277.76 267.57 C 293.74 267.47 309.73 267.44 325.71 267.58 C 326.37 269.99 326.14 272.51 326.16 274.98 C 326.05 287.73 326.32 300.49 326.05 313.24 C 324.75 313.65 323.36 313.48 322.03 313.54 C 307.21 313.44 292.39 313.66 277.57 313.42 C 277.61 298.14 277.25 282.84 277.76 267.57 Z" />
<path fill="#ffffff" opacity="1.00" d=" M 338.86 280.99 C 338.97 276.48 338.54 271.93 339.38 267.47 C 355.27 267.56 371.16 267.47 387.05 267.51 C 387.23 282.84 387.23 298.19 387.08 313.52 C 371.12 313.37 355.14 313.61 339.17 313.52 C 338.51 302.70 339.03 291.83 338.86 280.99 Z" />
<path fill="#ffffff" opacity="1.00" d=" M 400.89 313.36 C 401.16 298.07 400.45 282.74 401.29 267.48 C 417.26 267.55 433.24 267.47 449.21 267.52 C 449.56 282.83 449.34 298.15 449.34 313.46 C 433.19 313.54 417.03 313.62 400.89 313.36 Z" />
<path fill="#ffffff" opacity="1.00" d=" M 462.37 267.51 C 478.28 267.50 494.20 267.50 510.11 267.52 C 510.57 269.32 511.15 271.12 511.07 273.01 C 511.09 285.03 511.01 297.04 511.11 309.05 C 511.22 310.58 510.74 312.05 510.26 313.49 C 494.27 313.51 478.27 313.61 462.29 313.44 C 461.61 302.33 462.19 291.12 462.00 279.97 C 462.07 275.82 461.72 271.63 462.37 267.51 Z" />
<path fill="#ffffff" opacity="1.00" d=" M 277.81 329.87 C 293.78 329.53 309.79 329.69 325.78 329.81 C 326.33 331.49 326.13 333.29 326.17 335.04 C 326.07 348.27 326.26 361.51 326.08 374.74 C 309.95 375.00 293.81 374.85 277.68 374.80 C 277.33 363.19 277.61 351.58 277.53 339.96 C 277.63 336.60 277.24 333.20 277.81 329.87 Z" />
<path fill="#ffffff" opacity="1.00" d=" M 338.86 344.00 C 338.99 339.24 338.48 334.43 339.33 329.71 C 355.23 329.68 371.13 329.71 387.04 329.70 C 387.29 344.73 387.23 359.78 387.07 374.82 C 371.07 374.84 355.06 375.00 339.06 374.73 C 338.62 364.50 338.98 354.25 338.86 344.00 Z" />
<path fill="#ffffff" opacity="1.00" d=" M 400.92 341.98 C 400.95 337.89 400.58 333.76 401.30 329.71 C 417.26 329.69 433.22 329.71 449.18 329.69 C 449.58 344.72 449.40 359.78 449.27 374.82 C 433.23 374.88 417.19 374.92 401.15 374.80 C 400.62 363.87 401.06 352.91 400.92 341.98 Z" />
<path fill="#ffffff" opacity="1.00" d=" M 462.00 345.01 C 462.13 339.91 461.66 334.77 462.35 329.70 C 478.28 329.71 494.20 329.67 510.13 329.73 C 510.58 331.45 511.14 333.17 511.09 334.98 C 511.05 346.66 511.07 358.34 511.07 370.03 C 511.11 371.68 510.63 373.28 510.23 374.87 C 494.22 374.78 478.21 375.02 462.20 374.75 C 461.75 364.84 462.12 354.92 462.00 345.01 Z" />
<path fill="#ffffff" opacity="1.00" d=" M 277.61 392.22 C 293.76 391.68 309.94 392.00 326.11 392.10 C 326.22 405.73 326.09 419.36 326.17 432.99 C 326.14 434.61 326.26 436.28 325.85 437.88 C 314.26 437.14 302.62 437.71 291.01 437.53 C 287.42 437.70 283.68 436.96 280.20 438.12 C 279.54 437.85 278.20 437.31 277.54 437.04 C 277.56 422.10 277.42 407.16 277.61 392.22 Z" />
<path fill="#ffffff" opacity="1.00" d=" M 338.85 395.96 C 338.86 394.49 338.50 391.48 340.88 391.92 C 356.19 392.12 371.53 391.72 386.82 392.12 C 387.63 407.33 386.99 422.79 387.14 438.11 C 385.09 437.81 383.05 437.42 380.98 437.51 C 367.04 437.59 353.00 437.40 339.13 437.69 C 338.50 423.82 339.05 409.86 338.85 395.96 Z" />
<path fill="#ffffff" opacity="1.00" d=" M 401.10 392.14 C 417.12 391.90 433.19 391.75 449.20 392.20 C 449.53 407.47 449.47 422.78 449.23 438.05 C 439.86 436.97 430.39 437.78 420.98 437.53 C 415.02 437.75 408.99 437.02 403.07 438.01 C 402.53 437.79 401.43 437.35 400.89 437.13 C 401.07 422.13 400.67 407.12 401.10 392.14 Z" />
<path fill="#ffffff" opacity="1.00" d=" M 462.14 392.22 C 478.14 391.64 494.18 392.08 510.19 392.03 C 511.38 395.20 511.05 398.61 511.07 401.93 C 511.06 413.05 511.07 424.17 511.07 435.29 C 510.67 436.23 510.30 437.19 509.94 438.15 C 506.03 437.21 501.99 437.58 498.01 437.53 C 488.32 437.51 478.64 437.58 468.96 437.50 C 467.29 437.36 465.68 437.75 464.14 438.32 C 463.60 438.05 462.53 437.52 461.99 437.25 C 462.10 422.24 461.81 407.22 462.14 392.22 Z" />
<path fill="#ffffff" opacity="1.00" d=" M 0.74 770.51 C 19.71 770.53 38.67 770.42 57.63 770.56 C 66.31 771.00 71.93 779.57 72.57 787.59 C 73.08 796.06 72.42 804.55 72.98 813.02 C 72.88 820.38 73.46 827.83 72.21 835.12 C 70.77 842.20 64.66 849.22 56.97 848.99 C 45.90 849.02 34.83 848.99 23.75 849.00 C 23.73 861.84 23.80 874.68 23.72 887.52 C 16.06 887.47 8.41 887.51 0.75 887.50 C 0.74 848.50 0.76 809.51 0.74 770.51 M 23.75 799.75 C 23.74 806.40 23.77 813.06 23.74 819.71 C 32.41 819.80 41.08 819.72 49.75 819.75 C 49.75 813.08 49.75 806.42 49.75 799.76 C 41.09 799.75 32.42 799.75 23.75 799.75 Z" />
<path fill="#ffffff" opacity="1.00" d=" M 107.48 770.28 C 126.33 770.20 145.19 770.28 164.04 770.24 C 168.93 770.05 173.58 772.84 176.26 776.84 C 180.08 782.03 181.01 788.69 180.76 794.99 C 180.43 807.69 181.72 820.43 180.15 833.09 C 179.07 840.49 173.59 848.10 165.65 848.75 C 171.33 861.46 176.83 874.26 182.47 887.00 C 173.66 887.00 164.85 887.00 156.03 887.00 C 150.43 874.25 144.84 861.50 139.26 848.75 C 136.34 848.75 133.42 848.75 130.50 848.76 C 130.52 861.49 130.47 874.23 130.53 886.96 C 122.85 887.04 115.17 886.98 107.50 887.00 C 107.48 848.09 107.52 809.19 107.48 770.28 M 130.50 799.50 C 130.50 806.17 130.50 812.83 130.50 819.50 C 139.42 819.50 148.33 819.50 157.25 819.50 C 157.25 812.83 157.25 806.17 157.25 799.50 C 148.33 799.50 139.42 799.50 130.50 799.50 Z" />
<path fill="#ffffff" opacity="1.00" d=" M 322.73 770.29 C 334.82 770.09 346.91 770.52 358.99 770.00 C 366.69 769.96 374.40 769.93 382.09 770.56 C 388.46 770.89 394.34 775.69 395.84 781.91 C 397.45 788.12 396.74 794.61 397.22 800.95 C 397.25 822.29 397.30 843.63 397.20 864.98 C 397.34 872.07 395.29 880.02 388.90 884.00 C 384.92 887.08 379.70 886.71 374.97 886.99 C 357.57 887.01 340.16 886.99 322.75 887.00 C 322.74 848.10 322.77 809.19 322.73 770.29 M 345.75 799.51 C 345.74 818.91 345.77 838.31 345.74 857.71 C 355.25 857.76 364.76 857.78 374.27 857.70 C 374.22 838.31 374.25 818.91 374.25 799.51 C 364.75 799.49 355.25 799.50 345.75 799.51 Z" />
<path fill="#ffffff" opacity="1.00" d=" M 432.50 770.50 C 440.16 770.50 447.83 770.50 455.50 770.50 C 455.50 799.66 455.50 828.83 455.50 858.00 C 465.00 858.00 474.50 858.00 484.00 858.00 C 484.02 828.83 483.96 799.65 484.03 770.48 C 491.68 770.51 499.33 770.50 506.99 770.49 C 506.97 802.01 507.08 833.53 506.93 865.05 C 507.07 872.09 505.79 880.36 499.59 884.70 C 496.58 887.14 492.59 887.03 488.96 887.53 L 487.39 888.00 L 454.60 888.00 C 451.27 887.17 447.83 887.38 444.51 886.65 C 440.63 885.33 436.87 882.80 435.17 878.96 C 432.72 873.68 432.64 867.73 432.50 862.02 C 432.50 831.52 432.50 801.01 432.50 770.50 Z" />
<path fill="#ffffff" opacity="1.00" d=" M 543.14 784.93 C 544.20 778.19 549.20 771.96 556.06 770.60 C 561.98 769.74 567.99 770.03 573.96 770.02 C 583.09 770.56 592.26 769.98 601.40 770.37 C 606.30 770.58 610.93 773.42 612.99 777.93 C 618.02 787.85 615.72 799.33 616.25 810.00 C 608.58 809.99 600.91 810.01 593.24 809.99 C 593.25 806.42 593.23 802.86 593.27 799.30 C 583.85 799.19 574.43 799.29 565.01 799.24 C 564.98 818.66 565.01 838.08 565.00 857.50 C 574.41 857.50 583.83 857.50 593.25 857.50 C 593.24 853.83 593.25 850.17 593.23 846.51 C 600.90 846.48 608.58 846.50 616.25 846.50 C 616.06 855.69 616.97 865.07 614.62 874.07 C 613.23 880.10 608.97 886.67 602.17 886.96 C 588.78 887.05 575.38 886.97 561.99 887.00 C 555.49 887.08 548.66 884.48 544.89 878.98 C 541.21 874.13 541.38 867.73 541.50 861.95 C 541.50 843.96 541.50 825.98 541.50 807.99 C 541.38 800.28 541.84 792.53 543.14 784.93 Z" />
<path fill="#ffffff" opacity="1.00" d=" M 753.52 770.23 C 772.34 770.27 791.15 770.25 809.97 770.24 C 814.85 770.01 819.55 772.79 822.27 776.76 C 825.60 781.46 826.98 787.30 826.77 793.01 C 826.41 806.31 827.80 819.66 826.22 832.92 C 825.18 840.39 819.77 848.16 811.70 848.73 C 817.34 861.46 822.91 874.22 828.48 886.99 C 819.68 887.01 810.88 886.99 802.08 887.00 C 796.45 874.26 790.93 861.48 785.27 848.75 C 782.43 848.75 779.59 848.75 776.75 848.75 C 776.76 861.50 776.74 874.24 776.76 886.99 C 769.01 887.01 761.25 886.99 753.50 887.00 C 753.51 848.08 753.47 809.15 753.52 770.23 M 776.75 799.50 C 776.75 806.17 776.75 812.83 776.75 819.50 C 785.58 819.50 794.41 819.50 803.25 819.50 C 803.24 812.83 803.25 806.16 803.25 799.50 C 794.41 799.50 785.58 799.50 776.75 799.50 Z" />
<path fill="#ffffff" opacity="1.00" d=" M 217.21 780.21 C 220.25 775.50 225.09 771.30 230.93 771.03 C 239.60 770.42 248.30 770.90 256.98 770.75 C 262.82 770.79 268.75 770.43 274.52 771.62 C 282.73 773.43 288.44 781.79 288.26 790.02 C 288.24 816.36 288.26 842.70 288.25 869.04 C 288.06 878.42 280.52 888.06 270.62 888.00 L 234.51 888.00 C 228.86 887.68 222.60 886.76 218.81 882.08 C 213.48 876.43 213.54 868.24 213.75 860.99 C 213.75 840.32 213.76 819.66 213.74 798.99 C 213.80 792.63 213.62 785.77 217.21 780.21 M 236.75 800.00 C 236.75 819.58 236.75 839.17 236.75 858.75 C 246.25 858.75 255.74 858.73 265.23 858.76 C 265.27 839.17 265.23 819.59 265.25 800.00 C 255.75 800.00 246.25 800.00 236.75 800.00 Z" />
<path fill="#ffffff" opacity="1.00" d=" M 649.49 878.00 C 649.50 842.16 649.49 806.33 649.50 770.50 C 672.92 770.50 696.34 770.49 719.76 770.50 C 719.75 780.25 719.75 790.00 719.75 799.75 C 704.00 799.75 688.25 799.75 672.51 799.75 C 672.50 804.58 672.50 809.41 672.51 814.25 C 685.42 814.24 698.33 814.26 711.24 814.24 C 711.26 823.99 711.24 833.74 711.25 843.50 C 698.34 843.51 685.42 843.50 672.50 843.50 C 672.50 848.41 672.50 853.33 672.50 858.25 C 688.25 858.25 704.00 858.24 719.75 858.25 C 719.68 868.16 719.91 878.08 719.61 888.00 L 649.72 888.00 C 649.37 884.67 649.51 881.32 649.49 878.00 Z" />
</g>
</svg>
