<?xml version="1.0" encoding="UTF-8" ?>
<!DOCTYPE svg PUBLIC "-//W3C//DTD SVG 1.1//EN" "http://www.w3.org/Graphics/SVG/1.1/DTD/svg11.dtd">
<svg width="1200pt" height="1200pt" viewBox="0 0 1200 1200" version="1.1" xmlns="http://www.w3.org/2000/svg">
<g id="#ffffffff">
<path fill="#ffffff" opacity="1.00" d=" M 570.13 137.19 C 607.84 135.06 645.86 138.26 682.52 147.45 C 726.21 158.27 767.99 177.28 804.48 203.69 C 860.95 243.98 904.94 302.42 925.16 369.01 C 945.18 433.28 942.31 504.28 917.57 566.87 C 898.61 615.11 867.18 658.16 827.94 691.92 C 788.41 725.91 741.13 750.69 690.86 764.39 C 622.80 783.03 549.48 781.68 482.14 760.62 C 445.88 749.08 411.23 732.11 380.50 709.61 C 349.87 687.64 323.14 660.29 301.67 629.33 C 278.62 595.78 262.05 557.76 253.77 517.88 C 246.29 481.48 245.60 443.71 251.73 407.06 C 261.70 347.49 290.31 291.48 331.61 247.54 C 371.97 203.95 424.23 171.90 480.71 153.83 C 509.70 144.71 539.80 139.08 570.13 137.19 M 567.63 171.82 C 521.95 175.03 476.89 187.88 436.54 209.58 C 391.48 233.63 352.25 268.90 324.67 311.98 C 297.07 354.90 281.49 405.79 281.96 456.92 C 281.60 495.09 290.15 533.27 306.07 567.93 C 322.20 603.35 346.07 635.10 374.93 661.13 C 431.89 712.82 508.31 741.71 585.01 742.98 C 622.53 743.96 660.25 738.76 695.96 727.11 C 750.74 709.63 800.83 677.06 838.17 633.23 C 840.11 630.78 842.49 628.59 843.68 625.64 C 846.26 623.79 847.88 621.02 849.81 618.56 C 882.16 575.56 901.62 522.81 903.89 468.98 C 904.31 451.64 904.02 434.21 901.13 417.06 C 892.26 357.22 861.86 301.38 818.30 259.69 C 760.71 203.78 680.98 172.33 600.97 171.02 C 589.86 171.03 578.70 170.67 567.63 171.82 Z" />
<path fill="#ffffff" opacity="1.00" d=" M 481.26 279.21 C 517.65 260.06 558.54 247.77 599.96 249.49 C 639.58 250.92 677.92 264.48 712.19 283.85 C 734.80 297.89 752.97 320.06 760.03 345.93 C 763.10 356.69 762.11 367.92 762.26 378.95 C 762.25 455.94 762.26 532.93 762.25 609.92 C 752.44 609.92 742.63 609.91 732.81 609.92 C 732.79 527.28 732.84 444.63 732.79 361.98 C 732.10 348.62 724.61 336.69 716.16 326.75 C 708.68 317.94 699.74 310.38 689.93 304.28 C 683.06 299.90 675.30 297.31 667.79 294.32 C 643.02 284.82 616.77 278.00 590.07 278.56 C 559.89 278.88 530.69 288.33 503.14 299.98 C 487.99 307.20 474.98 318.52 464.77 331.76 C 459.60 338.73 455.21 346.47 453.15 354.97 C 451.90 359.88 452.13 365.00 452.13 370.03 C 452.13 449.99 452.13 529.96 452.12 609.92 C 442.30 609.92 432.48 609.91 422.66 609.92 C 422.65 528.62 422.66 447.33 422.66 366.03 C 422.09 348.57 428.59 331.52 438.21 317.19 C 449.02 301.15 463.84 287.73 481.26 279.21 Z" />
<path fill="#ffffff" opacity="1.00" d=" M 367.09 501.98 C 371.23 469.56 391.34 439.70 419.70 423.49 C 419.58 485.62 419.64 547.75 419.67 609.88 C 391.34 593.45 370.97 563.61 367.07 530.99 C 367.08 521.32 367.04 511.65 367.09 501.98 Z" />
<path fill="#ffffff" opacity="1.00" d=" M 765.19 423.45 C 797.80 441.89 819.13 478.50 818.91 516.00 C 819.49 549.41 803.08 582.40 776.40 602.43 C 772.85 605.13 769.09 607.53 765.32 609.91 C 765.12 547.76 765.40 485.60 765.19 423.45 Z" />
<path fill="#ffffff" opacity="1.00" d=" M 257.24 860.75 C 470.50 860.74 683.75 860.75 897.00 860.75 C 897.00 937.50 897.00 1014.25 897.00 1091.00 C 683.75 1090.99 470.49 1091.02 257.24 1090.99 C 257.26 1014.24 257.24 937.50 257.24 860.75 M 270.00 892.00 C 270.00 948.00 270.00 1004.00 270.00 1060.00 C 278.33 1060.00 286.67 1060.00 295.00 1060.00 C 295.00 1035.44 295.00 1010.89 295.00 986.33 C 295.83 986.22 297.49 985.98 298.32 985.86 C 306.16 1010.50 313.52 1035.29 321.14 1060.00 C 330.28 1060.00 339.41 1059.99 348.54 1060.00 C 339.03 1033.92 329.63 1007.79 320.09 981.72 C 323.63 980.25 327.19 978.67 330.15 976.19 C 336.82 970.96 339.97 962.29 340.01 953.99 C 339.99 944.33 340.00 934.67 340.00 925.01 C 339.82 916.26 337.61 907.01 331.38 900.55 C 325.34 894.37 316.41 892.16 308.03 892.00 C 295.35 891.99 282.68 892.00 270.00 892.00 M 365.00 892.00 C 365.00 948.00 365.00 1004.00 365.00 1060.00 C 386.67 1060.00 408.33 1060.00 430.00 1060.00 C 429.98 1052.07 430.03 1044.15 429.97 1036.23 C 416.57 1036.27 403.16 1036.24 389.75 1036.25 C 389.75 1020.08 389.75 1003.92 389.75 987.75 C 401.32 987.77 412.88 987.70 424.45 987.78 C 424.56 979.85 424.47 971.93 424.50 964.00 C 412.91 964.00 401.33 964.00 389.75 964.00 C 389.75 947.91 389.75 931.83 389.75 915.75 C 403.16 915.75 416.58 915.74 429.99 915.76 C 430.01 907.84 429.99 899.92 430.00 892.00 C 408.33 892.00 386.67 892.00 365.00 892.00 M 450.75 892.00 C 450.75 948.00 450.75 1004.00 450.75 1060.00 C 458.83 1060.00 466.92 1060.00 475.00 1060.00 C 475.00 1039.01 475.00 1018.02 475.00 997.03 C 475.23 986.57 474.51 976.06 475.40 965.64 C 482.35 997.13 490.23 1028.42 497.31 1059.89 C 502.95 1060.13 508.60 1059.92 514.24 1060.01 C 519.22 1038.31 524.14 1016.60 529.11 994.90 C 531.18 985.09 533.89 975.40 535.48 965.49 C 536.19 968.94 535.99 972.48 536.00 975.99 C 536.00 1003.99 536.00 1032.00 536.00 1060.00 C 544.00 1060.00 552.00 1060.00 560.00 1060.00 C 560.00 1004.00 560.00 948.00 560.00 892.00 C 551.67 892.00 543.34 892.00 535.01 892.00 C 525.09 930.46 515.61 969.04 505.46 1007.43 C 495.61 968.95 485.68 930.48 475.76 892.01 C 467.42 891.98 459.09 892.00 450.75 892.00 M 585.50 892.00 C 585.50 948.00 585.50 1004.00 585.50 1060.00 C 593.92 1059.99 602.34 1060.01 610.76 1059.99 C 610.75 1004.00 610.73 948.01 610.77 892.03 C 602.35 891.97 593.92 892.01 585.50 892.00 M 628.39 892.00 C 637.92 920.02 647.74 947.95 657.21 975.98 C 647.70 1004.03 637.94 1032.00 628.29 1060.00 C 636.70 1059.92 645.11 1060.15 653.51 1059.88 C 658.79 1044.07 664.29 1028.34 669.80 1012.61 C 675.69 1028.25 680.79 1044.20 686.34 1059.98 C 694.72 1060.03 703.10 1059.98 711.48 1060.00 C 701.71 1032.02 692.06 1004.00 682.38 975.99 C 691.99 947.98 701.75 920.02 711.36 892.01 C 702.99 892.01 694.62 891.96 686.26 892.03 C 683.16 901.35 679.87 910.61 676.68 919.90 C 674.27 926.31 672.57 933.03 669.70 939.22 C 664.39 923.49 658.76 907.86 653.56 892.09 C 645.17 891.88 636.78 892.05 628.39 892.00 M 728.75 892.00 C 728.75 948.00 728.75 1004.00 728.75 1060.00 C 750.43 1059.98 772.10 1060.04 793.77 1059.97 C 793.72 1052.06 793.76 1044.15 793.75 1036.25 C 780.41 1036.25 767.08 1036.25 753.75 1036.25 C 753.75 1020.08 753.75 1003.92 753.75 987.75 C 765.24 987.76 776.73 987.73 788.22 987.77 C 788.28 979.84 788.23 971.92 788.25 964.00 C 776.75 964.00 765.25 964.00 753.75 964.00 C 753.75 947.91 753.75 931.83 753.75 915.75 C 767.08 915.74 780.42 915.75 793.75 915.75 C 793.75 907.83 793.74 899.92 793.76 892.01 C 772.09 891.99 750.42 892.00 728.75 892.00 M 814.75 892.00 C 814.75 948.00 814.75 1004.00 814.75 1060.00 C 823.00 1060.00 831.25 1060.00 839.50 1060.00 C 839.47 1035.45 839.55 1010.91 839.46 986.36 C 840.64 986.20 841.82 986.05 843.02 985.92 C 850.70 1010.59 858.11 1035.33 865.79 1060.00 C 874.90 1059.99 884.01 1060.00 893.12 1060.00 C 883.62 1033.92 874.25 1007.79 864.68 981.73 C 871.49 979.28 877.94 974.89 881.23 968.26 C 885.94 959.24 884.51 948.76 884.75 938.97 C 884.70 927.45 885.63 914.93 879.25 904.73 C 874.05 896.16 863.75 892.40 854.14 892.04 C 841.01 891.94 827.88 892.03 814.75 892.00 Z" />
<path fill="#ffffff" opacity="1.00" d=" M 295.00 915.75 C 300.00 916.07 305.30 914.85 310.05 916.87 C 313.95 918.60 315.12 923.17 315.20 927.06 C 315.31 935.37 315.24 943.68 315.23 951.99 C 315.37 956.21 313.70 960.88 309.66 962.79 C 305.08 964.88 299.86 963.69 295.00 964.00 C 295.00 947.91 295.00 931.83 295.00 915.75 Z" />
<path fill="#ffffff" opacity="1.00" d=" M 839.42 963.89 C 839.62 947.84 839.40 931.78 839.53 915.73 C 844.80 916.19 850.63 914.55 855.44 917.38 C 858.79 919.26 859.69 923.40 859.76 926.97 C 859.72 935.89 859.81 944.82 859.71 953.75 C 859.71 958.61 855.97 963.21 851.08 963.80 C 847.20 964.18 843.30 964.01 839.42 963.89 Z" />
</g>
</svg>
